<svg id="Layer_1" data-name="Layer 1" xmlns="http://www.w3.org/2000/svg" viewBox="0 0 500 500"><defs><style>.cls-1{fill:#ebebeb;}.cls-2{fill:#f5f5f5;}.cls-3{fill:#fafafa;}.cls-4{fill:#e0e0e0;}.cls-5{fill:#9f5b53;}.cls-6{fill:#263238;}.cls-7{fill:#407bff;}.cls-11,.cls-12,.cls-13,.cls-18,.cls-8{fill:#fff;}.cls-14,.cls-8{opacity:0.3;}.cls-10,.cls-11,.cls-13,.cls-18,.cls-8{isolation:isolate;}.cls-9{fill:#e4897b;}.cls-10,.cls-11{opacity:0.2;}.cls-13{opacity:0.6;}.cls-15{fill:#892b29;}.cls-16,.cls-21,.cls-22{fill:none;stroke:#263238;stroke-linecap:round;stroke-linejoin:round;}.cls-16{stroke-width:0.72px;}.cls-17{fill:#de5753;}.cls-18{opacity:0.7;}.cls-19{fill:#eec1bb;}.cls-20{fill:#d4827d;}.cls-21{stroke-width:0.71px;}.cls-22{stroke-width:0.49px;}.cls-23{fill:#ebb376;}.cls-24{fill:#d58745;}.cls-25{fill:#1b3a89;}</style></defs><g id="freepik--background-complete--inject-6"><rect class="cls-1" y="382.4" width="500" height="0.25"/><rect class="cls-1" x="416.78" y="398.49" width="33.12" height="0.25"/><rect class="cls-1" x="322.53" y="401.21" width="8.69" height="0.25"/><rect class="cls-1" x="396.59" y="389.21" width="19.19" height="0.25"/><rect class="cls-1" x="52.46" y="390.89" width="43.19" height="0.25"/><rect class="cls-1" x="104.56" y="390.89" width="6.33" height="0.25"/><rect class="cls-1" x="131.47" y="395.11" width="93.68" height="0.25"/><path class="cls-1" d="M237,337.8H43.91a5.71,5.71,0,0,1-5.7-5.71V60.66A5.71,5.71,0,0,1,43.91,55H237a5.71,5.71,0,0,1,5.71,5.71h0V332.09A5.71,5.71,0,0,1,237,337.8ZM43.91,55.2a5.46,5.46,0,0,0-5.45,5.46V332.09a5.46,5.46,0,0,0,5.45,5.46H237a5.48,5.48,0,0,0,5.46-5.46V60.66A5.48,5.48,0,0,0,237,55.2Z"/><path class="cls-1" d="M260.21,337.55a5.47,5.47,0,0,1-5.46-5.46V108h-.25V332.09a5.72,5.72,0,0,0,5.71,5.71h19.12a2.29,2.29,0,0,1,0-.25Zm0,0a5.47,5.47,0,0,1-5.46-5.46V108h-.25V332.09a5.72,5.72,0,0,0,5.71,5.71h19.12a2.29,2.29,0,0,1,0-.25ZM453.31,55H260.21a5.72,5.72,0,0,0-5.71,5.66V332.09a5.72,5.72,0,0,0,5.71,5.71h193.1a5.7,5.7,0,0,0,5.69-5.71V60.66A5.71,5.71,0,0,0,453.31,55Zm5.46,277.09a5.47,5.47,0,0,1-5.46,5.46H260.21a5.47,5.47,0,0,1-5.46-5.46V60.66a5.48,5.48,0,0,1,5.46-5.46h193.1a5.48,5.48,0,0,1,5.46,5.46Zm-198.56,5.46a5.47,5.47,0,0,1-5.46-5.46V108h-.25V332.09a5.72,5.72,0,0,0,5.71,5.71h19.12a2.29,2.29,0,0,1,0-.25Z"/><path class="cls-2" d="M98.71,258.08C100.93,174.94,169.24,108,252.9,108s152,66.94,154.19,150.08h33.07C437.93,156.71,354.79,74.93,252.9,74.93S67.9,156.71,65.64,258.08Z"/><path class="cls-1" d="M98.71,258.08C100.93,174.94,169.24,108,252.9,108s152,66.94,154.19,150.08H431.9c-2.23-96.81-81.67-174.88-179-174.88S76.13,161.27,73.9,258.08Z"/><path class="cls-3" d="M98.71,258.08C100.93,174.94,169.24,108,252.9,108s152,66.94,154.19,150.08h16.54C421.4,165.82,345.68,91.47,252.9,91.47S84.39,165.82,82.17,258.08Z"/><path class="cls-4" d="M98.71,258.08C100.93,174.94,169.24,108,252.9,108s152,66.94,154.19,150.08h8.27a162.52,162.52,0,0,0-324.93,0Z"/><path class="cls-4" d="M73.13,366.9s-4.7-15.73,4.8-18.86,15.14-10.49,14.82-18.81,9.68-16.42,17.18-8.63,6.5-6,16.5-9.34,18.48,4.78,15.74,12.21,7.13,12.08,19,5.76S186,334.4,183.48,343.4s-.45,10,7,7,20.85,5.5,16.16,16.5S73.13,366.9,73.13,366.9Z"/><path class="cls-4" d="M324.43,368.4c-5-5-.5-13.5,4.5-14.5s10-9.79,10.27-15.4,9.23-22.82,23.23-12.19,9.75,1.57,19.88-1.42,16.51,5.61,12.07,12.06c0,0,10.17-2.55,14.36,6.95s0,15.4,0,15.4,19.14-.56,17.42,11.27S324.43,368.4,324.43,368.4Z"/><path class="cls-1" d="M443,368.7v13.7H57V368.7a4.07,4.07,0,0,1,3.85-4.29H439a4.08,4.08,0,0,1,4,4.15A.76.76,0,0,0,443,368.7Z"/><rect class="cls-2" x="79" y="364.4" width="24" height="18"/><rect class="cls-2" x="125" y="364.4" width="23" height="18"/><rect class="cls-2" x="170" y="364.4" width="24" height="18"/><rect class="cls-2" x="216" y="364.4" width="23" height="18"/><rect class="cls-2" x="261" y="364.4" width="23" height="18"/><rect class="cls-2" x="306" y="364.4" width="24" height="18"/><rect class="cls-2" x="352" y="364.4" width="23" height="18"/><rect class="cls-2" x="397" y="364.4" width="24" height="18"/><path class="cls-4" d="M121.53,251.14a8.79,8.79,0,0,0-11.35-8.44,18.67,18.67,0,0,0-21.91-21.06A16.32,16.32,0,0,0,58,229.89h-.27a15,15,0,1,0,0,30.08H113A8.81,8.81,0,0,0,121.53,251.14Z"/><path class="cls-4" d="M454.83,253.68a8.78,8.78,0,0,0-8.74-8.82,8.48,8.48,0,0,0-2.6.38,20.45,20.45,0,0,0,.19-2.71A18.67,18.67,0,0,0,425,223.86a18.9,18.9,0,0,0-3.44.32,16.32,16.32,0,0,0-30.26,8.25H391a15,15,0,0,0,0,30.08h55.24A8.8,8.8,0,0,0,454.83,253.68Z"/><path class="cls-4" d="M437.45,159.08a5.63,5.63,0,0,0-5.63-5.63h0a5.85,5.85,0,0,0-1.61.23,12.32,12.32,0,0,0,.12-1.72,11.92,11.92,0,0,0-11.88-12h0a12.5,12.5,0,0,0-2.2.2,10.42,10.42,0,0,0-19.32,5.27h-.17a9.61,9.61,0,0,0,0,19.21H432A5.63,5.63,0,0,0,437.45,159.08Z"/><path class="cls-4" d="M311.85,86a5.6,5.6,0,0,0-5.6-5.6h0a5.46,5.46,0,0,0-1.61.24,12.47,12.47,0,0,0,.13-1.73A11.87,11.87,0,0,0,292.9,67.09a12.39,12.39,0,0,0-2.19.2,10.37,10.37,0,0,0-19.23,5.25h-.17a9.56,9.56,0,0,0,0,19.12h35.1A5.61,5.61,0,0,0,311.85,86Z"/><path class="cls-4" d="M136.27,136a5.6,5.6,0,0,0-5.6-5.6h0a5.85,5.85,0,0,0-1.61.23,12.32,12.32,0,0,0,.12-1.72A11.86,11.86,0,0,0,117.37,117h-.05a12.39,12.39,0,0,0-2.19.2,10.37,10.37,0,0,0-19.23,5.24h-.17a9.56,9.56,0,0,0,0,19.12h35.09A5.61,5.61,0,0,0,136.27,136Z"/></g><g id="freepik--Shadow--inject-6"><ellipse id="freepik--path--inject-6" class="cls-2" cx="250" cy="416.24" rx="193.89" ry="11.32"/></g><g id="freepik--character-4--inject-6"><path class="cls-5" d="M326.65,176.72l-3.3-4.5a3.39,3.39,0,0,0-.92-3c-1.32-1.5-9.89-.71-11.21-.58s-3.5,5.39-2.21,6.92,9.53,1.79,10.29,1.13l2.6,3.62Z"/><path class="cls-6" d="M376.29,165.55c-.26-3.6,2-5,4.88-3.77s5.37-3,9.21-2,2.66,4.83,4.64,5.77,4.21-.19,5.07,4.63-2.3,2.32-.91,6.54,5.53,5.41,2,9-5.93,5-3.16,8-.23,5.88-1.5,6.87,5.51,6.72,3.6,11.86-17.84,9.89-27.67,6.14-12.56-9.43-12-15.89,5.33-8.17,5-10.19-3.47-3.79-1.69-6.76,6.72-3.23,5.14-6.07-1.38-6,.4-7.39,3.44-1,3.11-3.85S376.29,165.55,376.29,165.55Z"/><path class="cls-7" d="M367.68,196.71s-22.57.2-26.79-5S326,174.11,326,174.11l-6,3.74s10.5,23.45,17.09,28.6,26.21,6.21,26.21,6.21Z"/><path class="cls-8" d="M367.68,196.71s-22.57.2-26.79-5S326,174.11,326,174.11l-6,3.74s10.5,23.45,17.09,28.6,26.21,6.21,26.21,6.21Z"/><polygon class="cls-9" points="329.16 403.62 335.16 404.68 337.62 396.5 339.86 389 332.95 386.58 330.94 395.6 329.16 403.62"/><path class="cls-7" d="M336.51,404.52c.1-.67-8.11-1.58-8.11-1.58s-5.9,4.2-10.95,4.48-2.86,3.68,2.57,4.64l13.42,2.37C337.29,415.11,335.46,411.4,336.51,404.52Z"/><path class="cls-6" d="M323.08,403.94a.77.77,0,0,1-.05-.9.91.91,0,0,1,.53-.47,3.37,3.37,0,0,1,1.86.12c-.6-.47-1.1-1-1.05-1.43,0-.28.25-.48.65-.59a1.24,1.24,0,0,1,1.06.16c1,.65,1.37,2.66,1.38,2.75a.17.17,0,0,1,0,.1h0v.05h0a.1.1,0,0,1,0,.06h-.07a12.28,12.28,0,0,1-2.95.48A1.75,1.75,0,0,1,323.08,403.94Zm.63-1a.45.45,0,0,0-.28.24c-.14.3-.05.41,0,.44.32.38,1.89.2,3.18-.1-.9-.32-2.26-.78-2.9-.52Zm1.43-1.89c-.12,0-.33.11-.34.22,0,.37,1,1.21,2.13,1.88a3.6,3.6,0,0,0-1.09-2,.79.79,0,0,0-.45-.13,1,1,0,0,0-.25.07Z"/><polygon class="cls-10" points="330.91 395.79 337.59 396.67 339.85 389.08 332.94 386.62 330.91 395.79"/><polygon class="cls-9" points="369.19 406.19 375.28 406.19 376.28 397.71 377.18 389.93 369.95 388.75 369.55 397.98 369.19 406.19"/><path class="cls-7" d="M376.58,405.8c0-.67-8.26-.15-8.26-.15s-5.07,5.16-10,6.32-2.18,4.12,3.33,4.12h13.63C379.19,416.09,376.75,412.75,376.58,405.8Z"/><path class="cls-6" d="M363.25,407.56a.79.79,0,0,1-.2-.87.88.88,0,0,1,.44-.56,3.35,3.35,0,0,1,1.85-.2c-.67-.36-1.25-.8-1.28-1.23a.77.77,0,0,1,.54-.69,1.25,1.25,0,0,1,1.07,0c1.12.46,1.81,2.39,1.84,2.47a.17.17,0,0,1,0,.17h0l-.07.06a10.45,10.45,0,0,1-3.42,1A1.09,1.09,0,0,1,363.25,407.56Zm.46-1.06a.53.53,0,0,0-.24.29c-.08.33,0,.41.06.44.39.32,1.9-.14,3.11-.65A5.31,5.31,0,0,0,363.71,406.5Zm1.08-2.1c-.11.05-.3.16-.3.27,0,.38,1.21,1,2.43,1.48a3.59,3.59,0,0,0-1.42-1.77.75.75,0,0,0-.33-.07.85.85,0,0,0-.38.09Z"/><polygon class="cls-10" points="369.55 398.17 376.28 397.88 377.18 390.01 369.95 388.8 369.55 398.17"/><path class="cls-6" d="M330.34,391l9.86,1.74c9.94-24.79,17-45.47,22-62.64,2.69-9.26,4.78-17.49,6.4-24.8l-.45,27v61.28h10c24.34-116.11,7.09-142.65,7.09-142.65l-29.13-5a131.87,131.87,0,0,0-2.44,16.3l-1.31,9.64L341,330.68Z"/><path class="cls-11" d="M330.34,391l9.86,1.74c9.94-24.79,17-45.47,22-62.64,2.69-9.26,4.78-17.49,6.4-24.8l-.45,27v61.28h10c24.34-116.11,7.09-142.65,7.09-142.65l-29.13-5a131.87,131.87,0,0,0-2.44,16.3l-1.31,9.64L341,330.68Z"/><polygon class="cls-6" points="341.74 391.55 329.52 387.5 329.68 392.69 339.79 395.92 341.74 391.55"/><polygon class="cls-6" points="379.48 392.11 366.74 390.25 367.8 395.34 378.32 396.76 379.48 392.11"/><polygon class="cls-6" points="385.27 246.58 385.27 250.93 355.56 248.65 355.56 243.51 385.27 246.58"/><rect class="cls-12" x="362.99" y="244.04" width="4.95" height="6.52" transform="translate(86.54 589.24) rotate(-84.88)"/><rect class="cls-6" x="372.08" y="247.81" width="7.51" height="1.48" transform="translate(108.46 611.24) rotate(-87.08)"/><rect class="cls-11" x="372.08" y="247.81" width="7.51" height="1.48" transform="translate(108.46 611.24) rotate(-87.08)"/><rect class="cls-6" x="353.92" y="245.82" width="7.51" height="1.48" transform="translate(93.21 591.21) rotate(-87.08)"/><rect class="cls-11" x="353.92" y="245.82" width="7.51" height="1.48" transform="translate(93.21 591.21) rotate(-87.08)"/><path class="cls-7" d="M400.09,204.73c-.9,1.83-1.72,3.57-2.48,5.21-.65,1.38-1.25,2.69-1.82,3.94l-1,2.12c-.24.54-.48,1.08-.7,1.6-.79,1.79-1.49,3.46-2.12,5-.37.92-.71,1.81-1,2.67l-.44,1.18c-.68,1.81-1.25,3.49-1.75,5.08-.43,1.38-.81,2.7-1.16,4-.46,1.75-.85,3.45-1.21,5.18-.28,1.33-.54,2.68-.8,4.08-.12.59-.23,1.19-.34,1.8l-29.71-3.09c.1-1.67.21-3.29.33-4.87.1-1.4.2-2.76.31-4.08.16-1.88.32-3.68.48-5.41q.21-2.1.42-4c.2-1.9.41-3.69.62-5.39.17-1.42.35-2.76.52-4,.27-2,.54-3.75.79-5.36s.47-2.82.68-4q.41-2.22.72-3.69c1.31-6,2.27-6.13,2.27-6.13s6.68.14,12.41.86h.15a93.86,93.86,0,0,1,11.47,2.52c.49.13,1,.27,1.45.42A87.28,87.28,0,0,1,400.09,204.73Z"/><path class="cls-13" d="M400.09,204.73c-.9,1.83-1.72,3.57-2.48,5.21-.65,1.38-1.25,2.69-1.82,3.94l-1,2.12c-.24.54-.48,1.08-.7,1.6-.79,1.79-1.49,3.46-2.12,5-.37.92-.71,1.81-1,2.67l-.44,1.18c-.68,1.81-1.25,3.49-1.75,5.08-.43,1.38-.81,2.7-1.16,4-.46,1.75-.85,3.45-1.21,5.18-.28,1.33-.54,2.68-.8,4.08-.12.59-.23,1.19-.34,1.8l-29.71-3.09c.1-1.67.21-3.29.33-4.87.1-1.4.2-2.76.31-4.08.16-1.88.32-3.68.48-5.41q.21-2.1.42-4c.2-1.9.41-3.69.62-5.39.17-1.42.35-2.76.52-4,.27-2,.54-3.75.79-5.36s.47-2.82.68-4q.41-2.22.72-3.69c1.31-6,2.27-6.13,2.27-6.13s6.68.14,12.41.86h.15a93.86,93.86,0,0,1,11.47,2.52c.49.13,1,.27,1.45.42A87.28,87.28,0,0,1,400.09,204.73Z"/><path class="cls-10" d="M362.22,330.13c2.69-9.26,4.78-17.49,6.4-24.8a228.46,228.46,0,0,0-1.89-25.87S362.47,312.82,362.22,330.13Z"/><path class="cls-7" d="M377.83,197.25c-3.51-.51-5.67,1.49-4.05,4.85s2.16,3.86,7.68,2.87S393.4,199.53,377.83,197.25Z"/><path class="cls-7" d="M395.79,213.88l-1,2.12c-.24.54-.48,1.08-.7,1.6-8.82-2.07-25.35-5.82-35.1-7.28.24-1.49.47-2.82.68-4A300.48,300.48,0,0,1,395.79,213.88Z"/><path class="cls-7" d="M392,222.63c-.37.92-.71,1.81-1,2.67l-.44,1.18c-9-2.09-23.69-5.37-32.81-6.77.17-1.42.35-2.76.52-4A310.26,310.26,0,0,1,392,222.63Z"/><path class="cls-7" d="M388.78,231.56c-.43,1.38-.81,2.7-1.16,4-8.83-2-22.19-5-30.94-6.39q.21-2.1.42-4A313.49,313.49,0,0,1,388.78,231.56Z"/><path class="cls-7" d="M386.41,240.72c-.28,1.33-.54,2.68-.8,4.08-8.53-2-21.08-4.75-29.72-6.16.1-1.4.2-2.76.31-4.08C363.5,235.69,374.82,237.69,386.41,240.72Z"/><g class="cls-14"><path class="cls-12" d="M377.83,197.25c-3.51-.51-5.67,1.49-4.05,4.85s2.16,3.86,7.68,2.87S393.4,199.53,377.83,197.25Z"/><path class="cls-12" d="M395.79,213.88l-1,2.12c-.24.54-.48,1.08-.7,1.6-8.82-2.07-25.35-5.82-35.1-7.28.24-1.49.47-2.82.68-4A300.48,300.48,0,0,1,395.79,213.88Z"/><path class="cls-12" d="M392,222.63c-.37.92-.71,1.81-1,2.67l-.44,1.18c-9-2.09-23.69-5.37-32.81-6.77.17-1.42.35-2.76.52-4A310.26,310.26,0,0,1,392,222.63Z"/><path class="cls-12" d="M388.78,231.56c-.43,1.38-.81,2.7-1.16,4-8.83-2-22.19-5-30.94-6.39q.21-2.1.42-4A313.49,313.49,0,0,1,388.78,231.56Z"/><path class="cls-12" d="M386.41,240.72c-.28,1.33-.54,2.68-.8,4.08-8.53-2-21.08-4.75-29.72-6.16.1-1.4.2-2.76.31-4.08C363.5,235.69,374.82,237.69,386.41,240.72Z"/></g><path class="cls-5" d="M376.78,204.16c7.38-.07,9.93-2.92,9.93-2.92-4.1-4.9.63-12,.63-12l-8.95.6a25.82,25.82,0,0,1-.09,3.73c-.57,5.32-3,5.09-3,5.09C373.45,201.36,376.78,204.16,376.78,204.16Z"/><path class="cls-10" d="M378.39,189.85a25.82,25.82,0,0,1-.09,3.73c5.91.7,9-4.33,9-4.33Z"/><path class="cls-5" d="M386.12,166c-7.56-1.31-10.69,2.31-12.61,10-2.38,9.62-1.43,16.91,8.39,16.48C395.22,191.84,398.68,168.14,386.12,166Z"/><path class="cls-15" d="M378.48,176.38a17,17,0,0,1-2.75,2.75,2.14,2.14,0,0,0,1.84,1.21Z"/><path class="cls-6" d="M383.21,176.57c-.12.62.11,1.18.52,1.27s.85-.36,1-1-.11-1.18-.52-1.26S383.33,176,383.21,176.57Z"/><path class="cls-6" d="M384.34,175.66l-1.24-.79S383.55,176.13,384.34,175.66Z"/><path class="cls-6" d="M375.55,174.92c-.13.61.11,1.18.52,1.26s.85-.35,1-1-.11-1.18-.52-1.27S375.67,174.3,375.55,174.92Z"/><path class="cls-6" d="M376.68,174l-1.24-.8S375.89,174.48,376.68,174Z"/><path class="cls-16" d="M384.19,171.36a4,4,0,0,1,3.08,1.72"/><path class="cls-16" d="M378.76,170.09a3.58,3.58,0,0,0-3.13.09"/><path class="cls-6" d="M378.16,183.5a18.46,18.46,0,0,1,.42,2.78h.5c2.24.16,3.33-.5,3.86-1.29a3.16,3.16,0,0,0,.44-2.08,10.42,10.42,0,0,1-4.46.59A5,5,0,0,1,378.16,183.5Z"/><path class="cls-12" d="M378.92,183.54l.15.82c2.11.15,3.61,0,4.32-.63a3.39,3.39,0,0,0,0-.78A10.45,10.45,0,0,1,378.92,183.54Z"/><path class="cls-17" d="M379.08,186.32c2.24.16,3.33-.5,3.86-1.29a7.16,7.16,0,0,0-2.52.31A2.69,2.69,0,0,0,379.08,186.32Z"/><path class="cls-6" d="M392.17,180.13s-2.46-6.82-1.09-11.53c0,0-13.91-8.72-17.3,6.35,0,0,.89-13.75,13.94-11.79s9.68,21,2,25.46C389.7,188.62,393.68,184.4,392.17,180.13Z"/><path class="cls-5" d="M390.65,181.51a3.37,3.37,0,0,1,4.1-2.41c2.3.67,2.58,5.67-3.45,5.81C390.43,184.93,390.1,184,390.65,181.51Z"/><path class="cls-5" d="M403.13,231.57l-9-2.77s.2-1.87-.81-2.32-13.9-1.77-14.24-.58.36,8.6,2.38,9.64,10.86,1.44,11.12,1a8.88,8.88,0,0,1,.74-1l9.24,2.85Z"/><path class="cls-7" d="M400.09,204.73c7.13,3.24,22.69,31.48,20.32,37.93s-21.89-3.78-21.89-3.78l1.57-9.68,4.46,1.12s-5.58-9.15-10.42-12.72a17.84,17.84,0,0,1,1.66-7.19A23.83,23.83,0,0,1,400.09,204.73Z"/><path class="cls-8" d="M400.09,204.73c7.13,3.24,22.69,31.48,20.32,37.93s-21.89-3.78-21.89-3.78l1.57-9.68,4.46,1.12s-5.58-9.15-10.42-12.72a17.84,17.84,0,0,1,1.66-7.19A23.83,23.83,0,0,1,400.09,204.73Z"/></g><g id="freepik--character-1--inject-6"><g id="freepik--group--inject-6"><path class="cls-9" d="M184.19,137.69,188.47,112c-2.3-2.28,3-15.32,3-16.73s8.06,4.61,8.2,5.9-2,10.47-4.41,11.79L194,140.39S188.9,142.55,184.19,137.69Z"/><path class="cls-6" d="M145.53,158.24s26.61-1.16,31.72-4.86,8.64-35.44,8.64-35.44l13,1.28s-3.47,35.17-10.28,44S155,176.28,155,176.28Z"/><path class="cls-11" d="M198.91,119.22s-3.47,35.17-10.28,44c-3.39,4.38-11.77,7.65-19.31,9.82A134.74,134.74,0,0,1,155,176.28l-5.16-9.85-4.3-8.19s26.61-1.16,31.72-4.86,8.64-35.44,8.64-35.44Z"/><path class="cls-10" d="M169.32,173A134.9,134.9,0,0,1,155,176.28l-5.16-9.85C155,166.88,165.88,168.36,169.32,173Z"/><path class="cls-9" d="M84.86,190,71.11,167.84c1.26-3,3.1-13.17,2.51-14.46S63.4,149.22,63,150.43c-1.19,3.22-.56,20.6,2.21,20.9l11.65,24.91S82.35,196.3,84.86,190Z"/><polygon class="cls-9" points="150.25 408.64 158.37 409.5 159.89 392 151.78 391.14 150.25 408.64"/><polygon class="cls-9" points="109.77 408.05 117.63 408.05 118.28 389.84 110.41 389.84 109.77 408.05"/><path class="cls-6" d="M118.72,407.14h-9.55a.68.68,0,0,0-.67.54l-1.55,7a1.16,1.16,0,0,0,.9,1.37h.25c3.09-.05,5.34-.24,9.22-.24,2.39,0,9.6.25,12.9.25s3.73-3.26,2.38-3.56c-6.06-1.32-10.62-3.15-12.56-4.89A1.88,1.88,0,0,0,118.72,407.14Z"/><path class="cls-7" d="M119.26,408.23a.19.19,0,0,1-.14-.16.19.19,0,0,1,.09-.18c.28-.18,2.82-1.74,3.69-1.29a.55.55,0,0,1,.32.52,1.07,1.07,0,0,1-.39,1,2.38,2.38,0,0,1-1.51.4A9.47,9.47,0,0,1,119.26,408.23Zm.54-.26a3.82,3.82,0,0,0,2.8-.14.75.75,0,0,0,.25-.67c0-.15-.07-.22-.12-.22a.4.4,0,0,0-.24-.05A7.56,7.56,0,0,0,119.8,408Z"/><path class="cls-7" d="M119.21,408.27a.22.22,0,0,1-.09-.17c0-.11.2-2.37,1.11-3.11a1,1,0,0,1,.79-.24.59.59,0,0,1,.6.49c.16.83-1.41,2.56-2.22,3h-.09A.17.17,0,0,1,119.21,408.27Zm1.26-3.06a4.51,4.51,0,0,0-.93,2.46c.81-.61,1.81-1.92,1.71-2.43,0-.05,0-.19-.27-.19h-.09A.67.67,0,0,0,120.47,405.21Z"/><path class="cls-6" d="M159.22,406.89h-9.55a.68.68,0,0,0-.67.54l-1.55,7a1.16,1.16,0,0,0,.9,1.37h.25c3.09-.05,5.34-.24,9.22-.24,2.39,0,9.6.25,12.9.25s3.73-3.26,2.38-3.56c-6.06-1.32-10.62-3.15-12.56-4.89A1.88,1.88,0,0,0,159.22,406.89Z"/><path class="cls-7" d="M159.76,408a.19.19,0,0,1-.14-.16.19.19,0,0,1,.09-.18c.28-.18,2.82-1.74,3.69-1.29a.55.55,0,0,1,.32.52,1.07,1.07,0,0,1-.39,1,2.38,2.38,0,0,1-1.51.4A9.47,9.47,0,0,1,159.76,408Zm.54-.26a3.82,3.82,0,0,0,2.8-.14.75.75,0,0,0,.25-.67c0-.15-.07-.22-.12-.22a.4.4,0,0,0-.24,0,7.65,7.65,0,0,0-2.69,1.06Z"/><path class="cls-7" d="M159.71,408a.22.22,0,0,1-.09-.17c0-.11.2-2.37,1.11-3.11a1,1,0,0,1,.79-.24.59.59,0,0,1,.6.49c.16.83-1.41,2.56-2.22,3h-.09A.17.17,0,0,1,159.71,408Zm1.29-3a4.51,4.51,0,0,0-.93,2.46c.81-.61,1.81-1.92,1.71-2.43,0,0,0-.19-.27-.19h-.09A.67.67,0,0,0,161,405Z"/><polygon class="cls-10" points="151.78 391.14 159.89 392 159.1 401.02 150.98 400.17 151.78 391.14"/><polygon class="cls-10" points="110.41 389.85 118.28 389.85 117.94 399.24 110.07 399.24 110.41 389.85"/><path class="cls-7" d="M113.66,230.11h41.72c4,21.66,16.39,98.33,7.48,166.63L148.73,395s1.31-90.68-11.16-124.2c-1.43,17.94-3.14,37-4.62,47.19-3.63,25-11.4,79.63-11.4,79.63H107.17s2.94-52.29,4.3-76.86C113,294.07,113.6,235.59,113.66,230.11Z"/><polygon class="cls-7" points="164.47 400.03 146.99 397.43 147.53 392.59 165.71 394.98 164.47 400.03"/><polygon class="cls-7" points="123.28 397.73 106.32 397.73 106.32 392.66 123.92 392.33 123.28 397.73"/><path class="cls-10" d="M137.57,270.79a111.72,111.72,0,0,1,4.66,18c1.17-16-3.5-32.9-3.5-32.9Z"/><path class="cls-6" d="M106.43,161.62a176.36,176.36,0,0,1,5,25.87c.33,2.68.6,5.31.82,7.86.29,3.24.49,6.36.65,9.32.2,3.75.26,8.18.25,12.54,0,10-.42,19.65-.42,19.65,8,2,31.12.67,43.75-.25a200.47,200.47,0,0,0,1.16-36.41A209,209,0,0,0,155,176.27a103,103,0,0,0-2.82-12.52,8,8,0,0,0-6.64-5.51c-1.53-.19-3.3-.38-5.16-.49-.72,0-1.44-.07-2.17-.08a154.22,154.22,0,0,0-17.84,1.24c-1.12.13-2.26.3-3.36.48A103,103,0,0,0,106.43,161.62Z"/><path class="cls-18" d="M156.48,236.62c-12.63.92-35.75,2.25-43.75.25,0,0,.4-9.63.42-19.65,0-4.36-.05-8.79-.25-12.54-.16-3-.36-6.08-.65-9.32-.22-2.55-.49-5.18-.82-7.86-.08-.72-.17-1.45-.27-2.17-.29-2.31-.64-4.61-1-6.9v-.06l3.89-5.6,7.73-11.14s12.86,5.2,18.2-2.22A86.2,86.2,0,0,1,154.38,173c.21,1,.41,2.14.61,3.29a209,209,0,0,1,2.65,23.93A200.36,200.36,0,0,1,156.48,236.62Z"/><path class="cls-6" d="M126.79,174.74a179.27,179.27,0,0,1,20.34.61,3.22,3.22,0,0,1,2.85,3.21h0a3.22,3.22,0,0,1-3.21,3.23H126.88a3.23,3.23,0,0,1-3.23-3.06v-.59a3.22,3.22,0,0,1,3-3.4Z"/><path class="cls-11" d="M106.43,161.62a176.36,176.36,0,0,1,5,25.87c.33,2.68.6,5.31.82,7.86.29,3.24.49,6.36.65,9.32.2,3.75.26,8.18.25,12.54,0,10-.42,19.65-.42,19.65,8,2,31.12.67,43.75-.25a200.47,200.47,0,0,0,1.16-36.41A209,209,0,0,0,155,176.27a103,103,0,0,0-2.82-12.52,8,8,0,0,0-6.64-5.51c-1.53-.19-3.3-.38-5.16-.49-.72,0-1.44-.07-2.17-.08a154.22,154.22,0,0,0-17.84,1.24c-1.12.13-2.26.3-3.36.48A103,103,0,0,0,106.43,161.62Z"/><path class="cls-6" d="M141.66,122.89s2.47,8.67-2.7,13.54-7.76-15.13-7.76-15.13Z"/><path class="cls-9" d="M120.35,158.86c3.83,3.48,13.22,2.19,13.22,2.19s5.85-1.6,4.62-3.43c-3.45-.57-5.12-2.18-5.81-4.24a9.91,9.91,0,0,1-.35-3.94,20.37,20.37,0,0,1,.29-2.2l-11.6-8.59C122.24,144.32,124.1,154.75,120.35,158.86Z"/><path class="cls-10" d="M123.4,144.11c.46,7,6.18,8.88,9,9.27a9.91,9.91,0,0,1-.35-3.94Z"/><path class="cls-9" d="M123.52,147.12a9.82,9.82,0,0,0,11.69,2.32,11,11,0,0,0,5.54-5.85c.14-.35.27-.72.38-1.1,2-6.93,1.35-18.53-6.15-21.93a10.65,10.65,0,0,0-14.13,5.21,10.54,10.54,0,0,0-1,4.85C120,138.41,119.74,143,123.52,147.12Z"/><path class="cls-6" d="M131.59,133.27c-.07.63.29,1.16.71,1.17s.77-.49.8-1.12-.3-1.16-.71-1.17S131.62,132.63,131.59,133.27Z"/><path class="cls-6" d="M138.76,133.55c-.07.63.29,1.16.7,1.18s.77-.49.8-1.12-.3-1.16-.71-1.18S138.78,133,138.76,133.55Z"/><path class="cls-17" d="M136.47,133.78a22.23,22.23,0,0,0,2.81,5.54,3.7,3.7,0,0,1-3.07.44Z"/><path class="cls-6" d="M129.46,130.86a.37.37,0,0,0,.37-.13,3,3,0,0,1,2.43-1.15.37.37,0,0,0,.41-.33h0a.38.38,0,0,0-.33-.41h0a3.72,3.72,0,0,0-3.08,1.42.37.37,0,0,0,0,.52h0A.5.5,0,0,0,129.46,130.86Z"/><path class="cls-6" d="M141.93,131.21a.41.41,0,0,0,.22,0,.36.36,0,0,0,.21-.47h0a3.69,3.69,0,0,0-2.59-2.2.4.4,0,0,0-.43.31h0a.38.38,0,0,0,.31.42h0a3,3,0,0,1,2,1.78A.37.37,0,0,0,141.93,131.21Z"/><path class="cls-6" d="M129.62,116.82c-.93,0-1.86,0-2.79.07a13.78,13.78,0,0,0-7.48,2.55c-4.9,3.83-2.94,11.76-1.58,16.89,1.81,6.82,5,9.61,5,9.61-2.08-3.09-2.42-9.6-1.37-9.91s1.13.95,1.13.95c2.2-1.81,3.8-6.3,2.67-9.17-.86-2.21,1.47-4.23,3.76-3.43l.69.23,1.07.34Z"/><path class="cls-9" d="M116.22,136.87a7.4,7.4,0,0,0,4.09,3.91c2.43.92,3.88-1.19,3.41-3.61-.44-2.15-2.22-5.28-4.76-5.15S115.27,134.65,116.22,136.87Z"/><path class="cls-6" d="M135.12,141.31a19.57,19.57,0,0,0-1.29,2.49,1.67,1.67,0,0,1-.49-.12c-2.17-.57-3-1.55-3.24-2.46a2.89,2.89,0,0,1,0-1.37,2.71,2.71,0,0,1,.26-.74,10.62,10.62,0,0,0,4,2Z"/><path class="cls-12" d="M134.38,141.1l-.4.73c-2-.54-3.41-1.19-3.89-2a2.71,2.71,0,0,1,.26-.74A10.55,10.55,0,0,0,134.38,141.1Z"/><path class="cls-17" d="M133.34,143.68c-2.17-.57-3-1.55-3.24-2.46a7.26,7.26,0,0,1,2.29,1.11A2.64,2.64,0,0,1,133.34,143.68Z"/><path class="cls-7" d="M116.52,130.84s-1.23-4.76-1-7.5,6.09-8.68,12.48-9.25,8,0,10,2.16,3.42,7.93,3.42,7.93S128.89,121.22,116.52,130.84Z"/><path class="cls-7" d="M116.52,130.84S128.23,118,139.93,117s13.37,2.48,2.24,9C142.17,126,135.28,120.26,116.52,130.84Z"/><path class="cls-10" d="M116.52,130.84S128.23,118,139.93,117s13.37,2.48,2.24,9C142.17,126,135.28,120.26,116.52,130.84Z"/><path class="cls-10" d="M111.16,185.33c-.29-2.31-.64-4.61-1-6.9v-.06c.34-.57,3.13-5.24,3.41-8.58a19.12,19.12,0,0,1,.48,3C114.35,176,114.21,181.14,111.16,185.33Z"/><path class="cls-6" d="M110.66,181.72c-1.89,6.74-13.16,21.15-22.12,22.38-16.17,2.22-23.68-26.35-23.68-26.35l11.21-7.57s5.65,12.77,8.57,14.73c3.61,2.43,15.5-18.47,21.79-23.29C106.43,161.62,115.87,163.19,110.66,181.72Z"/><path class="cls-11" d="M110.66,181.72c-1.89,6.74-13.16,21.15-22.12,22.38-16.17,2.22-23.68-26.35-23.68-26.35l11.21-7.57s5.65,12.77,8.57,14.73c3.61,2.43,15.5-18.47,21.79-23.29C106.43,161.62,115.87,163.19,110.66,181.72Z"/></g></g><g id="freepik--character-2--inject-6"><path class="cls-19" d="M272.71,172l6.93-4.82a22,22,0,0,1,2.77-4c1.38-1.44,5.73-3.7,6.92-3.56s6.67,4.09,4.52,6.17-7.4,4.7-8.28,4.38l-.88-.32-8.69,7Z"/><path class="cls-6" d="M282.41,173.21S263.3,190,256,193.65c-3.58,1.8-12,4.7-19.56,7.16-7.8,2.53-14.75,4.61-14.75,4.61l-1.21-2.25-6.91-12.85s36.1-5,39.27-6.33,24.81-16.83,24.81-16.83Z"/><path class="cls-10" d="M236.47,200.81c-7.8,2.53-14.75,4.61-14.75,4.61l-1.21-2.25v-5.92S231.56,197.6,236.47,200.81Z"/><path class="cls-19" d="M167.72,258.8l-4.76,7a23.12,23.12,0,0,1-1.18,4.7c-.79,1.84-4.05,5.49-5.21,5.78s-7.7-1.46-6.42-4.16,5.25-7,6.19-7h.93l5.65-9.61Z"/><path class="cls-6" d="M201.09,151.61c5.36-.07,16.31,9.36,16.31,9.36s3.24,14,6.27,16.87l-2.32,1-1.94-2.94,1.1,4.25s-9.69,4.33-17.68,4.75-11.68-1.19-11.68-1.19l.8-3.56-1.55,3.06-3.28-1.39a104.44,104.44,0,0,0,3.28-16.42C191.15,157.59,201.09,151.61,201.09,151.61Z"/><path class="cls-19" d="M213.36,369.45c-6.05,7.6-11.48,14.49-16.22,19.52h0c-4.73,5.09-7.17,8.25-7.17,8.25l-4.69-2.69s4.33-6.85,10.2-16.3c5-8,11.11-17.9,16.66-27.07,7.19-11.84,13.42-22.46,15.07-26.26,1.17-2.7-2-13.07-5.52-22.85-3.57-9.95-7.49-19.31-7.49-19.31L227,261.1s5.2,14.41,9.82,29.61c3,10,5.81,20.25,6.74,27.09C244.85,327.35,228.36,350.57,213.36,369.45Z"/><path class="cls-10" d="M213.4,369.45c-6,7.6-11.85,14.49-16.17,19.52-.62-3.09-1.24-6.75-1.74-10.74,5-8,11.11-17.9,16.66-27.07A104.68,104.68,0,0,0,213.4,369.45Z"/><path class="cls-10" d="M236.8,290.71l-15.11,11.34c-3.57-9.95-7.49-19.31-7.49-19.31L227,261.1S232.18,275.51,236.8,290.71Z"/><path class="cls-19" d="M210.41,408.27,205,409s-7.82-38.47-7.58-70.22a271.64,271.64,0,0,1-6.78-31.95c-1.92-13-2.86-27.48-.33-38.28l18.95,8.53.39,28.42.32,23.69Z"/><path class="cls-10" d="M209.61,305.48l-19,1.33c-1.92-13-2.86-27.48-.33-38.28l18.95,8.53Z"/><path class="cls-6" d="M185.59,391.54c.56-.41,5.28,6.66,5.28,6.66s-1.05,7.37,1.08,12.12-2,4.34-5.45-.16L178,399C175.56,395.83,179.81,395.75,185.59,391.54Z"/><path class="cls-7" d="M192.47,403.53c-1.07-.25-1.77-3.3-1.9-3.91v-.09h0v-.07h0v-.06h.07c.1,0,2.1-.66,3.17,0a1.3,1.3,0,0,1,.64.89.79.79,0,0,1-.22.87,2.67,2.67,0,0,1-1.81-.28,3.45,3.45,0,0,1,1,1.64.91.91,0,0,1-.18.71.92.92,0,0,1-.69.4Zm.1-.43a.59.59,0,0,0,.39-.23.48.48,0,0,0,.09-.37c-.09-.7-1.15-1.73-1.89-2.35C191.49,401.46,192.07,403,192.57,403.1Zm-1.23-3.44c1.14.71,2.4,1.27,2.72,1,.09-.06.06-.28,0-.41a.87.87,0,0,0-.43-.59,2.15,2.15,0,0,0-1-.22,6.22,6.22,0,0,0-1.29.22Z"/><path class="cls-6" d="M203,405.51c0-.69,8.49-.15,8.49-.15s5.22,5.3,10.29,6.5,2.23,4.23-3.43,4.23h-14C200.34,416.09,202.86,412.66,203,405.51Z"/><path class="cls-7" d="M212.47,406.45a.18.18,0,0,1-.07-.05h0v-.06h0v-.07h0v-.09s.74-2.07,1.89-2.55a1.3,1.3,0,0,1,1.09,0c.39.19.58.43.56.72s-.63.89-1.32,1.26a3.43,3.43,0,0,1,1.9.21.88.88,0,0,1,.46.57.82.82,0,0,1-.21.9,1.12,1.12,0,0,1-.75.21A10.47,10.47,0,0,1,212.47,406.45Zm.77-.14c1.25.53,2.81,1,3.21.67,0,0,.14-.12.05-.45a.48.48,0,0,0-.24-.3,2.14,2.14,0,0,0-1-.18A10.54,10.54,0,0,0,213.24,406.31Zm1.18-2.26a3.62,3.62,0,0,0-1.45,1.82c1.25-.48,2.46-1.14,2.49-1.52,0-.12-.19-.23-.31-.28a.86.86,0,0,0-.39-.09A.8.8,0,0,0,214.42,404.05Z"/><path class="cls-7" d="M218,296.72,238.51,286c-6.44-19.58-12.25-30.69-12.25-30.69-20.14,3.45-18.3,19.37-18.3,19.37S213.09,285.28,218,296.72Z"/><path class="cls-11" d="M216.71,293.7l1.31,3L238.51,286c-6.44-19.58-12.25-30.69-12.25-30.69-12.43,2.14-16.49,9-17.78,14a16.66,16.66,0,0,0-.53,5.4S212.21,283.48,216.71,293.7Z"/><path class="cls-10" d="M216.71,293.7c-4.5-10.22-8.76-19-8.76-19a16.66,16.66,0,0,1,.53-5.4,6.4,6.4,0,0,1,2.1-.89S216.06,277,216.71,293.7Z"/><path class="cls-7" d="M211.68,301.14,211,268.37l16.24-4.74s-1.27-15-3.17-22.45c0,0-26.38-6.57-30.4,2.38,0,0,0,.14-.06.19l-.06.08s-7.58,13.33-5.32,57.31Z"/><path class="cls-11" d="M211.68,301.14,211,268.37l16.24-4.74s-1.27-15-3.17-22.45c0,0-26.38-6.57-30.4,2.38,0,0,0,.14-.06.19l-.06.08s-7.58,13.33-5.32,57.31Z"/><polygon class="cls-7" points="193.35 239.02 193.35 243.49 223.67 241.15 223.67 235.86 193.35 239.02"/><rect class="cls-7" x="202.32" y="237.16" width="1.52" height="7.73" transform="translate(-12.05 10.7) rotate(-2.93)"/><rect class="cls-12" x="210.4" y="237.23" width="6.71" height="5.08" transform="translate(-20.54 20.03) rotate(-5.12)"/><rect class="cls-7" x="220.98" y="235.11" width="1.52" height="7.73" transform="translate(-11.93 11.65) rotate(-2.93)"/><rect class="cls-11" x="202.32" y="237.16" width="1.52" height="7.73" transform="translate(-12.05 10.7) rotate(-2.93)"/><rect class="cls-11" x="220.98" y="235.11" width="1.52" height="7.73" transform="translate(-11.93 11.65) rotate(-2.93)"/><path class="cls-6" d="M224,236.4,193.49,239A128.34,128.34,0,0,0,192,224.9,127,127,0,0,0,188.45,210c-.87-3-1.9-6.22-3.13-9.93q-.87-2.66-1.91-5.63a89,89,0,0,1,12.68-3.06A97.09,97.09,0,0,1,209.81,190c5.94,0,12.77.62,12.77.62s1,.24,1.58,6.53C224.72,203.05,225.27,214.88,224,236.4Z"/><polygon class="cls-7" points="186.25 299.8 213.01 299.56 212.54 303.59 187.43 303.35 186.25 299.8"/><polygon class="cls-7" points="216.33 296.48 238.59 284.4 239.78 287.95 218.22 298.61 216.33 296.48"/><path class="cls-19" d="M207.29,196.73c-7.53-1-9.8-4.19-9.8-4.19,3.08-2.89,2.52-7.18,1.74-9.85a15.18,15.18,0,0,0-.93-2.46l9.07,1.69a27.13,27.13,0,0,0-.36,3.82,11.54,11.54,0,0,0,.26,2.81c.62,2.71,2.16,2.74,2.16,2.74C211,194.27,207.29,196.73,207.29,196.73Z"/><path class="cls-10" d="M207,185.74a11.54,11.54,0,0,0,.26,2.81c-3.6-.48-6.33-3.36-8-5.86a15.54,15.54,0,0,0-.93-2.46l9.07,1.69A25.78,25.78,0,0,0,207,185.74Z"/><path class="cls-19" d="M205.52,156.82c7.88.29,10.26,4.61,10.54,12.76.34,10.18-2.17,17.31-11.95,14.77C190.83,180.91,192.42,156.34,205.52,156.82Z"/><path class="cls-20" d="M211,169a17.15,17.15,0,0,0,2.17,3.35,2.15,2.15,0,0,1-2.11.82Z"/><path class="cls-21" d="M206.3,162.67a4.1,4.1,0,0,0-3.46,1.07"/><path class="cls-21" d="M212,162.55a3.71,3.71,0,0,1,3.12.77"/><path class="cls-6" d="M209.78,176.17a20,20,0,0,0-1,2.71l-.5-.07c-2.29-.32-3.24-1.22-3.61-2.12a2.92,2.92,0,0,1-.17-1.4,3,3,0,0,1,.17-.79,10.62,10.62,0,0,0,4.36,1.55C209.47,176.14,209.78,176.17,209.78,176.17Z"/><path class="cls-12" d="M209,176.05l-.32.79c-2.16-.3-3.63-.8-4.21-1.55a3,3,0,0,1,.17-.79A10.62,10.62,0,0,0,209,176.05Z"/><path class="cls-17" d="M208.25,178.81c-2.29-.32-3.24-1.22-3.61-2.12a7.71,7.71,0,0,1,2.47.85A2.86,2.86,0,0,1,208.25,178.81Z"/><path class="cls-6" d="M196.41,169.79s3.93-6.34,3.55-11.36c0,0,15.86-5.81,16,10.08,0,0,2-14-11.5-14.84s-14.22,19-7.44,25.18C197.07,178.85,194,173.76,196.41,169.79Z"/><path class="cls-19" d="M197.63,171.5a3.45,3.45,0,0,0-3.59-3.3h0c-2.45.18-3.8,5.15,2.23,6.58C197.12,175,197.65,174.15,197.63,171.5Z"/><path class="cls-6" d="M201.09,151.61c4.26-1.18,15.63-1.34,18.32,10.42l-1.58.79a25.23,25.23,0,0,0-8.53-2.52,19.69,19.69,0,0,0-2.21-3.16,16.7,16.7,0,0,1,0,3s-7.42,1.08-10.74,4.1c-5.21,4.74-5.52,7.74-5.52,7.74S187.21,155.47,201.09,151.61Z"/><path class="cls-22" d="M200.46,152.48s15.24-5.29,20,9.16"/><path class="cls-6" d="M204,168.13s1.85-1.57,2.72.54A5.56,5.56,0,0,0,204,168.13Z"/><path class="cls-6" d="M212.78,169.3s1-2.14,2.38-.63A5.22,5.22,0,0,0,212.78,169.3Z"/><path class="cls-8" d="M215.78,201.16h4.42a1,1,0,0,1,.88,1.38l-1.83,3.94a1,1,0,0,1-1.35.41,1,1,0,0,1-.34-.29l-2.6-3.93a1,1,0,0,1,.35-1.37A1,1,0,0,1,215.78,201.16Z"/><path class="cls-10" d="M192,224.94a127,127,0,0,0-3.57-14.89l1.66-3A37.42,37.42,0,0,1,192,224.94Z"/><path class="cls-6" d="M183.41,194.49c-2.86,3.62-4.15,29.57-9.94,40.09s-13.93,24.8-13.93,24.8l5.94,5.16s18.29-21.36,21.21-29.57,3.71-19.12,3.71-19.12C192,201.16,183.41,194.49,183.41,194.49Z"/><path class="cls-13" d="M185.59,391.54c.56-.41,5.28,6.66,5.28,6.66s-1.05,7.37,1.08,12.12-2,4.34-5.45-.16L178,399C175.56,395.83,179.81,395.75,185.59,391.54Z"/><path class="cls-13" d="M203,405.51c0-.69,8.49-.15,8.49-.15s5.22,5.3,10.29,6.5,2.23,4.23-3.43,4.23h-14C200.34,416.09,202.86,412.66,203,405.51Z"/></g><g id="freepik--character-3--inject-6"><g id="freepik--group--inject-6-2" data-name="freepik--group--inject-6"><path class="cls-7" d="M244.94,213.73c5.14,2.07,9.49-3.08,9.69-9.21,0,0,4.69-3,10-6.26A138.54,138.54,0,0,1,277,191.34a4.67,4.67,0,0,0,1.75-1.43h0c4.1-5.32,2.21-20.65,2.21-20.65-9.5,1.06-28.48,18.27-36.79,26.57S239.8,211.65,244.94,213.73Z"/><path class="cls-10" d="M264.63,198.26A138.54,138.54,0,0,1,277,191.34a4.67,4.67,0,0,0,1.75-1.43h0L272.09,184S266.16,191.71,264.63,198.26Z"/><polygon class="cls-23" points="276.22 408.64 268.11 409.5 266.58 392 274.7 391.14 276.22 408.64"/><polygon class="cls-23" points="316.7 408.05 308.84 408.05 308.19 389.84 316.06 389.84 316.7 408.05"/><path class="cls-6" d="M307.75,407.14h9.55a.68.68,0,0,1,.67.54l1.55,7a1.16,1.16,0,0,1-.9,1.37h-.25c-3.09-.05-5.34-.24-9.22-.24-2.39,0-9.6.25-12.9.25s-3.73-3.26-2.38-3.56c6.06-1.32,10.62-3.15,12.56-4.89A1.88,1.88,0,0,1,307.75,407.14Z"/><path class="cls-7" d="M305.15,408.52a2.38,2.38,0,0,1-1.51-.4,1.09,1.09,0,0,1-.39-1,.55.55,0,0,1,.32-.52c.87-.45,3.41,1.11,3.69,1.29a.17.17,0,0,1,.09.18.19.19,0,0,1-.14.16A9.47,9.47,0,0,1,305.15,408.52ZM304,406.89a.4.4,0,0,0-.24.05c-.05,0-.11.07-.12.22a.77.77,0,0,0,.25.67,3.82,3.82,0,0,0,2.8.14A7.5,7.5,0,0,0,304,406.89Z"/><path class="cls-7" d="M307.16,408.24h-.09c-.81-.44-2.38-2.17-2.22-3a.61.61,0,0,1,.6-.49,1,1,0,0,1,.79.24c.91.74,1.1,3,1.11,3.11a.2.2,0,0,1-.09.17A.17.17,0,0,1,307.16,408.24Zm-1.58-3.19h-.09c-.24,0-.26.14-.27.19-.1.51.9,1.82,1.71,2.43a4.41,4.41,0,0,0-.93-2.46.67.67,0,0,0-.42-.16Z"/><path class="cls-6" d="M267.25,406.89h9.55a.68.68,0,0,1,.67.54l1.55,7a1.16,1.16,0,0,1-.9,1.37h-.25c-3.09-.05-5.34-.24-9.22-.24-2.39,0-9.6.25-12.9.25s-3.73-3.26-2.38-3.56c6.06-1.32,10.62-3.15,12.56-4.89A1.88,1.88,0,0,1,267.25,406.89Z"/><path class="cls-7" d="M264.65,408.27a2.38,2.38,0,0,1-1.51-.4,1.09,1.09,0,0,1-.39-1,.55.55,0,0,1,.32-.52c.87-.45,3.41,1.11,3.69,1.29a.17.17,0,0,1,.09.18.19.19,0,0,1-.14.16A9.47,9.47,0,0,1,264.65,408.27Zm-1.17-1.63a.4.4,0,0,0-.24.05c-.05,0-.11.07-.12.22a.77.77,0,0,0,.25.67,3.82,3.82,0,0,0,2.8.14,7.5,7.5,0,0,0-2.69-1.08Z"/><path class="cls-7" d="M266.66,408h-.09c-.81-.44-2.38-2.17-2.22-3a.61.61,0,0,1,.6-.49,1,1,0,0,1,.79.24c.91.74,1.1,3,1.11,3.11a.2.2,0,0,1-.09.17A.17.17,0,0,1,266.66,408Zm-1.58-3.19H265c-.24,0-.26.14-.27.19-.1.51.9,1.82,1.71,2.43a4.41,4.41,0,0,0-.93-2.46.63.63,0,0,0-.43-.17Z"/><polygon class="cls-10" points="274.7 391.14 266.58 392 267.38 401.02 275.49 400.17 274.7 391.14"/><polygon class="cls-10" points="316.06 389.85 308.19 389.85 308.53 399.24 316.4 399.24 316.06 389.85"/><path class="cls-6" d="M312.81,238.11H271.09c-4,21.66-16.38,90.33-7.48,158.63L277.74,395s-1.31-82.68,11.16-116.2c1.44,17.94,3.14,29,4.62,39.19,3.63,25,11.4,79.63,11.4,79.63H319.3s-2.94-52.29-4.3-76.86C313.51,294.07,312.87,243.59,312.81,238.11Z"/><polygon class="cls-7" points="262 400.03 279.48 397.43 278.95 392.59 260.76 394.98 262 400.03"/><polygon class="cls-7" points="303.19 397.73 320.15 397.73 320.15 392.66 302.55 392.33 303.19 397.73"/><path class="cls-10" d="M288.9,278.79a111.72,111.72,0,0,0-4.66,18c-1.17-16,3.5-32.9,3.5-32.9Z"/><path class="cls-7" d="M309.43,170.39c-1.1-.18-2.24-.35-3.36-.48h0a153.86,153.86,0,0,0-16.47-1.22l-1.34,0h0c-.73,0-1.45.08-2.17.08-1.86.11-3.63.3-5.16.49a8.1,8.1,0,0,0-1.21.24h0l-.15,0a8,8,0,0,0-5.15,4.91c0,.1-.08.2-.11.3q-1,3.39-1.74,6.84c-.19.84-.36,1.68-.52,2.52h0c-.2,1-.39,2.1-.56,3.15q-.65,3.79-1.14,7.62-.58,4.35-1,8.71-.33,3.74-.53,7.48a.49.49,0,0,0,0,.12,169.74,169.74,0,0,0,1.14,33.27v0s0,.07,0,.12c12.23.89,34.3,2.17,42.95.43l.8-.18s-.42-6.65-.42-16.65c0-4.36.05-8.79.25-12.54.16-3,.36-6.08.65-9.32.22-2.55.49-5.18.82-7.86.09-.74.18-1.46.28-2.2h0q.23-1.82.51-3.63c.16-1.09.33-2.18.52-3.27h0q1.44-8.46,3.69-16.75A102.83,102.83,0,0,0,309.43,170.39ZM276,203.6a13.55,13.55,0,0,1,3.57.14c.59.08,1.21.19,1.84.32,1.13.21,2.28.48,3.39.76l2.09.54,1.61.43a21.07,21.07,0,0,0,2.9.68c.48,0,.14,1-.57,2.23-1.36,2.47-4.1,6.11-4.94,6.24-1.07.17-7.73-1-10.73-2.75C275.41,209.65,275.69,206.67,276,203.6Z"/><path class="cls-23" d="M306.12,169.86c-3.83,3.48-13.21,2.19-13.21,2.19s-5.86-1.6-4.63-3.43c3.45-.57,5.12-2.18,5.81-4.24a9.91,9.91,0,0,0,.35-3.94,20.37,20.37,0,0,0-.29-2.2l.71-.52,2.42-1.8,8.47-6.27a57.68,57.68,0,0,0-1.67,8.92,22.26,22.26,0,0,0,.55,8.6A7.34,7.34,0,0,0,306.12,169.86Z"/><path class="cls-10" d="M315.31,196.33c.29-2.31.64-4.61,1-6.9v-.06c-.34-.57-3.13-5.24-3.41-8.58a19.12,19.12,0,0,0-.48,3C312.12,187,312.26,192.14,315.31,196.33Z"/><path class="cls-23" d="M336.05,220.62,323,246.79c-3.58.56-7.38,15.88-8.26,17.19s10.36,1.12,11.33,0,5.12-10.8,3.76-13.62l16.91-25.78S343.52,219.31,336.05,220.62Z"/><path class="cls-7" d="M320,172.62c1.73-.19,31.14,25.87,30.74,40s-4.35,14.57-4.35,14.57l-11-2.28s2.45-12.08-.19-14.8-19.4-17.44-19.4-17.44S310.07,173.72,320,172.62Z"/><path class="cls-13" d="M304.87,186.34s-3.26,26.75-3.2,34.74c0,0-21.17-.93-27.17-1.21,0,0,.26-3.17.67-7.68,3,1.78,9.66,2.92,10.73,2.75.84-.13,3.58-3.77,4.94-6.24.71-1.27,1.05-2.23.57-2.23a21.07,21.07,0,0,1-2.9-.68l-1.61-.43-2.09-.54c-1.11-.28-2.26-.55-3.39-.76-.63-.13-1.25-.24-1.84-.32a13.55,13.55,0,0,0-3.57-.14c.44-4.28.94-8.74,1.45-12.51.1-.71.2-1.4.3-2.06.32-2.21.65-4.08,1-5.35l2.2.11C286.08,184.08,298.92,184.9,304.87,186.34Z"/><path class="cls-23" d="M276,203.6c-.32,3.07-.6,6.05-.84,8.59a3.65,3.65,0,0,1-1.27-1.11H246.4s-2.4-5,2.25-9.92l5.85.69.25,0,3.41.4h0l11.16,1.32,5.22.62A2.33,2.33,0,0,1,276,203.6Z"/><path class="cls-10" d="M304.63,167.17c-6.05.66-8.72-5.65-9.77-9.45l2.42-1.8a71.93,71.93,0,0,1,6.8,2.65A22.26,22.26,0,0,0,304.63,167.17Z"/><path class="cls-6" d="M315,136.56s1.33,8.92-4.42,13.08-5.75-16-5.75-16Z"/><path class="cls-23" d="M293.93,158.25a9.82,9.82,0,0,0,11.29,3.81,11,11,0,0,0,6.25-5.09c.19-.32.36-.66.52-1,2.83-6.62,3.73-18.2-3.27-22.54a10.66,10.66,0,0,0-16.28,8C291.58,149.16,290.71,153.67,293.93,158.25Z"/><path class="cls-6" d="M303.72,145.56c-.15.61.13,1.18.55,1.25s.82-.38.93-1-.14-1.19-.55-1.26S303.83,144.93,303.72,145.56Z"/><path class="cls-6" d="M310.78,146.76c-.14.62.15,1.19.55,1.26s.83-.39.94-1-.15-1.19-.55-1.25S310.89,146.17,310.78,146.76Z"/><path class="cls-24" d="M308.49,146.69a22.24,22.24,0,0,0,2.07,5.86,3.65,3.65,0,0,1-3.1,0Z"/><path class="cls-6" d="M301.92,142.9a.38.38,0,0,0,.38-.09,3,3,0,0,1,2.56-.82.37.37,0,0,0,.18-.72h0a3.69,3.69,0,0,0-3.24,1,.37.37,0,0,0,0,.52h0A.69.69,0,0,0,301.92,142.9Z"/><path class="cls-6" d="M314.24,144.85a.38.38,0,0,0,.21.05.38.38,0,0,0,.26-.46h0a3.73,3.73,0,0,0-2.29-2.52.35.35,0,0,0-.45.23v0h0a.38.38,0,0,0,.25.46h0a3,3,0,0,1,1.79,2A.38.38,0,0,0,314.24,144.85Z"/><path class="cls-6" d="M303.88,129c-.92-.13-1.84-.24-2.77-.28a13.81,13.81,0,0,0-7.75,1.55c-5.35,3.17-4.43,11.29-3.74,16.55.92,7,3.67,10.17,3.67,10.17-1.67-3.34-1.17-9.84-.09-10s1,1.08,1,1.08c2.42-1.5,4.59-5.75,3.84-8.75-.58-2.3,2-4,4.16-2.92l.66.32,1,.48Z"/><path class="cls-23" d="M288,147.14a7.4,7.4,0,0,0,3.55,4.41c2.29,1.23,4-.68,3.85-3.14-.16-2.18-1.52-5.52-4-5.71S287.36,144.82,288,147.14Z"/><path class="cls-6" d="M289.68,135.38s-1-7.94,8.24-9.27,17.25-3.4,17.25-3.4-.14,4.67-1.84,6c0,0,3.32.15,5.3-1.17,0,0-.53,4.09-1.72,5.54l1.72-1.32a7.48,7.48,0,0,1-5.89,6.41c-5.45,1.24-15.63-2.79-15.63-2.79Z"/><path class="cls-6" d="M307.22,155.2a19.46,19.46,0,0,0-1.61,2.31c-.15-.06-.31-.11-.46-.18-2.08-.84-2.77-1.92-2.9-2.86a3,3,0,0,1,.17-1.36,2.7,2.7,0,0,1,.35-.7,10.74,10.74,0,0,0,3.74,2.5C306.94,155.1,307.22,155.2,307.22,155.2Z"/><path class="cls-12" d="M306.51,154.91l-.49.66c-2-.79-3.23-1.62-3.6-2.46a2.7,2.7,0,0,1,.35-.7A10.74,10.74,0,0,0,306.51,154.91Z"/><path class="cls-17" d="M305.15,157.33c-2.08-.84-2.77-1.92-2.9-2.86a7,7,0,0,1,2.13,1.39A2.76,2.76,0,0,1,305.15,157.33Z"/></g></g><path class="cls-25" d="M295.55,192.08l-.32,2.42-1.21-.16a2,2,0,0,0-2.14,1.79l-.53,4.07-.54,4.08a2,2,0,0,0,1.61,2.28l1.21.16-.32,2.41-1.67-.22a3.49,3.49,0,0,1-.8-.21c.71-1.27,1.05-2.23.57-2.23a21.07,21.07,0,0,1-2.9-.68,4.36,4.36,0,0,1,0-1.4l1.18-9a3.91,3.91,0,0,1,4.23-3.55Z"/><path class="cls-25" d="M284.31,196.66l-3.73-.49-1,7.57c.59.08,1.21.19,1.84.32l.75-5.67,1.5.2a2.58,2.58,0,0,1,2,3l-.23,1.7a3,3,0,0,1-.66,1.53l2.09.54a4.84,4.84,0,0,0,.44-1.5l.3-2.27A4.22,4.22,0,0,0,284.31,196.66Z"/><path class="cls-23" d="M290.84,208.7c-1.36,2.47-4.1,6.11-4.94,6.24-1.07.17-7.73-1-10.73-2.75.24-2.54.52-5.52.84-8.59a13.55,13.55,0,0,1,3.57.14c.59.08,1.21.19,1.84.32,1.13.21,2.28.48,3.39.76l2.09.54,1.61.43a21.07,21.07,0,0,0,2.9.68C291.89,206.47,291.55,207.43,290.84,208.7Z"/><rect class="cls-25" x="295.45" y="198.27" width="2.1" height="11.19" transform="translate(29.09 -36.89) rotate(7.49)"/></svg>