<svg id="Layer_1" data-name="Layer 1" xmlns="http://www.w3.org/2000/svg" xmlns:xlink="http://www.w3.org/1999/xlink" viewBox="0 0 800 800"><defs><style>.cls-1{fill:url(#linear-gradient);}.cls-2{fill:url(#linear-gradient-2);}.cls-3{fill:url(#linear-gradient-3);}.cls-4{fill:url(#linear-gradient-4);}.cls-5{fill:none;}</style><linearGradient id="linear-gradient" x1="-27.91" y1="848.48" x2="267.6" y2="93.93" gradientUnits="userSpaceOnUse"><stop offset="0" stop-color="#00a2eb"/><stop offset="0.19" stop-color="#009fe6"/><stop offset="0.4" stop-color="#0296d9"/><stop offset="0.63" stop-color="#0486c2"/><stop offset="0.86" stop-color="#0771a3"/><stop offset="1" stop-color="#09628d"/></linearGradient><linearGradient id="linear-gradient-2" x1="-34.54" y1="-66.14" x2="725.75" y2="275.28" gradientUnits="userSpaceOnUse"><stop offset="0" stop-color="#f5f503"/><stop offset="0.17" stop-color="#f5ed05"/><stop offset="0.43" stop-color="#f4d709"/><stop offset="0.75" stop-color="#f3b310"/><stop offset="1" stop-color="#f29117"/></linearGradient><linearGradient id="linear-gradient-3" x1="814.44" y1="121.96" x2="550.49" y2="658.47" gradientUnits="userSpaceOnUse"><stop offset="0" stop-color="#a6cc24"/><stop offset="0.12" stop-color="#9eca26"/><stop offset="0.31" stop-color="#88c32b"/><stop offset="0.54" stop-color="#63b934"/><stop offset="0.8" stop-color="#31aa40"/><stop offset="1" stop-color="#079e4a"/></linearGradient><linearGradient id="linear-gradient-4" x1="732" y1="803.84" x2="66.38" y2="545.63" gradientUnits="userSpaceOnUse"><stop offset="0" stop-color="#f6afb2"/><stop offset="0.19" stop-color="#f3999c"/><stop offset="0.6" stop-color="#eb6165"/><stop offset="1" stop-color="#e32328"/></linearGradient></defs><path class="cls-1" d="M421.8,203.13C347.85,266.31,277.44,332.88,224,401.28,122.07,531.3,81.16,667.88,192.45,800H119.7a46.63,46.63,0,0,1-46.63-46.63V76.47C129.76-25.42,272.47,80.81,421.8,203.13Z"/><path class="cls-2" d="M618.52,399.85c-65.63-73.68-131-140.2-196.72-196.72C272.47,80.81,129.76-25.42,73.07,76.47V46.34A46.63,46.63,0,0,1,119.7-.29H422.47c109.81,0,207.63,51.19,270.94,131l.05,0C739.51,211.85,695.33,303.86,618.52,399.85Z"/><path class="cls-3" d="M768.3,345.53V454.18A343.89,343.89,0,0,1,722.65,626s0,0,0,.09c-79.68,98.8-187.56,50.79-300.81-25,77.44-67.46,146.43-134.61,196.72-201.19,76.81-96,121-188,74.94-269.15A344.21,344.21,0,0,1,768.3,345.53Z"/><path class="cls-4" d="M722.61,626C663,730,550.92,800,422.47,800h-230C81.16,667.88,122.07,531.3,224,401.28,278.56,468.53,345.53,535,421.8,601,535.05,676.83,642.93,724.84,722.61,626Z"/><path class="cls-5" d="M618.52,399.85C568.23,466.43,499.24,533.58,421.8,601,345.53,535,278.56,468.53,224,401.28c53.47-68.4,123.88-135,197.83-198.15C487.53,259.65,552.89,326.17,618.52,399.85Z"/><path class="cls-5" d="M693.41,130.66a.34.34,0,0,0-.09-.18"/><path class="cls-5" d="M722.78,625.81l-.13.14"/><line class="cls-5" x1="223.97" y1="401.28" x2="223.92" y2="401.24"/></svg>