<svg id="Layer_1" data-name="Layer 1" xmlns="http://www.w3.org/2000/svg" viewBox="0 0 500 500"><defs><style>.cls-1{fill:#e6e6e6;}.cls-2{fill:#e0e0e0;}.cls-14,.cls-3{fill:#fafafa;}.cls-4{fill:#f5f5f5;}.cls-5{fill:#f0f0f0;}.cls-17,.cls-20,.cls-21,.cls-6{fill:#fff;}.cls-7{fill:#e58a7b;}.cls-15,.cls-16,.cls-8{fill:#407bff;}.cls-9{opacity:0.2;}.cls-14,.cls-15,.cls-16,.cls-17,.cls-18,.cls-19,.cls-20,.cls-21,.cls-9{isolation:isolate;}.cls-10{fill:#e8ecf1;}.cls-11{fill:#263238;}.cls-12{fill:#cf6f64;}.cls-13{fill:#df5753;}.cls-14{opacity:0.56;}.cls-15{opacity:0.07;}.cls-16{opacity:0.47;}.cls-17{opacity:0.1;}.cls-18{opacity:0.6;}.cls-19,.cls-20{opacity:0.4;}.cls-21{opacity:0.3;}.cls-22{fill:#1b3a89;}</style></defs><g id="freepik--background-complete--inject-2"><rect class="cls-1" y="326.22" width="500" height="0.24"/><rect class="cls-1" x="91.7" y="340.93" width="33.12" height="0.24"/><rect class="cls-1" x="62.03" y="340.93" width="19.19" height="0.24"/><rect class="cls-1" x="191.36" y="344.51" width="19.19" height="0.24"/><rect class="cls-1" x="267.42" y="349.93" width="43.19" height="0.24"/><rect class="cls-1" x="252.19" y="349.93" width="6.33" height="0.24"/><rect class="cls-1" x="359.67" y="344.51" width="93.68" height="0.24"/><path class="cls-1" d="M237,282.87H43.91a5.62,5.62,0,0,1-5.7-5.55V13.5A5.64,5.64,0,0,1,43.91,8H237a5.63,5.63,0,0,1,5.71,5.55h0V277.32A5.63,5.63,0,0,1,237,282.87ZM43.91,8.19a5.39,5.39,0,0,0-5.45,5.31V277.32a5.38,5.38,0,0,0,5.45,5.31H237a5.4,5.4,0,0,0,5.46-5.31V13.5A5.4,5.4,0,0,0,237,8.19Z"/><path class="cls-1" d="M453.31,282.87H260.21a5.64,5.64,0,0,1-5.71-5.55V13.5A5.65,5.65,0,0,1,260.21,8h193.1A5.63,5.63,0,0,1,459,13.5V277.32A5.63,5.63,0,0,1,453.31,282.87ZM260.21,8.19a5.4,5.4,0,0,0-5.46,5.31V277.32a5.4,5.4,0,0,0,5.46,5.31h193.1a5.4,5.4,0,0,0,5.46-5.31V13.5a5.4,5.4,0,0,0-5.46-5.31Z"/><rect class="cls-2" x="245.41" y="243.2" width="21.99" height="84.79"/><polygon class="cls-3" points="263.22 327.98 267.4 327.98 267.4 316.44 258.84 316.44 263.22 327.98"/><rect class="cls-2" x="149.05" y="243.2" width="21.99" height="84.79"/><rect class="cls-3" x="167.4" y="243.2" width="100" height="77.7"/><path class="cls-2" d="M263.77,247v20.56H171V247h92.74m.39-.38H170.64v21.3h93.52v-21.3Z"/><polygon class="cls-3" points="171.57 327.98 167.4 327.98 167.4 316.44 175.95 316.44 171.57 327.98"/><path class="cls-1" d="M215.19,257.29a2.21,2.21,0,1,0,2.21-2.15h0A2.19,2.19,0,0,0,215.19,257.29Z"/><path class="cls-2" d="M263.77,271.76v20.56H171V271.76h92.74m.39-.37H170.64V292.7h93.52V271.4Z"/><path class="cls-1" d="M215.19,282.1A2.21,2.21,0,1,0,217.4,280h0A2.18,2.18,0,0,0,215.19,282.1Z"/><path class="cls-2" d="M263.77,296.52v20.57H171V296.52h92.74m.39-.38H170.64v21.32h93.52V296.14Z"/><path class="cls-1" d="M215.19,306.8a2.21,2.21,0,1,0,2.21-2.15,2.18,2.18,0,0,0-2.21,2.15Z"/><rect class="cls-2" x="135.62" y="193.96" width="21.99" height="134.04"/><polygon class="cls-3" points="153.43 327.98 157.61 327.98 157.61 316.44 149.06 316.44 153.43 327.98"/><rect class="cls-2" x="53.44" y="193.96" width="21.99" height="134.04"/><rect class="cls-3" x="71.78" y="193.96" width="85.83" height="126.95"/><path class="cls-2" d="M153.91,197.53v28.75H75.48V197.53h78.43m.46-.43H75v29.59h79.35V197.11Z"/><path class="cls-2" d="M153.91,229.78V306H116.55V229.78h37.36m.46-.44H116.1v77.12h38.27V229.34Z"/><path class="cls-2" d="M112.84,229.78V306H75.48V229.78h37.36m.45-.44H75v77.12h38.27V229.34Z"/><polygon class="cls-3" points="75.96 327.98 71.78 327.98 71.78 316.44 80.34 316.44 75.96 327.98"/><path class="cls-1" d="M112.48,211.92a2.22,2.22,0,1,0,2.23-2.15h0A2.19,2.19,0,0,0,112.48,211.92Z"/><path class="cls-1" d="M120.4,266.09a2.22,2.22,0,1,0,2.22-2.16h0a2.18,2.18,0,0,0-2.21,2.15Z"/><path class="cls-1" d="M104.57,266.09a2.21,2.21,0,1,0,2.21-2.16,2.19,2.19,0,0,0-2.21,2.16Z"/><path class="cls-2" d="M102.07,156.59H92.8a93.53,93.53,0,0,1,1.61,13.23c0,4.86-7.06,24.14,3,24.14s3-19.23,3-24.14A92.18,92.18,0,0,1,102.07,156.59Z"/><path class="cls-4" d="M66.8,176.3v5.83a12,12,0,0,0,12.14,11.8h6a12,12,0,0,0,12.14-11.8V176.3Z"/><path class="cls-2" d="M195.67,230.83c0,6.81,7.83,12.37,17.4,12.37h8.64c9.57,0,17.4-5.56,17.4-12.37Z"/><path class="cls-2" d="M424.61,220.86c-5.24,4.16-12.48,11.77-19.1,22.48a56.78,56.78,0,0,0-8.25,24.48c0-11.18.07-23.18.11-34.52,1.33-2.91,4.37-9.64,6.55-15,7.27-17.71,10-22.08,16.53-37.36,8.73-20.41,17.67-44.57,15.11-42.64-5.22,3.94-25.22,40.34-27.38,45.55a142.29,142.29,0,0,0-10.79,43.59c0-10.69.08-20.41.12-28,.14-24.6.57-32.54.78-35,.81-1.25,1.76-2.7,2.32-3.47,4.7-6.61,6.51-12.23,10.93-22.09,6.28-14,11.68-38.72,10.1-37.48-6.58,5.21-11.76,16.39-18.58,30.65s-4.87,22.45-6.22,34.62c-.28,2.39-.5,11.41-.66,23.9-1.76-13.31-5.08-22.08-11.13-30.05-7.44-9.81-14.64-16.43-19.92-19.89s9.12,20.63,16,31.11c6.13,9.37,11.78,17.62,15,25.75-.17,16.94-.25,38.39-.25,58.32-1.58-9.08-4.16-18.86-7.6-26.44-4.14-9.09-10.5-23-15.57-27.79-1.21-1.13,5.3,26,9.48,33.23s7.25,14,9.88,18.11c.61,1,2.65,4.64,3.81,6.76,0,24.37.14,45.87.36,53.19h1.08c-.07-1.89-.09-14.29-.06-30.7,2.61-8.9,8.57-19.07,13.49-28.34C416.11,243.9,429.85,216.73,424.61,220.86Z"/><polygon class="cls-5" points="412.44 327.98 381.1 327.98 378.73 298.12 414.81 298.12 412.44 327.98"/><polygon class="cls-4" points="417.14 301.6 376.39 301.6 375.23 291.52 418.31 291.52 417.14 301.6"/><rect class="cls-2" x="68.21" y="27.93" width="56.05" height="59.82"/><rect class="cls-4" x="72.43" y="27.93" width="57.9" height="59.82"/><rect class="cls-6" x="77.28" y="32.64" width="48.2" height="50.4"/><rect class="cls-4" x="88.96" y="44.85" width="24.83" height="25.96"/><rect class="cls-2" x="357.98" y="34.89" width="52.07" height="55.58"/><rect class="cls-4" x="361.91" y="34.89" width="53.78" height="55.58"/><rect class="cls-6" x="366.42" y="39.28" width="44.77" height="46.81"/><ellipse class="cls-4" cx="388.8" cy="62.68" rx="13.97" ry="13.58"/><rect class="cls-2" x="140.91" y="63.6" width="41.58" height="44.38"/><rect class="cls-4" x="144.04" y="63.6" width="42.95" height="44.38"/><rect class="cls-6" x="147.64" y="67.1" width="35.75" height="37.38"/><polygon class="cls-4" points="165.52 76.33 155.74 92.8 175.3 92.8 165.52 76.33"/></g><g id="freepik--Shadow--inject-2"><ellipse class="cls-4" cx="250" cy="359.12" rx="193.89" ry="11"/></g><g id="freepik--character-2--inject-2"><path class="cls-7" d="M349.25,113.39l-9.92-3.89s-13.09,23.2-16.84,24.38c-5.1,1.59-15.66,6-21.92,6.8-.85,1-2.24,4-2.11,5.1,8.41,2.73,26.89-.9,30.85-3.75C338.32,135.54,349.25,113.39,349.25,113.39Z"/><path class="cls-8" d="M352.3,108.11c1.85,6.64-8.17,20-8.17,20L331,121s2.46-5.49,5.46-11.08C341.27,100.84,350.19,100.54,352.3,108.11Z"/><path class="cls-9" d="M352.3,108.11c1.85,6.64-8.17,20-8.17,20L331,121s2.46-5.49,5.46-11.08C341.27,100.84,350.19,100.54,352.3,108.11Z"/><path class="cls-9" d="M336.21,123.81l5.17,2.82.91-15.43C339.28,113.45,337.16,120.21,336.21,123.81Z"/><path class="cls-8" d="M343.66,103.12s-10.22,22.1-4.26,63.25h40.27c.64-6-1.48-35.32,6.19-63.62a103.83,103.83,0,0,0-13.38-1.66,148,148,0,0,0-17.11,0A80.11,80.11,0,0,0,343.66,103.12Z"/><path class="cls-9" d="M343.66,103.12s-10.22,22.1-4.26,63.25h40.27c.64-6-1.48-35.32,6.19-63.62a103.83,103.83,0,0,0-13.38-1.66,148,148,0,0,0-17.11,0A80.11,80.11,0,0,0,343.66,103.12Z"/><path class="cls-10" d="M334.32,360c-.06,1.05,15.21,1.9,34.1,1.9s34.27-.85,34.33-1.9-15.2-1.89-34.1-1.89S334.39,359,334.32,360Z"/><polygon class="cls-7" points="354.06 335.1 361.2 332.41 367.35 347.86 360.21 350.54 354.06 335.1"/><polygon class="cls-7" points="393.05 352.52 385.52 352.52 382.76 335.57 390.29 335.57 393.05 352.52"/><path class="cls-11" d="M385,351.67h8.46a.61.61,0,0,1,.61.51l1.09,6.5a1.15,1.15,0,0,1-1,1.29H394c-3-.05-4.37-.22-8.09-.22-2.29,0-7,.23-10.18.23s-3.39-3-2.08-3.31c5.88-1.24,8.16-2.92,10.12-4.55A1.91,1.91,0,0,1,385,351.67Z"/><path class="cls-11" d="M360,349.16l8-2.27a.66.66,0,0,1,.75.31l3,5.83a1.1,1.1,0,0,1-.57,1.48l-.18.07c-2.91.77-4.86,1.25-8.5,2.28-2.51.71-5.07,1.87-7.55,2.63-1.72.54-5.76.56-7.85.56-3.09,0-3.78-3.17-2.45-3.32,3.35-.36,3.8-.19,5.65-1.09a25.71,25.71,0,0,0,8.08-5.43A3.83,3.83,0,0,1,360,349.16Z"/><path class="cls-7" d="M301.83,140.65l-8.28-3.38-3.41,8.93a35.14,35.14,0,0,0,10.24,0Z"/><polygon class="cls-7" points="287.39 137.04 287.17 142.97 290.14 146.18 293.55 137.25 287.39 137.04"/><polygon class="cls-12" points="355.02 336.41 362.18 333.72 365.35 341.71 358.19 344.4 355.02 336.41"/><polygon class="cls-12" points="390.29 335.57 382.76 335.57 384.19 344.31 391.72 344.31 390.29 335.57"/><path class="cls-9" d="M338.12,155.24c.15,1.76.32,3.56.54,5.41l29.94-9.45a21.39,21.39,0,0,0,11.52-8.1c.12-2.59.27-5.32.5-8.17.1-1.38.22-2.8.35-4.24s.31-3,.5-4.57Z"/><path class="cls-6" d="M347.9,123.36l-1-.11c.59-4.86,4.32-8.69,8.25-8.6v1C351.71,115.56,348.43,119,347.9,123.36Z"/><path class="cls-6" d="M353.23,132.33h-.17v-1c3.44.13,6.67-3.36,7.2-7.7l1,.11C360.73,128.52,357.12,132.33,353.23,132.33Z"/><path class="cls-7" d="M371.92,82.36c-1.41,5.35-3.07,15.16.56,18.73,0,0-2.54,5.43-12.77,5.43-9.35,0-4.34-5.43-4.34-5.43,6.22-1.42,6.33-5.84,5.51-10Z"/><path class="cls-12" d="M367.42,85.91l-6.53,5.16a16.87,16.87,0,0,1,.35,2.92c1.91,1.85,5.74-2.83,6.13-5.22A7.44,7.44,0,0,0,367.42,85.91Z"/><path class="cls-12" d="M349.66,82.29a6.6,6.6,0,0,0,4.25,3c2.4.52,3.6-1.63,2.94-3.79-.59-1.94-2.56-4.56-5-4.11a3.25,3.25,0,0,0-2.6,3.83A3.47,3.47,0,0,0,349.66,82.29Z"/><path class="cls-11" d="M353.63,65.15c-3.74,1.66-5.06,16.11-.36,18.25S360.71,62,353.63,65.15Z"/><path class="cls-7" d="M373.06,74.3c-.9,7.25-1,11.52-5,15.23a9.82,9.82,0,0,1-13.6.15,9.28,9.28,0,0,1-2.76-5.11c-1.21-6.51.46-17.27,7.94-20.16a9.75,9.75,0,0,1,12.7,4.79A9.22,9.22,0,0,1,373.06,74.3Z"/><path class="cls-11" d="M360.77,68.9c5.54-1.37,9.61-2.3,8.15,2.18-1.93,6-4.25,11.78-1.14,12,1.9.17,10.3-3.29,9.23-6.8-.93-3,3-3.89,3.7-5.43,2.59-5.6-4.82-4.86-3.5-8.27s-6-8.88-10-6.15c-6.51,4.42-17.68,4.35-11.81-2.91,4.21-5.18-3.3-4.12-3.3-4.12s4.54,2.61-3.1,6.65C340.92,60.41,348.33,72,360.77,68.9Z"/><path class="cls-7" d="M376,82.29a7.76,7.76,0,0,1-4.61,3c-2.47.52-3.42-1.63-2.49-3.79.83-1.94,3.11-4.56,5.47-4.11S377.27,80.38,376,82.29Z"/><path class="cls-8" d="M339.4,166.37s-6.76,58.81-7.29,81.12C331.57,270.7,355,343.13,355,343.13l12-4.86s-14-66.18-12-89c2.12-24.85,10.88-82.89,10.88-82.89Z"/><path class="cls-9" d="M356.2,182.52c-5.39,10.86-1.76,32.35,1.16,45.09,1.11-9,2.43-18.75,3.68-27.78C360.92,186,359.81,175.23,356.2,182.52Z"/><path class="cls-8" d="M366.49,334.42c.06,0,1.42,3.71,1.42,3.71l-13.84,5.66-2.18-4Z"/><path class="cls-8" d="M353.69,166.37s5.17,55.93,8.59,76.88c3.76,22.94,18.5,99.37,18.5,99.37h13.79s-8.26-74.57-9.82-97.29c-1.7-24.65-5.08-79-5.08-79Z"/><path class="cls-8" d="M394.78,339.13c.06,0,.46,3.74.46,3.74H380.08L379,338.58Z"/><path class="cls-9" d="M389.5,334.7a.14.14,0,0,1-.13-.11c-.08-.68-7.53-68-8.93-88.45-1.52-22.14-4.58-71.25-4.61-71.75a.11.11,0,0,1,.11-.12h0a.13.13,0,0,1,.13.11c0,.5,3.09,49.57,4.61,71.75,1.4,20.41,8.85,87.72,8.92,88.45a.12.12,0,0,1-.1.14h0Z"/><path class="cls-11" d="M361.62,76.32c0,.59-.38,1.07-.78,1.07s-.69-.48-.65-1.07.38-1.07.78-1.07S361.66,75.74,361.62,76.32Z"/><path class="cls-11" d="M354.76,76.32c0,.59-.39,1.07-.78,1.07s-.69-.48-.66-1.07.39-1.07.79-1.07S354.8,75.74,354.76,76.32Z"/><path class="cls-13" d="M356.92,76.62a22.45,22.45,0,0,1-3.2,5c1,1,2.87.52,2.87.52Z"/><path class="cls-11" d="M357.1,84.67a.17.17,0,0,1-.17-.17h0a.19.19,0,0,1,.19-.17,5.17,5.17,0,0,0,4-1.83.2.2,0,0,1,.25,0,.18.18,0,0,1,0,.25A5.54,5.54,0,0,1,357.1,84.67Z"/><path class="cls-11" d="M362.84,74.53a.34.34,0,0,1-.31,0,2.91,2.91,0,0,0-2.55-.26.36.36,0,0,1-.46-.15h0a.35.35,0,0,1,.19-.46,3.58,3.58,0,0,1,3.23.29.33.33,0,0,1,.09.47h0A.39.39,0,0,1,362.84,74.53Z"/><path class="cls-11" d="M352.11,72.59a.29.29,0,0,1-.14-.08.34.34,0,0,1,0-.48h0a3.81,3.81,0,0,1,3.08-1.2.33.33,0,0,1,.28.38v0a.39.39,0,0,1-.42.29h0a3,3,0,0,0-2.43,1A.39.39,0,0,1,352.11,72.59Z"/><path class="cls-7" d="M389.73,112.31l-10.4-2.69s-10.2,24.41-13.81,26c-4.9,2.18-17.31,9.72-22.59,13.29-.29,1.21-.06,4.43.6,5.31,9-1.59,26.23-8,29.83-11.31C381.57,135.43,389.73,112.31,389.73,112.31Z"/><path class="cls-8" d="M382.47,353a2.2,2.2,0,0,1-1.43-.38,1,1,0,0,1-.31-.91.57.57,0,0,1,.34-.49c.84-.41,3.19,1,3.46,1.2a.15.15,0,0,1,.07.17.21.21,0,0,1-.14.15A9.52,9.52,0,0,1,382.47,353Zm-1-1.51a.45.45,0,0,0-.23,0,.2.2,0,0,0-.12.2.65.65,0,0,0,.2.63c.39.34,1.37.38,2.66.14a6.77,6.77,0,0,0-2.54-1Z"/><path class="cls-8" d="M384.41,352.69h-.08c-.75-.41-2.16-2-1.95-2.83a.6.6,0,0,1,.59-.45.93.93,0,0,1,.75.22c.83.69.88,2.81.88,2.91a.15.15,0,0,1-.09.16A.17.17,0,0,1,384.41,352.69Zm-1.34-3H383c-.23,0-.26.12-.27.17-.12.48.77,1.69,1.51,2.27a4,4,0,0,0-.75-2.3.6.6,0,0,0-.42-.14Z"/><path class="cls-8" d="M355.92,351.74a2.91,2.91,0,0,1-1.89,0,.92.92,0,0,1-.49-.74.56.56,0,0,1,.21-.52c.8-.7,4.07,0,4.44.14a.16.16,0,0,1,.12.16.18.18,0,0,1-.11.17A15.37,15.37,0,0,1,355.92,351.74Zm-1.63-1.16a.64.64,0,0,0-.31.15.18.18,0,0,0-.08.2.6.6,0,0,0,.32.5c.53.27,1.76.06,3.35-.6A10.33,10.33,0,0,0,354.29,350.58Z"/><path class="cls-8" d="M358.17,351h-.08c-1-.17-3-1.29-3.06-2.13,0-.19.09-.46.57-.62a1.33,1.33,0,0,1,1,.06c1.08.51,1.65,2.38,1.68,2.47a.16.16,0,0,1,0,.16A.12.12,0,0,1,358.17,351Zm-2.37-2.46h-.1c-.31.11-.31.24-.31.27,0,.51,1.45,1.43,2.46,1.74a3.63,3.63,0,0,0-1.4-1.94,1,1,0,0,0-.65-.07Z"/><path class="cls-7" d="M343.78,148.32,333.35,153l-1.21,2.92,3.85,2.51s7.2-.76,9.25-5.26Z"/><path class="cls-11" d="M344.22,154.38a13.3,13.3,0,0,0-1.94-5.5l1.65-1.21a15.47,15.47,0,0,1,2.32,6.37Z"/><path class="cls-11" d="M346,149.7a1.92,1.92,0,0,1-.61,2.69,2,2,0,0,1-2.77-.6,1.91,1.91,0,0,1,.62-2.68,1.37,1.37,0,0,1,.32-.16A1.84,1.84,0,0,1,346,149.7Z"/><polygon class="cls-7" points="326.3 156.76 327.69 158.12 337.05 154.23 333.35 152.99 326.3 156.76"/><path class="cls-9" d="M366.49,334.42c.06,0,1.42,3.71,1.42,3.71l-13.84,5.66-2.18-4Z"/><path class="cls-9" d="M394.78,339.13c.06,0,.46,3.74.46,3.74H380.08L379,338.58Z"/><path class="cls-8" d="M392.44,109.51c2.75,8.62-8,20.41-8,20.41L369.59,124a147.06,147.06,0,0,1,6.08-14.64C380.23,99.83,389.66,100.81,392.44,109.51Z"/><path class="cls-9" d="M392.44,109.51c2.75,8.62-8,20.41-8,20.41L369.59,124a147.06,147.06,0,0,1,6.08-14.64C380.23,99.83,389.66,100.81,392.44,109.51Z"/></g><g id="freepik--Screen--inject-2"><rect class="cls-8" x="238.49" y="23.13" width="6.39" height="1"/><polygon class="cls-8" points="326.82 79.44 327.6 62.76 328.63 62.8 327.85 79.48 326.82 79.44"/><polygon class="cls-8" points="325.61 27.62 207.61 27.62 196.63 266.46 314.63 266.46 325.61 27.62"/><polygon class="cls-14" points="322.09 30.91 204.09 30.91 193.11 269.74 311.11 269.74 322.09 30.91"/><polygon class="cls-15" points="318.57 34.19 200.57 34.19 189.58 273.02 307.58 273.02 318.57 34.19"/><polygon class="cls-6" points="305.14 138.35 204.42 138.35 203.58 156.62 304.3 156.62 305.14 138.35"/><polygon class="cls-8" points="259.81 125.02 205.03 125.02 204.66 133.19 259.44 133.19 259.81 125.02"/><polygon class="cls-6" points="302.87 187.67 202.15 187.67 201.31 205.94 302.03 205.94 302.87 187.67"/><polygon class="cls-16" points="284.4 230.62 216.67 230.62 215.66 252.52 283.39 252.52 284.4 230.62"/><path class="cls-6" d="M279.87,255.92H212.14a.06.06,0,0,1-.09-.09l1-21.9a.11.11,0,0,1,.11-.11H281a.11.11,0,0,1,0,.08l-1,21.95A.12.12,0,0,1,279.87,255.92Zm-67.61-.23h67.49l1-21.68H213.26Z"/><polygon class="cls-8" points="247.98 174.33 202.76 174.33 202.39 182.52 247.6 182.52 247.98 174.33"/><path class="cls-6" d="M283.11,79.32A25.34,25.34,0,0,1,277.54,94a27.16,27.16,0,0,1-21.2,10.28c-13.43.09-24.39-10.4-24.49-23.45,0-.49,0-1,0-1.46.73-13.87,12.46-24.79,26.75-24.9C272,54.3,283,64.77,283.15,77.81,283.15,78.31,283.14,78.82,283.11,79.32Z"/><path class="cls-8" d="M285.52,59.63A6.71,6.71,0,0,1,284,63.52a7.26,7.26,0,0,1-5.64,2.73A6.55,6.55,0,0,1,273,63.52a6.3,6.3,0,0,1-1.12-3.89A7.1,7.1,0,0,1,279,53a6.38,6.38,0,0,1,6.52,6.22C285.53,59.37,285.53,59.5,285.52,59.63Z"/><path class="cls-11" d="M215.27,147.49a3.15,3.15,0,0,1-3.15,2.91,2.81,2.81,0,0,1-2.88-2.73v-.18a3.14,3.14,0,0,1,3.15-2.92,2.82,2.82,0,0,1,2.88,2.76Z"/><path class="cls-11" d="M228.75,147.49a3.13,3.13,0,0,1-3.15,2.91,2.8,2.8,0,0,1-2.87-2.74v-.17a3.13,3.13,0,0,1,3.14-2.92,2.81,2.81,0,0,1,2.88,2.74Z"/><path class="cls-11" d="M242.24,147.49a3.13,3.13,0,0,1-3.15,2.91,2.81,2.81,0,0,1-2.88-2.75v-.16a3.14,3.14,0,0,1,3.15-2.92,2.81,2.81,0,0,1,2.88,2.74Z"/><path class="cls-11" d="M213,196.81a3.16,3.16,0,0,1-3.15,2.91A2.82,2.82,0,0,1,207,197v-.15a3.14,3.14,0,0,1,3.15-2.92,2.82,2.82,0,0,1,2.88,2.76Z"/><path class="cls-11" d="M226.48,196.81a3.14,3.14,0,0,1-3.14,2.91,2.81,2.81,0,0,1-2.88-2.74v-.17a3.14,3.14,0,0,1,3.15-2.92,2.81,2.81,0,0,1,2.87,2.75Z"/><path class="cls-11" d="M240,196.81a3.13,3.13,0,0,1-3.15,2.91,2.82,2.82,0,0,1-2.88-2.78v-.13a3.16,3.16,0,0,1,3.15-2.92,2.81,2.81,0,0,1,2.88,2.74Z"/><path class="cls-11" d="M253.46,196.81a3.16,3.16,0,0,1-3.15,2.91,2.82,2.82,0,0,1-2.88-2.78v-.13a3.16,3.16,0,0,1,3.15-2.92,2.82,2.82,0,0,1,2.88,2.76Z"/><path class="cls-11" d="M267,196.81a3.16,3.16,0,0,1-3.15,2.91A2.81,2.81,0,0,1,261,197v-.17a3.14,3.14,0,0,1,3.15-2.92,2.82,2.82,0,0,1,2.88,2.76Z"/><ellipse class="cls-8" cx="257.87" cy="70.99" rx="10.5" ry="9.94" transform="translate(-2.63 131.61) rotate(-28.49)"/><path class="cls-8" d="M277.54,94a27.16,27.16,0,0,1-21.2,10.28A24.49,24.49,0,0,1,236.1,94c4.86-4.7,12.55-7.77,21.07-7.77S273.11,89.25,277.54,94Z"/><ellipse class="cls-17" cx="257.87" cy="70.99" rx="10.5" ry="9.94" transform="translate(-2.63 131.61) rotate(-28.49)"/><path class="cls-17" d="M277.54,94a27.16,27.16,0,0,1-21.2,10.28A24.49,24.49,0,0,1,236.1,94c4.86-4.7,12.55-7.77,21.07-7.77S273.11,89.25,277.54,94Z"/></g><g id="freepik--character-1--inject-2"><path class="cls-7" d="M130.41,161c-.95,2-1.95,4.24-2.82,6.4s-1.76,4.39-2.53,6.6a82.24,82.24,0,0,0-3.58,13.42l-.22,1.42a2,2,0,0,0,.07.73,7.65,7.65,0,0,0,1.1,2.26,28.39,28.39,0,0,0,4.44,4.86,67.88,67.88,0,0,0,5.52,4.48c1.92,1.44,3.94,2.84,5.93,4.16l-1.87,3.41A71.31,71.31,0,0,1,123,201.28a32.45,32.45,0,0,1-6-5.52,13.68,13.68,0,0,1-2.39-4.15,9.12,9.12,0,0,1-.48-2.92v-1.22l.1-1a74.09,74.09,0,0,1,3.27-14.91c.78-2.39,1.61-4.77,2.56-7.09s1.93-4.6,3.14-7Z"/><path class="cls-7" d="M136.91,204.76l7.07-3.48-1.83,7.54s-4.85,1.32-7.1-1Z"/><polygon class="cls-7" points="150.45 202.51 148.57 208.75 142.15 208.82 143.98 201.28 150.45 202.51"/><path class="cls-13" d="M160.43,124.64a18.89,18.89,0,0,0,1.57,3.88,1.66,1.66,0,0,1-1.59.5Z"/><ellipse class="cls-11" cx="160.22" cy="123.58" rx="0.75" ry="1.12"/><path class="cls-11" d="M160,122.5l1.52-.42S160.78,123.23,160,122.5Z"/><path class="cls-7" d="M140.9,131.77c.91,4.52,1.82,12.81-1.44,15.83,0,0,1.28,4.59,9.93,4.59,9.51,0,4.54-4.59,4.54-4.59-5.19-1.2-5.06-4.94-4.15-8.46Z"/><path class="cls-7" d="M138.37,121.47c.48,7.55.52,10.76,4.44,14.64,5.91,5.83,15.35,3.61,17.2-3.89,1.67-6.81.61-18-7-21a10.73,10.73,0,0,0-13.86,5.62A10,10,0,0,0,138.37,121.47Z"/><path class="cls-11" d="M139.14,113c-3.9,1.38-9.1.35-7.06,12,2.16,12.38-1.16,16.45-1.16,16.45s14.79,3.06,29.89-.18c0,0-4.61-7.84-3.32-13.61,1.65-7.29.35-10,.35-10S144.62,111,139.14,113Z"/><path class="cls-7" d="M155.64,125.4a7.44,7.44,0,0,0,1.22,4.06c1.06,1.57,2.31,1,2.62-.7.28-1.47.07-4.06-1.28-5.08S155.66,123.66,155.64,125.4Z"/><path class="cls-11" d="M135.75,114.25c-1.12-3.07,4.22-7.78,15.52-5.84s11.79,11.09,11.79,11.09l-2.28-2.64.1,2.78-11.61,2.17Z"/><path class="cls-8" d="M136.71,148.12h0a1.72,1.72,0,0,1,1.45-1.94c3.52-.57,11.52-1.72,15.54-1.17,3,.41,3.78,2.1,3.91,3.49a1.72,1.72,0,0,1-1.61,1.84h-.24l-17.38-.76A1.77,1.77,0,0,1,136.71,148.12Z"/><path class="cls-18" d="M136.71,148.12h0a1.72,1.72,0,0,1,1.45-1.94c3.52-.57,11.52-1.72,15.54-1.17,3,.41,3.78,2.1,3.91,3.49a1.72,1.72,0,0,1-1.61,1.84h-.24l-17.38-.76A1.77,1.77,0,0,1,136.71,148.12Z"/><polygon class="cls-7" points="146.76 317.92 153.21 322.28 164 308.06 157.55 303.71 146.76 317.92"/><polygon class="cls-7" points="131.72 317.64 138.53 321.41 148.08 306.38 141.27 302.61 131.72 317.64"/><polygon class="cls-12" points="163.99 308.06 158.43 315.39 151.98 311.04 157.54 303.71 163.99 308.06"/><polygon class="cls-12" points="141.26 302.61 148.08 306.39 143.16 314.13 136.34 310.35 141.26 302.61"/><path class="cls-8" d="M152.2,195.59s25.18,30.84,20.45,60.34C168.84,279.75,146.74,312,146.74,312l-10.39-5a326,326,0,0,0,18.7-44.17,31.87,31.87,0,0,0-4-28.28c-12.76-18.11-33.2-7.33-19.45-39Z"/><path class="cls-18" d="M152.2,195.59s25.18,30.84,20.45,60.34C168.84,279.75,146.74,312,146.74,312l-10.39-5a326,326,0,0,0,18.7-44.17,31.87,31.87,0,0,0-4-28.28c-12.76-18.11-33.2-7.33-19.45-39Z"/><path class="cls-19" d="M164.55,215.4l-3.66-3.54c0,.28,7.09,42.83,9.08,54.78A71.47,71.47,0,0,0,172.66,256C175,241.48,170.11,226.69,164.55,215.4Z"/><path class="cls-8" d="M163.44,195.59s30.32,38.76,31.18,62c.71,19.44-33,57.11-33,57.11l-9.8-6.17s19.73-26.74,24.7-48.59C174.6,238.28,134,195.59,134,195.59Z"/><path class="cls-18" d="M163.44,195.59s30.32,38.76,31.18,62c.71,19.44-33,57.11-33,57.11l-9.8-6.17s19.73-26.74,24.7-48.59C174.6,238.28,134,195.59,134,195.59Z"/><path class="cls-8" d="M125.93,149.33c-3.24.75-6.35,12.2-6.35,12.2l12.67,8.23s4.22-9.06,2.74-13C133.46,152.6,130,148.39,125.93,149.33Z"/><path class="cls-9" d="M128.41,156.71l-.88,10,4.71,3.08a40.47,40.47,0,0,0,2.87-8.89Z"/><path class="cls-8" d="M167.19,149.56s3.74,1.27-3.75,46H131.58c.54-12.63.55-20.41-5.65-46.25a97.58,97.58,0,0,1,13.53-1.73,105.87,105.87,0,0,1,14.47,0C160.15,148.16,167.19,149.56,167.19,149.56Z"/><path class="cls-7" d="M170.43,156.71c.72,1.95,1.48,4,2.28,6s1.56,4.08,2.37,6.12l2.45,6.1.62,1.53.32.76.15.38v.06a2.06,2.06,0,0,0-.7-.61,3.11,3.11,0,0,0-1.3-.38,2.64,2.64,0,0,0-1.11.21c-.46.2-.46.29-.45.28a1.15,1.15,0,0,0,.22-.22,13.75,13.75,0,0,0,1.43-2.27c.47-.89.92-1.84,1.37-2.81.88-1.94,1.69-3.95,2.5-6s1.58-4.09,2.33-6.16l2.28-6.2,3.85,1c-.76,4.44-1.74,8.75-2.92,13.15-.57,2.18-1.24,4.35-2,6.54-.38,1.1-.8,2.18-1.28,3.3A21.05,21.05,0,0,1,181,181a9.79,9.79,0,0,1-.88,1.05,5.33,5.33,0,0,1-1.82,1.25,4.43,4.43,0,0,1-1.94.35,4.34,4.34,0,0,1-2.11-.61,5.31,5.31,0,0,1-1.82-1.83c-.15-.26-.28-.51-.37-.69l-.19-.37-.38-.76-.76-1.51c-1-2-2-4.06-2.87-6.11s-1.79-4.13-2.65-6.22-1.63-4.18-2.36-6.44Z"/><path class="cls-8" d="M167.19,149.56c3.83.88,8.14,11.89,8.14,11.89l-11.39,9.41s-7.37-12-5.88-16C159.61,150.79,162.19,148.4,167.19,149.56Z"/><path class="cls-7" d="M187,150.09l4-3.24,2.78,4.2-2.05,3.51s-3.26,2.92-6.14,1.43h0A4.94,4.94,0,0,1,187,150.09Z"/><polygon class="cls-7" points="198.22 146.86 197.92 147.91 191.59 148.95 190.97 146.85 198.22 146.86"/><polygon class="cls-8" points="162.4 315.19 150.98 308.02 153.03 304.56 165.86 312.23 162.4 315.19"/><path class="cls-11" d="M143,320.91a7.07,7.07,0,0,1-2.82-1,.19.19,0,0,1-.11-.23.2.2,0,0,1,.11-.11c.31-.09,3-.9,3.78-.28a.63.63,0,0,1,.22.6,1,1,0,0,1-.57.83A1.46,1.46,0,0,1,143,320.91Zm-2.25-1.07c1.25.62,2.25.84,2.73.61a.68.68,0,0,0,.36-.56c0-.16,0-.23-.09-.27-.42-.33-1.92-.07-3,.22Z"/><path class="cls-11" d="M140.25,320a.2.2,0,0,1-.14-.06.17.17,0,0,1,0-.17c0-.09.65-2.2,1.67-2.67a1,1,0,0,1,.83,0,.63.63,0,0,1,.46.65c-.07.87-1.9,2.08-2.74,2.28Zm1.94-2.65a.68.68,0,0,0-.28.07c-.62.29-1.13,1.43-1.38,2.12.88-.36,2.09-1.32,2.13-1.85,0-.09,0-.19-.23-.29a.68.68,0,0,0-.24-.08Z"/><path class="cls-11" d="M157.27,325.11c-1.13,0-2.7-1.41-3.56-2.28a.15.15,0,0,1,0-.2.21.21,0,0,1,.19-.1c.4,0,3.87.51,4.36,1.46a.52.52,0,0,1,0,.56,1,1,0,0,1-.79.55Zm-2.9-2.14c1.26,1.18,2.37,1.84,3,1.77a.7.7,0,0,0,.52-.36.2.2,0,0,0,0-.23c-.26-.52-2.11-1-3.52-1.18Z"/><path class="cls-11" d="M154.48,322.92a3,3,0,0,1-.67-.05.18.18,0,0,1-.14-.11.19.19,0,0,1,0-.18c.06-.07,1.41-1.65,2.69-1.76a1.39,1.39,0,0,1,1,.31c.39.33.37.62.27.81C157.38,322.6,155.65,322.92,154.48,322.92Zm-.26-.36c1.12.06,2.91-.3,3.14-.78,0,0,.08-.15-.18-.37a1,1,0,0,0-.76-.23,4.38,4.38,0,0,0-2.2,1.39Z"/><path class="cls-8" d="M140.52,319,132,316.62a.63.63,0,0,0-.75.34l-2.86,6.25a1.22,1.22,0,0,0,.69,1.6l.14,0c3,.76,4.44,1,8.17,2,2.3.62,5.58,1.77,8.75,2.65s4.23-2.13,3-2.77c-5.56-2.86-6-4.86-7.52-7A2.07,2.07,0,0,0,140.52,319Z"/><path class="cls-8" d="M153.94,321.69l-7.24-4.86a.64.64,0,0,0-.82.08l-4.8,5a1.18,1.18,0,0,0,.12,1.71.58.58,0,0,0,.12.1c2.55,1.66,3.87,2.33,7.06,4.48,2,1.32,5.87,4.25,8.57,6.08s4.71-.68,3.75-1.67c-4.3-4.46-5.24-7.26-5.95-9.8A2,2,0,0,0,153.94,321.69Z"/><polygon class="cls-8" points="148.07 312.65 135.02 306.35 136.37 302.91 150.31 309.56 148.07 312.65"/><path class="cls-8" d="M131.1,193.76l-1.1,2.8c-.11.22.15.44.52.44H163.6c.29,0,.53-.14.55-.31l.28-2.78c0-.19-.23-.35-.54-.35H131.62A.63.63,0,0,0,131.1,193.76Z"/><path class="cls-20" d="M131.1,193.76l-1.1,2.8c-.11.22.15.44.52.44H163.6c.29,0,.53-.14.55-.31l.28-2.78c0-.19-.23-.35-.54-.35H131.62A.63.63,0,0,0,131.1,193.76Z"/><path class="cls-8" d="M136.31,197.27h-.87c-.17,0-.3-.09-.29-.19l.41-3.61c0-.1.16-.18.33-.18h.87c.17,0,.3.08.29.18l-.41,3.61C136.63,197.18,136.48,197.27,136.31,197.27Z"/><path class="cls-8" d="M156.71,197.27h-.86c-.17,0-.3-.09-.29-.19l.4-3.61c0-.1.17-.18.34-.18h.86c.17,0,.31.08.29.18l-.4,3.61A.36.36,0,0,1,156.71,197.27Z"/><ellipse class="cls-4" cx="135.55" cy="359.99" rx="26.79" ry="1.89"/><path class="cls-2" d="M151.87,357.33c-4.74-1.34-10-3.06-13.18-4.86-.09-.06-.19-.09-.28-.14V331.47H148a2.78,2.78,0,0,0,0-5.55h-9.54V230.84H132.7v95.08h-9.53a2.78,2.78,0,1,0-.34,5.55h9.87V352.3c-.09,0-.18.08-.27.14-3.23,1.83-8.45,3.55-13.19,4.86a1.34,1.34,0,0,0-.93,1.69,1.39,1.39,0,0,0,1.32,1h31.85a1.37,1.37,0,0,0,1.3-1.45A1.36,1.36,0,0,0,151.87,357.33Z"/><path class="cls-8" d="M117.78,221.16h35.56a5.11,5.11,0,0,1,5.18,5v10.27a5.11,5.11,0,0,1-5.18,5H117.78a5.11,5.11,0,0,1-5.18-5V226.2A5.11,5.11,0,0,1,117.78,221.16Z"/><path class="cls-8" d="M117.45,241.52v1.77c0,1.45,1.63,2.64,3.63,2.64h29c2,0,3.63-1.19,3.63-2.64v-1.77Z"/><path class="cls-21" d="M117.45,241.52v1.77c0,1.45,1.63,2.64,3.63,2.64h29c2,0,3.63-1.19,3.63-2.64v-1.77Z"/></g><path class="cls-22" d="M108.06,37.11l0,4.93-2.49,0a4.06,4.06,0,0,0-3.84,4.18l.06,8.29,0,8.31a4,4,0,0,0,3.9,4.1l2.5,0,0,4.91-3.45,0a7.27,7.27,0,0,1-1.68-.19c1.08-2.74,1.5-4.76.53-4.62a44.16,44.16,0,0,1-6.07-.54,8.82,8.82,0,0,1-.39-2.8L97.1,45.39a8,8,0,0,1,7.58-8.3Z"/><path class="cls-22" d="M86.54,49.46l-7.7.07L78.93,65c1.22,0,2.5,0,3.82.12l-.06-11.55,3.09,0a5.21,5.21,0,0,1,4.9,5.43v3.46a6,6,0,0,1-.92,3.25l4.39.49A9.79,9.79,0,0,0,94.64,63l0-4.62A8.52,8.52,0,0,0,86.54,49.46Z"/><polygon class="cls-22" points="111.03 49.17 115.33 49.13 115.47 71.73 111.17 71.77 111.03 49.17"/><path class="cls-22" d="M108,71.87l.07-4.93-2.5,0a4.08,4.08,0,0,1-3.8-4.22l.13-8.29.11-8.31A4,4,0,0,1,105.94,42l2.49,0,.07-4.91-3.45-.06a7.93,7.93,0,0,0-1.68.18c1.06,2.75,1.47,4.77.49,4.63a44.08,44.08,0,0,0-6.07.48,8.89,8.89,0,0,0-.42,2.8L97.1,63.5a8,8,0,0,0,7.52,8.36Z"/><path class="cls-22" d="M86.59,71.46l-7.7,0,0-15.42c1.22,0,2.5-.05,3.82-.13l0,11.55h3.1A5.22,5.22,0,0,0,90.7,62V58.51a6,6,0,0,0-.92-3.24l4.39-.51a9.79,9.79,0,0,1,.48,3.13v4.62A8.52,8.52,0,0,1,86.59,71.46Z"/></svg>