<svg id="Layer_1" data-name="Layer 1" xmlns="http://www.w3.org/2000/svg" viewBox="0 0 500 500"><defs><style>.cls-1{fill:#ebebeb;}.cls-2{fill:#e0e0e0;}.cls-3{fill:#f5f5f5;}.cls-4{fill:#263238;}.cls-5{fill:#407bff;}.cls-6{fill:#ffbe9d;}.cls-7{fill:#eb996e;}.cls-8{fill:#d1734a;}.cls-9{fill:#455a64;}.cls-10,.cls-16{fill:#fff;}.cls-11{fill:#a36957;}.cls-12{fill:#7c3b29;}.cls-13{opacity:0.2;}.cls-14{fill:#fbfbfb;}.cls-15,.cls-16{opacity:0.6;}.cls-16{isolation:isolate;}.cls-17{fill:#fafafa;}</style></defs><g id="freepik--background-complete--inject-3"><path class="cls-1" d="M20.4,253.79l3.06.67,4.73,11.25-1.26,6.42s4.67,1.34,5.77-7.19S34,258.69,34,258.69,44,260.88,45,260.1c.73-.53,3.14-11,4.32-16.63a6.46,6.46,0,0,0-2.93-7.12,4.33,4.33,0,0,0-1-.38c-2.5-.55-15.67-1.21-15.67-1.21l-5.28-1.1Z"/><polygon class="cls-1" points="11.3 253.65 17.53 232.06 22.76 233.2 18.5 254.77 11.3 253.65"/><polygon class="cls-2" points="453.9 219.94 458.38 229.49 468.4 231.02 461.15 238.47 462.86 248.97 453.9 244.01 444.95 248.97 446.65 238.47 439.4 231.02 449.42 229.49 453.9 219.94"/><polygon class="cls-3" points="453.9 131.68 456.87 138 463.49 139.02 458.7 143.93 459.82 150.88 453.9 147.6 447.98 150.88 449.11 143.93 444.32 139.02 450.95 138 453.9 131.68"/><path class="cls-1" d="M316.48,114.88l-3,.51-7.9-8.35-.95-6.2s-4.6.49-2.82,8.51.89,6.06.89,6.06-9.68,1.68-10.35,2.71c-.48.74.8,10.91,1.55,16.42a5.86,5.86,0,0,0,4.93,5.3,3.62,3.62,0,0,0,1,0c2.41-.42,14.44-4.58,14.44-4.58l5.09-.87Z"/><polygon class="cls-1" points="324.67 111.75 326.12 133.3 321.06 134.16 317.87 113.34 324.67 111.75"/><rect class="cls-2" x="416.94" y="26.2" width="8.33" height="43.61" transform="translate(-0.27 2.4) rotate(-0.33)"/><rect class="cls-1" x="344.76" y="26.36" width="21.56" height="24.08" transform="matrix(1, -0.01, 0.01, 1, -0.21, 2.03)"/><rect class="cls-3" x="366.23" y="26.23" width="21.56" height="24.08" transform="translate(-0.21 2.15) rotate(-0.33)"/><path class="cls-2" d="M344.73,33.09c14.32.12,28.7,0,43-.21a.23.23,0,0,0,.23-.24.24.24,0,0,0-.23-.24q-21.5-.13-43,.27a.21.21,0,0,0-.2.21.2.2,0,0,0,.2.21h0Z"/><rect class="cls-1" x="331.3" y="50.08" width="39.17" height="19.61" transform="translate(-0.34 2) rotate(-0.33)"/><rect class="cls-3" x="370.3" y="49.86" width="39.17" height="19.61" transform="translate(-0.33 2.22) rotate(-0.33)"/><path class="cls-2" d="M331.28,55.67c26,.31,52.14,0,78.16-.4a.23.23,0,0,0,.23-.24.24.24,0,0,0-.23-.25h0c-26-.14-52.14-.13-78.16.48a.2.2,0,0,0-.2.21.2.2,0,0,0,.2.2Z"/><rect class="cls-2" x="316.63" y="69.84" width="151.78" height="7.03"/><rect class="cls-2" x="341.47" y="73.21" width="6.16" height="23.98"/><rect class="cls-2" x="433.45" y="73.21" width="6.16" height="23.98"/><rect class="cls-1" x="425.11" y="9.94" width="8.33" height="59.98" transform="matrix(1, -0.01, 0.01, 1, -0.22, 2.45)"/><rect class="cls-3" x="433.47" y="21.12" width="12.94" height="48.61" transform="translate(-0.25 2.51) rotate(-0.33)"/><path class="cls-2" d="M446.2,30.47a44.92,44.92,0,0,1-6.46.24,45.25,45.25,0,0,1-6.48-.24A87.33,87.33,0,0,1,446.2,30.47Z"/><path class="cls-2" d="M446.2,28.4a43.52,43.52,0,0,1-6.46.24,43.84,43.84,0,0,1-6.48-.24A90.14,90.14,0,0,1,446.2,28.4Z"/><path class="cls-2" d="M446.2,62.4a90.14,90.14,0,0,1-12.94,0A87.33,87.33,0,0,1,446.2,62.4Z"/><path class="cls-2" d="M446.2,60.36a90.14,90.14,0,0,1-12.94,0A90.14,90.14,0,0,1,446.2,60.36Z"/><path class="cls-2" d="M440,55.88c-.13,0-.23-4.9-.23-11s.1-11,.23-11,.22,4.91.22,11S440.06,55.88,440,55.88Z"/><rect class="cls-1" x="446.34" y="33.05" width="14.08" height="36.69"/><path class="cls-2" d="M431.39,20.18A2.4,2.4,0,1,1,429,17.67h0a2.44,2.44,0,0,1,2.4,2.5Z"/><rect class="cls-2" x="428.26" y="27.11" width="1.48" height="35.68"/><polygon class="cls-1" points="428.99 176.77 431.95 183.09 438.58 184.11 433.78 189.02 434.92 195.97 428.99 192.69 423.07 195.97 424.2 189.02 419.41 184.11 426.03 183.09 428.99 176.77"/></g><g id="freepik--Floor--inject-3"><path class="cls-4" d="M478.29,481.12c0,.17-102.62.29-229.17.29s-229.19-.12-229.19-.29,102.59-.28,229.19-.28S478.29,481,478.29,481.12Z"/></g><g id="freepik--Reviews--inject-3"><rect class="cls-3" x="58.51" y="232.13" width="222.02" height="92.13"/><path class="cls-4" d="M280.52,324.26v-24.7c0-15.87-.06-38.88-.1-67.43l.19.2-222,.09h0l.27-.29v92.13l-.26-.28,159.06.18,46.19.08H264l-46.14.07-159.34.14h-.26V231.8h.28l222,.09h.19v.2c0,28.59-.07,51.68-.09,67.55,0,7.93,0,14.08-.05,18.25v4.73A11.53,11.53,0,0,1,280.52,324.26Z"/><path class="cls-4" d="M184.54,281.28c0,.15-23.78.29-53.1.29s-53.1-.14-53.1-.29,23.77-.3,53.1-.3S184.54,281.16,184.54,281.28Z"/><path class="cls-4" d="M184.84,292.47c0,.17-23.91.29-53.4.29S78,292.64,78,292.47s23.91-.28,53.41-.28S184.84,292.28,184.84,292.47Z"/><polygon class="cls-5" points="85.05 248.92 87.42 253.99 92.74 254.8 88.89 258.74 89.8 264.3 85.05 261.68 80.31 264.3 81.21 258.74 77.37 254.8 82.68 253.99 85.05 248.92"/><polygon class="cls-2" points="102.62 248.92 104.99 253.99 110.3 254.8 106.45 258.74 107.36 264.3 102.62 261.68 97.87 264.3 98.78 258.74 94.93 254.8 100.24 253.99 102.62 248.92"/><polygon class="cls-2" points="120.18 248.92 122.55 253.99 127.87 254.8 124.02 258.74 124.93 264.3 120.18 261.68 115.44 264.3 116.33 258.74 112.5 254.8 117.81 253.99 120.18 248.92"/><polygon class="cls-2" points="137.74 248.92 140.12 253.99 145.43 254.8 141.58 258.74 142.49 264.3 137.74 261.68 133 264.3 133.91 258.74 130.06 254.8 135.37 253.99 137.74 248.92"/><polygon class="cls-2" points="155.31 248.92 157.68 253.99 163 254.8 159.15 258.74 160.06 264.3 155.31 261.68 150.57 264.3 151.46 258.74 147.63 254.8 152.94 253.99 155.31 248.92"/><path class="cls-2" d="M116,307.24c0,.16-8.2.29-18.32.29s-18.32-.13-18.32-.29S87.6,307,97.71,307,116,307.09,116,307.24Z"/><ellipse class="cls-5" cx="237.51" cy="281.85" rx="30" ry="31.58"/><path class="cls-4" d="M230.45,246.54c.63-3.23,2.82-4.93,5.71-6.17a9.28,9.28,0,0,1,9,1c1.75,1.23,3.13,3.09,5.16,3.68,3.31,1,7-1.8,10.18-.46a4.75,4.75,0,0,1,2.48,6.06,4.43,4.43,0,0,1-4.09,2.95c2.16.68,3,3.83,1.87,5.89a5.8,5.8,0,0,1-5.86,2.67,12.19,12.19,0,0,1-6-3.08c-1.77-1.49-3.36-3.19-5.22-4.52a9.42,9.42,0,0,0-6.37-2c-3,.36-5.51,2.94-6.71,5.9a25,25,0,0,0-1.32,9.49,41.81,41.81,0,0,1-.6,9.61c-.09.37-.22.78-.56.91s-.94-.33-1.21-.79a48.77,48.77,0,0,1-6.11-17.24c-.54-3.53-.64-6.9,1-10s6.27-5.59,8.67-3.84"/><path class="cls-6" d="M225.38,261.79l.44,36.1c.07,6.14,1.38,15.14,10.59,14.57h0c8-1.1,9.89-9.13,9.81-14.86v-5.27s8.72-1,9.23-10.08c.25-4.4.08-13.51-.19-21.75-.28-8.85-7-16-15.36-16.39h-.84C230,244.16,225.09,252.3,225.38,261.79Z"/><path class="cls-7" d="M246.2,292.2a19.51,19.51,0,0,1-11.14-3.94s2.37,6.69,11.05,6.3Z"/><path class="cls-4" d="M251.74,266a1.26,1.26,0,0,1-1.25,1.25,1.22,1.22,0,0,1-1.22-1.22v0a1.29,1.29,0,0,1,1.25-1.26,1.22,1.22,0,0,1,1.22,1.22Z"/><path class="cls-4" d="M253.16,264.89c-.16.15-1-.62-2.39-.68s-2.34.58-2.47.4.1-.37.54-.68a3.27,3.27,0,0,1,2-.54,3.16,3.16,0,0,1,1.91.76C253.11,264.49,253.29,264.79,253.16,264.89Z"/><path class="cls-4" d="M239,265.54a1.26,1.26,0,0,1-1.25,1.25,1.2,1.2,0,0,1-1.22-1.18v-.05a1.28,1.28,0,0,1,1.25-1.26,1.2,1.2,0,0,1,1.22,1.18Z"/><path class="cls-4" d="M240.08,264.49c-.16.15-1.05-.61-2.4-.68s-2.34.59-2.47.41.1-.38.54-.69a3.36,3.36,0,0,1,2-.53,3.2,3.2,0,0,1,1.9.75C240,264.11,240.16,264.41,240.08,264.49Z"/><path class="cls-4" d="M244.43,275.11a9.56,9.56,0,0,1,2.19-.31c.33,0,.66-.06.73-.3a1.88,1.88,0,0,0-.18-1.1l-.88-2.77a48.93,48.93,0,0,1-1.94-7.24,47.27,47.27,0,0,1,2.48,7.06l.84,2.78a2.17,2.17,0,0,1,.12,1.42.92.92,0,0,1-.59.5,3.66,3.66,0,0,1-.57.05A9,9,0,0,1,244.43,275.11Z"/><path class="cls-4" d="M245.06,280c-.19.12-.87-1.23-2.45-1.57s-2.85.56-3,.37.17-.42.73-.75a3.34,3.34,0,0,1,2.43-.4,3.15,3.15,0,0,1,2,1.36C245.12,279.53,245.14,279.94,245.06,280Z"/><path class="cls-4" d="M240.59,262.25c-.16.37-1.47.12-3,.24s-2.85.51-3,.15c-.1-.16.14-.51.67-.85a4.93,4.93,0,0,1,2.28-.72,4.86,4.86,0,0,1,2.35.41C240.38,261.75,240.65,262.07,240.59,262.25Z"/><path class="cls-4" d="M252.85,260.81c-.24.31-1.15-.08-2.24-.15s-2.09.11-2.25-.23c-.08-.16.07-.47.5-.75a3.12,3.12,0,0,1,3.62.29C252.85,260.32,253,260.65,252.85,260.81Z"/><path class="cls-6" d="M225.78,268.57c-.15-.08-5.86-2.14-6,4.09s5.88,5,5.89,4.87S225.78,268.57,225.78,268.57Z"/><path class="cls-7" d="M223.94,275.13a1.89,1.89,0,0,1-.28.16,1.05,1.05,0,0,1-.78,0,2.8,2.8,0,0,1-1.15-2.43,4,4,0,0,1,.32-1.56,1.25,1.25,0,0,1,.79-.82.53.53,0,0,1,.61.31c.07.18,0,.3.06.31s.13-.1.08-.36a.62.62,0,0,0-.22-.4.74.74,0,0,0-.57-.16,1.44,1.44,0,0,0-1.05.94,3.85,3.85,0,0,0-.38,1.74,2.86,2.86,0,0,0,1.46,2.71,1,1,0,0,0,.95-.14C223.93,275.29,224,275.15,223.94,275.13Z"/><path class="cls-4" d="M257.14,258.71a12.11,12.11,0,0,1-11-3.19c-2-2-3.52-4.77-6.13-5.76a6.74,6.74,0,0,0-5.41.5,13.93,13.93,0,0,0-4.25,3.74c1.46,4.72.11,9.83-1.25,14.58a2.57,2.57,0,0,1-.75,1.4,1.82,1.82,0,0,1-2.33-.66,8,8,0,0,1-1.42-4.15,26.83,26.83,0,0,1,.51-10.1,17.69,17.69,0,0,1,5-8.58,15.25,15.25,0,0,1,11.21-3.82,18.82,18.82,0,0,1,11,4.77,11.84,11.84,0,0,1,3.43,4.58"/><rect class="cls-3" x="58.64" y="8.78" width="222.02" height="92.13"/><path class="cls-4" d="M280.66,101V76.27c0-15.88-.06-38.89-.11-67.43l.19.19-222,.09h0L59,8.84V101l-.26-.27,159.15.12,46.2.08h.17l-46.14.07L58.8,101.1h-.26V8.5h.28l221.84.11h.19V8.8c0,28.59-.08,51.68-.11,67.56v23A12.57,12.57,0,0,1,280.66,101Z"/><path class="cls-4" d="M184.54,56.08c0,.17-23.78.29-53.1.29s-53.1-.12-53.1-.29,23.77-.28,53.1-.28S184.54,55.88,184.54,56.08Z"/><path class="cls-4" d="M184.84,67.24c0,.17-23.91.29-53.4.29S78,67.41,78,67.24,101.94,67,131.44,67,184.84,67.09,184.84,67.24Z"/><polygon class="cls-5" points="85.05 23.69 87.42 28.76 92.74 29.57 88.89 33.51 89.8 39.07 85.05 36.45 80.31 39.07 81.21 33.51 77.37 29.57 82.68 28.76 85.05 23.69"/><polygon class="cls-5" points="102.62 23.69 104.99 28.76 110.3 29.57 106.45 33.51 107.36 39.07 102.62 36.45 97.87 39.07 98.78 33.51 94.93 29.57 100.24 28.76 102.62 23.69"/><polygon class="cls-5" points="120.18 23.69 122.55 28.76 127.87 29.57 124.02 33.51 124.93 39.07 120.18 36.45 115.44 39.07 116.33 33.51 112.5 29.57 117.81 28.76 120.18 23.69"/><polygon class="cls-5" points="137.74 23.69 140.12 28.76 145.43 29.57 141.58 33.51 142.49 39.07 137.74 36.45 133 39.07 133.91 33.51 130.06 29.57 135.37 28.76 137.74 23.69"/><polygon class="cls-5" points="155.31 23.69 157.68 28.76 163 29.57 159.15 33.51 160.06 39.07 155.31 36.45 150.57 39.07 151.46 33.51 147.63 29.57 152.94 28.76 155.31 23.69"/><path class="cls-2" d="M116,82c0,.15-8.2.28-18.32.28S79.39,82.16,79.39,82s8.21-.29,18.32-.29S116,81.85,116,82Z"/><ellipse class="cls-5" cx="237.51" cy="56.62" rx="30" ry="31.58"/><path class="cls-7" d="M222.5,34.89l2.35,39.59a11.29,11.29,0,0,0,11,10.89h0c6.09,0,11-5.21,11-11.63v-.08c0-4.84-.09-9.3-.09-9.3s8.65-1.42,8.76-10.52c.05-4.31-.53-13.12-1.13-21.19-.7-9.06-7.9-16-16.54-16h-.39c-8.83.55-15.57,8.52-15,17.82C222.47,34.58,222.48,34.74,222.5,34.89Z"/><path class="cls-8" d="M246.83,64.26a19.44,19.44,0,0,1-11.3-3.37s2.68,6.59,11.29,5.72Z"/><path class="cls-4" d="M252.41,38.51c-.15.18-1-.56-2.42-.55s-2.3.71-2.45.53.09-.39.52-.7a3.21,3.21,0,0,1,1.95-.64,3.14,3.14,0,0,1,1.92.66C252.35,38.14,252.49,38.43,252.41,38.51Z"/><path class="cls-4" d="M239.48,38.51c-.16.18-1-.55-2.41-.55s-2.31.71-2.46.53.09-.37.51-.7a3.22,3.22,0,0,1,2-.64,3.14,3.14,0,0,1,1.92.66C239.42,38.14,239.55,38.43,239.48,38.51Z"/><path class="cls-4" d="M244.31,47.31a8.79,8.79,0,0,1,2.15-.41c.34,0,.66-.11.72-.35a1.83,1.83,0,0,0-.23-1.1c-.31-.87-.65-1.77-1-2.72a49.78,49.78,0,0,1-2.25-7.11,48.62,48.62,0,0,1,2.8,6.9c.33,1,.66,1.86,1,2.74a2.25,2.25,0,0,1,.18,1.4.93.93,0,0,1-.57.53,2.22,2.22,0,0,1-.57.07A7.68,7.68,0,0,1,244.31,47.31Z"/><path class="cls-4" d="M239.83,31.46c-.14.38-1.47.2-3,.4s-2.82.65-3,.31c-.09-.17.13-.53.63-.89a4.78,4.78,0,0,1,2.25-.83,4.87,4.87,0,0,1,2.36.29C239.6,31,239.88,31.28,239.83,31.46Z"/><path class="cls-4" d="M252.05,32.63c-.23.32-1.14,0-2.25,0s-2,.21-2.24-.12.05-.49.45-.78a3,3,0,0,1,1.83-.52,3,3,0,0,1,1.8.64C252,32.16,252.15,32.48,252.05,32.63Z"/><path class="cls-4" d="M231.89,24.92h0a7.32,7.32,0,0,0-2.63,4.66v.19c-.33,2.6-.28,5.23-.63,7.83a12.08,12.08,0,0,1-3,7c-.75.74-2.09,1.25-2.69.38a2.25,2.25,0,0,1-.31-1.19c-.46-6.27-2.09-11.83-2.09-18.38a5.65,5.65,0,0,1,2.18-4.5c1.31-1,2.9-2,4.35-1.28s3.32,3.58,4.45,4.79"/><path class="cls-7" d="M225.41,39c-.15-.07-5.93-1.86-5.75,4.4s6.08,4.73,6.09,4.56S225.41,39,225.41,39Z"/><path class="cls-8" d="M223.87,45.65l-.27.17a.94.94,0,0,1-.77,0,2.7,2.7,0,0,1-1.25-2.36,3.76,3.76,0,0,1,.24-1.56,1.23,1.23,0,0,1,.75-.86.52.52,0,0,1,.62.28c.08.17,0,.29.08.3s.12-.11.07-.36a.71.71,0,0,0-.25-.38.78.78,0,0,0-.57-.14,1.49,1.49,0,0,0-1.05,1,3.84,3.84,0,0,0-.3,1.74,2.81,2.81,0,0,0,1.59,2.64,1,1,0,0,0,.93-.2C223.86,45.8,223.9,45.66,223.87,45.65Z"/><path class="cls-4" d="M226.86,20.6c-1.46-2.48,2.53-6.06,5.44-7s6.77.52,9.67,1.53c1.84.64,3.66,1.54,5.59,1.46a12.94,12.94,0,0,0,3.75-1,9,9,0,0,1,3.78-.8,3.57,3.57,0,0,1,3.13,2.08A2.41,2.41,0,0,1,257,19.93l-.28.1a2.83,2.83,0,0,1,3.94,1.2,3.16,3.16,0,0,1-1.14,4.16,2.82,2.82,0,0,1-2,.3c.84-.67,2.09.43,2,1.54a3.16,3.16,0,0,1-2.06,2.35,10.46,10.46,0,0,1-7.89-.13c-2.55-.9-4.92-2.31-7.45-3.3s-6.76-2.71-9.3-1.77c-1.87.7-3.14,3.07-4.18,2.54a3.76,3.76,0,0,1-1.87-2.79,11.43,11.43,0,0,1,.11-3.55"/><path class="cls-9" d="M257.47,19.85c-.05,0-.3.47-.94,1.19a8.13,8.13,0,0,1-3.28,2.2,7.14,7.14,0,0,1-5.64-.23c-2-1-3.73-2.85-5.72-4.64a12,12,0,0,0-6.64-3.3,6.62,6.62,0,0,0-5.65,2.06,5.59,5.59,0,0,0-1.38,4,4.73,4.73,0,0,0,.25,1.1c.11.24.18.36.2.35a8.59,8.59,0,0,1-.22-1.51,5.49,5.49,0,0,1,1.4-3.66,6.29,6.29,0,0,1,5.3-1.79,11.83,11.83,0,0,1,6.32,3.3c1.94,1.75,3.71,3.69,5.87,4.68a7.74,7.74,0,0,0,9.3-2.35,5.16,5.16,0,0,0,.62-1C257.38,20,257.47,19.86,257.47,19.85Z"/><path class="cls-9" d="M223.91,38.74a1.57,1.57,0,0,0,.48-.67,4.45,4.45,0,0,0,.29-2.2c-.13-2-1.82-4.15-2-6.91a6.54,6.54,0,0,1,.66-3.72,4.52,4.52,0,0,1,2.19-2,3.86,3.86,0,0,1,2-.29,3.85,3.85,0,0,0,.75.16,1.86,1.86,0,0,0-.71-.39,3.54,3.54,0,0,0-2.16.11A4.82,4.82,0,0,0,222.84,25a6.92,6.92,0,0,0-.77,4.05,11.88,11.88,0,0,0,1.14,3.92,12.62,12.62,0,0,1,1,3A5,5,0,0,1,223.91,38.74Z"/><path class="cls-10" d="M239.83,49a6.24,6.24,0,0,0,1.82,3.57,3.51,3.51,0,0,0,3.7.69,6.23,6.23,0,0,0,2.37-2.56Z"/><rect class="cls-3" x="58.64" y="120.36" width="222.02" height="92.13"/><path class="cls-4" d="M280.66,212.47V187.79c0-15.89-.06-38.89-.11-67.43l.19.2-222,.08h0l.27-.28v92.11l-.26-.27,159.15.13,46.2.08h.17l-46.14.07-159.33.14h-.26V119.94h.28l222,.08H281v.21c0,28.58-.07,51.67-.1,67.55v23A5.29,5.29,0,0,1,280.66,212.47Z"/><path class="cls-4" d="M184.54,169.46c0,.16-23.78.29-53.1.29s-53.1-.13-53.1-.29,23.77-.28,53.1-.28S184.54,169.3,184.54,169.46Z"/><path class="cls-4" d="M184.84,180.61c0,.17-23.91.29-53.4.29S78,180.78,78,180.61s23.91-.29,53.41-.29S184.84,180.46,184.84,180.61Z"/><polygon class="cls-5" points="85.05 137.07 87.42 142.13 92.74 142.94 88.89 146.88 89.8 152.44 85.05 149.82 80.31 152.44 81.21 146.88 77.37 142.94 82.68 142.13 85.05 137.07"/><polygon class="cls-5" points="102.62 137.07 104.99 142.13 110.3 142.94 106.45 146.88 107.36 152.44 102.62 149.82 97.87 152.44 98.78 146.88 94.93 142.94 100.24 142.13 102.62 137.07"/><polygon class="cls-5" points="120.18 137.07 122.55 142.13 127.87 142.94 124.02 146.88 124.93 152.44 120.18 149.82 115.44 152.44 116.33 146.88 112.5 142.94 117.81 142.13 120.18 137.07"/><polygon class="cls-2" points="137.74 137.07 140.12 142.13 145.43 142.94 141.58 146.88 142.49 152.44 137.74 149.82 133 152.44 133.91 146.88 130.06 142.94 135.37 142.13 137.74 137.07"/><polygon class="cls-2" points="155.31 137.07 157.68 142.13 163 142.94 159.15 146.88 160.06 152.44 155.31 149.82 150.57 152.44 151.46 146.88 147.63 142.94 152.94 142.13 155.31 137.07"/><path class="cls-2" d="M116,195.38c0,.16-8.2.28-18.32.28s-18.32-.12-18.32-.28,8.21-.29,18.32-.29S116,195.22,116,195.38Z"/><ellipse class="cls-5" cx="237.51" cy="170" rx="30" ry="31.58"/><path class="cls-4" d="M268.39,166.1c-.81-.7-2-.78-2.81-1.45-1.73-1.37-1.23-4.16-1.6-6.39-.4-2.44-2-4.46-3.23-6.6s-2.71-5.13-1.78-7.41l-16.88,32.58h26.48s.81-5.13.94-6.6S269.51,167,268.39,166.1Z"/><path class="cls-4" d="M233.32,133.74c.81-2.62,3.53-4.1,6.13-4.4s3.87.79,6.43.19c3.52-.84,5.56-2.09,7.89-1.7a10.43,10.43,0,0,1,6.65,3.37c1.39,1.68,1.45,5.65.86,7.81-.52,2-2,3.57-2.36,5.57s.24,3.74.63,5.59c1.17,5.55.26,11.76-3.23,16.09s-9.79,6.25-14.62,3.7"/><path class="cls-11" d="M247.65,187.64l-.15-8.11s7.66-1.18,9.4-11.64c.88-5.19.78-13.74.47-20.74-.27-6.29-6.6-12.69-12.53-12.09l-19.37,3.51v3.37L226,188a11.1,11.1,0,0,0,10.82,11.26h0c6,0,10.83-5.13,10.82-11.43Z"/><path class="cls-4" d="M254.07,153.53a1.3,1.3,0,0,1-1.26,1.33,1.25,1.25,0,0,1-1.29-1.21v0a1.33,1.33,0,0,1,1.26-1.34,1.25,1.25,0,0,1,1.3,1.21Z"/><path class="cls-4" d="M255.55,151.54c-.16.18-1.12-.59-2.49-.62s-2.39.69-2.54.51.1-.4.53-.73a3.42,3.42,0,0,1,2-.61,3.31,3.31,0,0,1,2,.71C255.48,151.17,255.63,151.54,255.55,151.54Z"/><path class="cls-4" d="M240.76,153.29a1.32,1.32,0,0,1-1.26,1.33,1.25,1.25,0,0,1-1.29-1.21v0a1.31,1.31,0,0,1,1.25-1.34,1.23,1.23,0,0,1,1.29,1.2Z"/><path class="cls-4" d="M242,151.54c-.17.18-1.12-.59-2.5-.62s-2.39.69-2.53.5.09-.39.54-.72a3.39,3.39,0,0,1,2-.62,3.25,3.25,0,0,1,2,.71C242,151.19,242.11,151.54,242,151.54Z"/><path class="cls-4" d="M246.84,162.4a8.15,8.15,0,0,1,2.24-.38c.36,0,.69-.1.75-.35a1.89,1.89,0,0,0-.22-1.1l-1-2.83a49.58,49.58,0,0,1-2.2-7.4,50.79,50.79,0,0,1,2.76,7.19c.33,1,.65,1.95.94,2.85a2.2,2.2,0,0,1,.17,1.45,1,1,0,0,1-.59.54,2.46,2.46,0,0,1-.6.07A9,9,0,0,1,246.84,162.4Z"/><path class="cls-12" d="M247.5,179.53a24.34,24.34,0,0,1-13.26-4s3.13,7.26,13.09,6.47Z"/><path class="cls-12" d="M246.2,165.83a2.44,2.44,0,0,0-2.2-1,2.23,2.23,0,0,0-1.57.86,1.53,1.53,0,0,0-.14,1.71,1.59,1.59,0,0,0,1.79.52,5.2,5.2,0,0,0,1.77-1.1,1.64,1.64,0,0,0,.4-.43.52.52,0,0,0,0-.54"/><path class="cls-4" d="M242.78,163.33c.22,0,.2,1.56,1.46,2.69s2.85,1,2.86,1.22-.36.3-1,.31a3.61,3.61,0,0,1-2.38-.93,3.49,3.49,0,0,1-1.13-2.26C242.51,163.7,242.68,163.32,242.78,163.33Z"/><path class="cls-4" d="M242.49,145.92c-.15.4-1.52.18-3.13.35s-2.94.62-3.14.27c-.08-.18.15-.54.68-.92a5,5,0,0,1,2.33-.81,4.93,4.93,0,0,1,2.43.35C242.26,145.43,242.55,145.73,242.49,145.92Z"/><path class="cls-4" d="M255.11,147.37c-.24.32-1.18,0-2.32-.07s-2.09.18-2.32-.17c-.1-.16.06-.49.48-.79a3,3,0,0,1,1.9-.51,3.16,3.16,0,0,1,1.85.7C255.1,146.88,255.22,147.22,255.11,147.37Z"/><path class="cls-4" d="M237,130a15,15,0,0,1-4.44,20.09l-.45.28a7.89,7.89,0,0,0-3,2.38c-.85,1.44-.49,3.3-.33,5a18.08,18.08,0,0,1-3.81,12.84c-1.9-3.89-3.82-7.84-4.65-12.09a42.06,42.06,0,0,0-1.32-6.48c-.44-1.23-1.09-2.37-1.48-3.63a12.16,12.16,0,0,1,.29-7.09c2.82-8.7,11.77-13.39,20.06-10.5"/><path class="cls-4" d="M219.64,137.25c-4.48,6.9-2.29,11.4-4,14.94-1.25,2.56-4.18,3.58-6.27,5.5-2.82,2.56-4,6.71-3.86,10.64s1.3,7.7,2.5,11.43l24.09.12c1.86-6.17-2.8-12.87-1.3-19.16.51-2.2,1.72-4.13,1.8-6.34a17.77,17.77,0,0,0-.74-4.35,20.53,20.53,0,0,1,1.12-12.17"/><path class="cls-9" d="M261.3,134.2a5.44,5.44,0,0,0-.54-.86,5.82,5.82,0,0,0-2.09-1.67,8,8,0,0,0-3.83-.73,16,16,0,0,0-4.72,1.09,44.51,44.51,0,0,1-4.64,1.62,11.2,11.2,0,0,1-4,.37,6.79,6.79,0,0,1-2.6-.76,6.9,6.9,0,0,1-.63-.42l-.2-.17a9.47,9.47,0,0,0,.87.49,7.19,7.19,0,0,0,2.57.67,11.48,11.48,0,0,0,3.91-.43c1.46-.39,3-1,4.63-1.64a16.2,16.2,0,0,1,4.79-1.1,8.21,8.21,0,0,1,3.92.81,5.58,5.58,0,0,1,2.09,1.8,4,4,0,0,1,.37.67A.8.8,0,0,1,261.3,134.2Z"/><path class="cls-9" d="M257.82,152l.22.16a1.47,1.47,0,0,1,.26.23c.11.12.21.24.31.37a6.19,6.19,0,0,1,1,2.83,15,15,0,0,1,.15,2.11v2.41a11,11,0,0,0,.28,2.62,4.94,4.94,0,0,0,1.28,2.38,13.06,13.06,0,0,0,2.28,1.51,4.78,4.78,0,0,1,1.84,1.89,6.78,6.78,0,0,1,.44,4.48,15.52,15.52,0,0,1-1,2.88c-.15.33-.26.57-.35.74a1.05,1.05,0,0,1-.13.26.71.71,0,0,1,.09-.28,7.26,7.26,0,0,0,.29-.77,16.85,16.85,0,0,0,.89-2.88,7.43,7.43,0,0,0,.14-2,5.56,5.56,0,0,0-.61-2.26,4.51,4.51,0,0,0-1.75-1.77,12.85,12.85,0,0,1-2.32-1.55,5,5,0,0,1-1.36-2.52,12.08,12.08,0,0,1-.28-2.68c0-.85,0-1.66.05-2.41a14.65,14.65,0,0,0-.12-2.09,6.13,6.13,0,0,0-1-2.79A9.63,9.63,0,0,0,257.82,152Z"/><path class="cls-9" d="M216.81,178.77l-.07-.13c-.07-.13-.1-.22-.18-.39-.14-.36-.35-.88-.57-1.59a16.55,16.55,0,0,1-.58-2.6,12.42,12.42,0,0,1,0-3.55,9.81,9.81,0,0,1,1.53-4,16.4,16.4,0,0,1,3.46-3.3,10.28,10.28,0,0,0,1.8-1.81,6.12,6.12,0,0,0,1.11-2.43,14.27,14.27,0,0,0-.25-5.71,24.25,24.25,0,0,1-.77-5.81,8,8,0,0,1,.58-2.74,7.26,7.26,0,0,1,1.51-2.19,12.57,12.57,0,0,1,4-2.57c1.34-.59,2.64-1.1,3.77-1.6a12.3,12.3,0,0,0,2.85-1.79,7.88,7.88,0,0,0,1.65-2,6,6,0,0,0,.64-1.53c.09-.38.11-.57.12-.57a3.83,3.83,0,0,1-.07.58,5.54,5.54,0,0,1-.6,1.57,7.64,7.64,0,0,1-1.65,2,12.13,12.13,0,0,1-2.87,1.85c-1.13.55-2.42,1-3.76,1.63a12.71,12.71,0,0,0-3.92,2.54,6.79,6.79,0,0,0-1.43,2.11,7.52,7.52,0,0,0-.55,2.65,23.94,23.94,0,0,0,.76,5.72,14.42,14.42,0,0,1,.24,5.85,6.35,6.35,0,0,1-1.16,2.53,11.56,11.56,0,0,1-1.85,1.85,16.71,16.71,0,0,0-3.43,3.29,9.82,9.82,0,0,0-1.53,3.89,14.06,14.06,0,0,0,.47,6.08c.2.7.39,1.23.52,1.59l.16.41A.27.27,0,0,1,216.81,178.77Z"/><path class="cls-9" d="M237.18,132.49h-.63c-.42,0-1.05-.11-1.84-.15a19.56,19.56,0,0,0-6.67.77,13.31,13.31,0,0,0-4.18,2.2,11.39,11.39,0,0,0-3.32,4.28,14.83,14.83,0,0,0-.91,6.06,34,34,0,0,1-.22,6.69,9.57,9.57,0,0,1-1.12,3.22,7.69,7.69,0,0,1-2.24,2.37c-1.73,1.21-3.62,1.93-5.06,3.21a8.25,8.25,0,0,0-2.56,4.73,11.91,11.91,0,0,0,.1,4.83,16,16,0,0,0,1.37,3.76,26.86,26.86,0,0,0,1.49,2.62c.45.69.82,1.22,1.05,1.57l.28.41c.05.1.08.14.08.15l-.11-.13-.31-.38c-.25-.35-.63-.87-1-1.56a25.11,25.11,0,0,1-1.55-2.6,16.94,16.94,0,0,1-1.41-3.79,12,12,0,0,1-.13-4.93,8.47,8.47,0,0,1,2.62-4.89c1.47-1.31,3.37-2.05,5.07-3.23a7.33,7.33,0,0,0,2.15-2.28,9.5,9.5,0,0,0,1.09-3.12,35.52,35.52,0,0,0,.22-6.6,15.24,15.24,0,0,1,.95-6.17,11.31,11.31,0,0,1,3.42-4.39,12.81,12.81,0,0,1,4.18-2.2,18.9,18.9,0,0,1,6.73-.7,12.24,12.24,0,0,1,1.82.19l.48.08Z"/><path class="cls-9" d="M224.48,179.87a6.49,6.49,0,0,0,1.58-1.19,7.17,7.17,0,0,0,1.27-2,9.34,9.34,0,0,0,.71-3.08,12.72,12.72,0,0,0-.35-3.84,43.37,43.37,0,0,0-1.31-4.24,37.32,37.32,0,0,1-1.4-4.74,12.65,12.65,0,0,1,0-5.34A8.24,8.24,0,0,1,226,153a12.12,12.12,0,0,1,1.65-2,47.39,47.39,0,0,1,3.71-3.07,17.76,17.76,0,0,0,3.13-3,13.59,13.59,0,0,0,1.87-3.3,14.28,14.28,0,0,0,1-5.5,4.8,4.8,0,0,0-.05-.88c0-.21,0-.43-.06-.64l-.06-.4v-.13a10.1,10.1,0,0,1,.27,2.05,14.28,14.28,0,0,1-.89,5.5,13.56,13.56,0,0,1-1.87,3.4,17.21,17.21,0,0,1-3.14,3.07,47.58,47.58,0,0,0-3.67,3.06,11.6,11.6,0,0,0-1.61,2,7.93,7.93,0,0,0-1.05,2.4,12,12,0,0,0,0,5.2,36.16,36.16,0,0,0,1.37,4.7,39.77,39.77,0,0,1,1.29,4.28,12.78,12.78,0,0,1,.33,3.9,9.89,9.89,0,0,1-.76,3.14,7.16,7.16,0,0,1-1.34,2,5.17,5.17,0,0,1-1.18.91l-.34.17Z"/><path class="cls-4" d="M238.22,137c2.55,1.88,5.37,3.84,8.47,3.61A21.44,21.44,0,0,0,252,139c1.76-.61,3.8-.9,5.36.12,1.05-.09,1.5-1.54,1.05-2.5a4,4,0,0,0-2.42-1.83c-5.57-2-11.14.26-17.41.69"/><path class="cls-9" d="M261.07,138.72a3.41,3.41,0,0,0,.21-1.1,2.84,2.84,0,0,0-1.32-2.39,3.69,3.69,0,0,0-1.79-.56,5.23,5.23,0,0,0-2.14.38c-1.48.51-2.88,1.64-4.58,2.38a9.73,9.73,0,0,1-2.56.79,10.35,10.35,0,0,1-2.48.2,11.26,11.26,0,0,1-4.12-.87,10.24,10.24,0,0,1-2.49-1.41c-.2-.16-.4-.33-.59-.51a1.26,1.26,0,0,1-.2-.2,13.73,13.73,0,0,0,3.35,1.94,12.05,12.05,0,0,0,6.48.59,11.23,11.23,0,0,0,2.51-.78c1.66-.74,3.07-1.86,4.59-2.39a5.78,5.78,0,0,1,2.25-.36,3.87,3.87,0,0,1,1.88.63,3,3,0,0,1,1,1.3,2.9,2.9,0,0,1,.24,1.27,2.38,2.38,0,0,1-.17.79A1,1,0,0,1,261.07,138.72Z"/></g><g id="freepik--Character--inject-3"><path class="cls-4" d="M380.51,189.16a11.24,11.24,0,0,0,13.91-8.28,12.31,12.31,0,0,0,.41-3.47c-.07-3.45-1.56-7-.53-10.25.7-2.25,2.49-4,3.13-6.3.9-3.4-1-6.86-2.93-9.79a22.58,22.58,0,0,0-4.1-5.25,7.18,7.18,0,0,0-6-1.87"/><path class="cls-4" d="M350.25,144.26c.19,2.61-1.45,4.94-3.14,6.9s-3.48,4-3.84,6.59c-.63,4.59,3.64,8.8,2.76,13.38-.47,2.43-2.36,4.4-2.71,6.84s.89,4.71,2.39,6.52,3.33,3.3,4.65,5.27c0,0,2.76,4.77,11.27,1.71"/><path class="cls-4" d="M388.31,148.24c.07-2.36-2-4.19-4.1-5.05s-4.41-1.19-6.27-2.51c-1.65-1.17-2.76-3-4.18-4.49a13.35,13.35,0,0,0-19.56-.12,14.74,14.74,0,0,0-3.69,6.81c-.81,3.36-.26,7.34,2.27,9.57,2.92,2.61,7.26,2,11,1.22s8-1.6,11.12.71c1.89,1.4,3,3.67,4.13,5.78s2.6,4.24,4.78,5,5.14-.58,5.22-3"/><path class="cls-6" d="M379.45,148.74a3.86,3.86,0,0,1,3.37,4h0l-2.24,53.42c-.09,6.31-8.86,9.9-15.27,9.7h0c-6.49-.15-6.69-3.51-6.78-9.51-.13-10-.11-13.79-.12-13.73s-8.19-1.45-9.86-12.7c-.83-5.6-.55-14.77-.08-22.27.42-6.74,4.68-15,11.06-14.29Z"/><path class="cls-4" d="M350.44,164.49a1.41,1.41,0,0,0,1.32,1.46,1.33,1.33,0,0,0,1.41-1.28h0a1.41,1.41,0,0,0-1.31-1.47,1.34,1.34,0,0,0-1.42,1.27Z"/><path class="cls-4" d="M350.34,161.71c.17.19,1.2-.62,2.68-.6s2.56.78,2.71.59-.09-.42-.56-.78a3.67,3.67,0,0,0-2.17-.72,3.38,3.38,0,0,0-2.09.73C350.44,161.29,350.26,161.63,350.34,161.71Z"/><path class="cls-4" d="M365.16,165a1.42,1.42,0,0,0,1.32,1.47,1.34,1.34,0,0,0,1.42-1.27v0a1.41,1.41,0,0,0-1.33-1.46,1.32,1.32,0,0,0-1.4,1.25Z"/><path class="cls-4" d="M364.83,162.77c.17.18,1.21-.62,2.69-.61s2.55.78,2.71.59-.09-.42-.56-.79a3.66,3.66,0,0,0-2.18-.7,3.51,3.51,0,0,0-2.14.71C364.9,162.34,364.75,162.68,364.83,162.77Z"/><path class="cls-4" d="M359.45,174.27a8.89,8.89,0,0,0-2.39-.47c-.38,0-.73-.12-.8-.39a2.3,2.3,0,0,1,.26-1.18l1.12-3a55.58,55.58,0,0,0,2.52-7.88c-.17-.07-1.57,3.36-3.13,7.69-.37,1.1-.73,2.07-1,3a2.36,2.36,0,0,0-.2,1.55,1,1,0,0,0,.62.58,2.31,2.31,0,0,0,.64.1A9.26,9.26,0,0,0,359.45,174.27Z"/><path class="cls-7" d="M358.4,192.63a26.15,26.15,0,0,0,14.32-4s-3.63,7.69-14.32,6.59Z"/><path class="cls-7" d="M360.07,178a2.62,2.62,0,0,1,2.39-1,2.39,2.39,0,0,1,1.67,1,1.69,1.69,0,0,1,.12,1.84,1.75,1.75,0,0,1-1.95.51,5.5,5.5,0,0,1-1.88-1.19,1.86,1.86,0,0,1-.42-.46.58.58,0,0,1,0-.57"/><path class="cls-4" d="M364.17,160.05c.15.42,1.62.22,3.35.45s3.13.72,3.36.34c.1-.17-.14-.58-.7-1a5.62,5.62,0,0,0-5.12-.61C364.43,159.51,364.11,159.84,364.17,160.05Z"/><path class="cls-4" d="M350.89,158c.26.35,1.27,0,2.49,0s2.26.24,2.5-.13c.1-.18,0-.53-.51-.86a3.22,3.22,0,0,0-2-.58,3.33,3.33,0,0,0-2,.7C350.92,157.42,350.77,157.77,350.89,158Z"/><path class="cls-4" d="M386.92,185.73a9.51,9.51,0,0,1-11.17-7.83,10.47,10.47,0,0,1-.12-3.16c.34-2.76,1.75-5.56.84-8.18-1.2-3.46-5.81-4.52-7-8-.71-2-.08-4.4-.88-6.31s-2.6-2.92-4.4-3.6-3.72-1.1-5.22-2.4-2.45-3.56-1.47-5.28a96.15,96.15,0,0,1,23.34,6c1.75.68,3.57,1.5,4.61,3.13s1,4,.95,6L385,186.43"/><path class="cls-9" d="M392.56,149.19a.85.85,0,0,1,.18.46,1.74,1.74,0,0,1-.41,1.35,2.58,2.58,0,0,1-1.91,1,5.91,5.91,0,0,1-2.7-.85,7.34,7.34,0,0,0-3.14-1,15,15,0,0,0-3.77.36,23.57,23.57,0,0,1-4.27.57,6,6,0,0,1-4.37-1.67,13.43,13.43,0,0,1-2.52-4.11,20.33,20.33,0,0,0-2-3.86,5.8,5.8,0,0,0-6.16-2.37,6.28,6.28,0,0,0-3.72,2.9,14,14,0,0,0-.79,1.66,1.36,1.36,0,0,1,.08-.49,6,6,0,0,1,.52-1.29,6.32,6.32,0,0,1,3.8-3.18,5.93,5.93,0,0,1,3.44.07,6.5,6.5,0,0,1,3.24,2.36,21.29,21.29,0,0,1,2.09,3.95,13.21,13.21,0,0,0,2.41,3.93,5.39,5.39,0,0,0,4,1.53,24.64,24.64,0,0,0,4.18-.53,15.35,15.35,0,0,1,3.88-.32,7.62,7.62,0,0,1,3.26,1.1,5.81,5.81,0,0,0,2.53.91,2.52,2.52,0,0,0,1.76-.84,1.76,1.76,0,0,0,.47-1.2A3.57,3.57,0,0,0,392.56,149.19Z"/><path class="cls-4" d="M386.58,146a8.28,8.28,0,0,1-5.88-9.9,8,8,0,0,1,6.27-6.27,4.62,4.62,0,0,1,4.69,1.55c1,1.4.91,3.5,2.16,4.64s3.38.69,5.12,1.1a6.11,6.11,0,0,1,4.17,6.6,8.18,8.18,0,0,1-4.94,6.41,11.76,11.76,0,0,1-8.06.16,29.92,29.92,0,0,1-7.38-3.77"/><path class="cls-9" d="M399.43,137.83a5.39,5.39,0,0,1-.79,2.06,10.87,10.87,0,0,1-8.43,5.49,4.63,4.63,0,0,1-2.09-.16c0-.1.81,0,2.09-.24a12.32,12.32,0,0,0,4.6-1.8,12.6,12.6,0,0,0,3.54-3.55A20.41,20.41,0,0,1,399.43,137.83Z"/><path class="cls-5" d="M393.77,150.26a16.71,16.71,0,0,0-11.5-6.92,4.68,4.68,0,0,1,2,0,13.13,13.13,0,0,1,8.38,5.07A5.21,5.21,0,0,1,393.77,150.26Z"/><path class="cls-4" d="M365.15,176.63a6.75,6.75,0,0,1-2.67,2.28,7.12,7.12,0,0,1-3.25,1.19,22.58,22.58,0,0,1,3-1.7A28.14,28.14,0,0,1,365.15,176.63Z"/><path class="cls-5" d="M392.76,149a1.16,1.16,0,0,1,.4-.16,8.06,8.06,0,0,1,1.18-.27,11.85,11.85,0,0,1,4.44.15,9.39,9.39,0,0,1,2.91,1.16,1.9,1.9,0,0,1,.84,1.74,1.5,1.5,0,0,1-.54.95,2.37,2.37,0,0,1-.93.42,6.44,6.44,0,0,1-2,0,14.63,14.63,0,0,1-2-.34,14.06,14.06,0,0,1-2-.66,4.15,4.15,0,0,1-1.8-1.39,3.1,3.1,0,0,1-.43-2.32c.12-.76.31-1.43.47-2.12a13.88,13.88,0,0,1,1.42-3.86,2.49,2.49,0,0,1,1.56-1.23,1.51,1.51,0,0,1,1.69.81,2.57,2.57,0,0,1-.09,1.81,11.79,11.79,0,0,1-.64,1.4,10.83,10.83,0,0,1-3,3.51,11.63,11.63,0,0,1-1.05.67c-.25.12-.38.19-.39.17s.49-.33,1.29-1a11.63,11.63,0,0,0,2.76-3.5,9.35,9.35,0,0,0,.58-1.38,2.07,2.07,0,0,0,.08-1.45,1,1,0,0,0-1.2-.5,2,2,0,0,0-1.23,1,14.58,14.58,0,0,0-1.32,3.7c-.26,1.35-.9,2.87-.11,4a6.05,6.05,0,0,0,3.47,1.83,13.93,13.93,0,0,0,1.91.35,6,6,0,0,0,1.8,0,1.25,1.25,0,0,0,1.11-.92,1.49,1.49,0,0,0-.63-1.29,9.43,9.43,0,0,0-2.74-1.1,12.63,12.63,0,0,0-4.33-.33C393.34,148.87,392.77,149,392.76,149Z"/><path class="cls-9" d="M381.77,142.74a.68.68,0,0,1-.14.33,3.2,3.2,0,0,1-.69.77,4.53,4.53,0,0,1-3.53.83,8.87,8.87,0,0,1-4.63-2.9c-1.45-1.49-2.79-3.4-4.75-4.58a8,8,0,0,0-10.42,2.1,9.53,9.53,0,0,0-1.63,3.3c-.23.85-.28,1.34-.32,1.34s0-.13,0-.36a7.21,7.21,0,0,1,.13-1,8.81,8.81,0,0,1,6-6.65,8.4,8.4,0,0,1,6.53.84c2.09,1.26,3.45,3.23,4.85,4.69a8.5,8.5,0,0,0,4.33,2.87,4.29,4.29,0,0,0,3.34-.6A6,6,0,0,0,381.77,142.74Z"/><path class="cls-5" d="M341,213.9s-7.52,5-8.41,17.35-3.46,38.22-3.46,38.22l-28.7,7.41L303.6,295l47.34-13.9Z"/><path class="cls-5" d="M381.61,199.52l4.69,5.62s12.21,3.05,14.86,4.24S397,236.87,397,236.87l1,54a6.66,6.66,0,0,1-6.34,6.94,5.56,5.56,0,0,1-.71,0l-46.39-4.35-4-61,.39-18.63,11.07-4,6.39-6.66,5.06,11.95Z"/><path class="cls-5" d="M401.16,209.38s9.45,3.82,10.26,18.83c.53,9.89,3.82,26.75,6,37.12a23.34,23.34,0,0,1-2.88,16.95h0a21.07,21.07,0,0,1-17,10.28l-20.1.94L369,279.28l22.53-6.91,5.35-34.2Z"/><path class="cls-4" d="M405.22,280.57c-.12-.54-.21-1.09-.28-1.64a20.72,20.72,0,0,0-1.19-4.33,11.65,11.65,0,0,0-3.84-5.13,7.93,7.93,0,0,0-3.37-1.45,10.62,10.62,0,0,0-3.93.2,113.1,113.1,0,0,0-13.72,4l-4.09,1.46a9.38,9.38,0,0,1-1.54.46,8.34,8.34,0,0,1,1.46-.67l4-1.64a97.9,97.9,0,0,1,13.75-4.14,11.1,11.1,0,0,1,4.18-.19,8.47,8.47,0,0,1,3.56,1.58,11.89,11.89,0,0,1,3.91,5.4,18.35,18.35,0,0,1,1,4.45A6.3,6.3,0,0,1,405.22,280.57Z"/><path class="cls-4" d="M392.52,238.22a4.13,4.13,0,0,1,.17,1.1c.07.72.14,1.76.2,3.05.11,2.7.27,6.18.43,10a80.1,80.1,0,0,0,1,9.89c.46,2.51.95,4,.86,4.05a3.91,3.91,0,0,1-.42-1,8.64,8.64,0,0,1-.39-1.25c-.14-.48-.29-1.1-.43-1.68a63,63,0,0,1-1.22-10c-.2-3.93-.23-7.48-.26-10v-3A4.88,4.88,0,0,1,392.52,238.22Z"/><path class="cls-4" d="M412.57,285.82a8.42,8.42,0,0,1-1.05,1.1,25.53,25.53,0,0,1-3.32,2.56,27.38,27.38,0,0,1-12.9,4.27,25.52,25.52,0,0,1-7.49-.6c-2.27-.5-4.18-1.36-5.85-1.77a26.23,26.23,0,0,0-4-.59,5,5,0,0,1-1.48-.32s.54,0,1.5.1a21.87,21.87,0,0,1,4.11.42c1.72.37,3.64,1.19,5.87,1.65a26.39,26.39,0,0,0,7.31.54A28.5,28.5,0,0,0,408,289.13,53,53,0,0,0,412.57,285.82Z"/><path class="cls-4" d="M386,256.75a7.79,7.79,0,0,1-.89,1.22,39.48,39.48,0,0,1-2.71,3.06,50.5,50.5,0,0,1-4.45,4.08,57.11,57.11,0,0,1-6,4.2,53.86,53.86,0,0,1-6.52,3.3,51.58,51.58,0,0,1-5.62,1.9,34.58,34.58,0,0,1-3.89.85,7.1,7.1,0,0,1-1.45.18,6.85,6.85,0,0,1,1.41-.39c.91-.2,2.22-.54,3.82-1a54.68,54.68,0,0,0,5.54-2,61.21,61.21,0,0,0,6.45-3.3,62.5,62.5,0,0,0,6-4.12c1.74-1.41,3.27-2.75,4.49-3.95s2.17-2.2,2.81-2.92A7.59,7.59,0,0,1,386,256.75Z"/><g class="cls-13"><path d="M357.36,274.49c-1.29-1.1-.5-3.52,1-4.4s3.25-.66,4.92-.71a18.29,18.29,0,0,0,11.43-4.5c2.37-2.07,4.5-4.89,7.55-5.31-.7,2.62-3.71,5.18-5.83,6.76-6.15,4.57-12.93,6.29-20.07,8.89"/></g><path class="cls-4" d="M385.26,205.76a4.64,4.64,0,0,1-.72.81c-.49.49-1.2,1.19-2.09,2-1.78,1.72-4.27,4-7,6.6a20.74,20.74,0,0,1-4.18,3.3,6.57,6.57,0,0,1-2.23.73,4.67,4.67,0,0,1-2-.26,3.8,3.8,0,0,1-2.25-1.9,2.15,2.15,0,0,1-.25-.79.76.76,0,0,1,0-.3s.1.4.43,1a3.78,3.78,0,0,0,2.2,1.63,4.54,4.54,0,0,0,1.87.16,6.26,6.26,0,0,0,2.09-.72,22.07,22.07,0,0,0,4.05-3.3c2.77-2.55,5.3-4.84,7.14-6.48.92-.81,1.68-1.46,2.21-1.9A4.12,4.12,0,0,1,385.26,205.76Z"/><path class="cls-4" d="M362.11,215.71a5.63,5.63,0,0,1-1.52,1.9,10.74,10.74,0,0,1-2.09,1.52,2,2,0,0,1-1.63.31,2.45,2.45,0,0,1-1.14-1.42c-.93-2.1-1.73-4-2.3-5.43a10.3,10.3,0,0,1-.81-2.3,11,11,0,0,1,1.16,2.14c.65,1.35,1.52,3.3,2.45,5.34.22.52.47,1,.83,1.1a1.53,1.53,0,0,0,1.22-.27,11.94,11.94,0,0,0,2.09-1.37C361.48,216.41,362,215.64,362.11,215.71Z"/><path class="cls-4" d="M362.19,240.13c-.15,0,0-5.58.32-12.44s.72-12.42.87-12.41,0,5.57-.33,12.43S362.33,240.14,362.19,240.13Z"/><path class="cls-4" d="M342.19,237.6a22.18,22.18,0,0,1,0-6.9A21.58,21.58,0,0,1,342.19,237.6Z"/><path class="cls-14" d="M382.88,216.05l.09,0A.11.11,0,0,0,382.88,216.05Z"/><path class="cls-14" d="M384.71,216.58h0c.09,0,0,0,.1.06s.14,0,.17,0h.13a7.27,7.27,0,0,0,1,.17h0a.12.12,0,0,1,.12.08h.86a.34.34,0,0,0,.2,0h0a4.48,4.48,0,0,0,.62-.11H388v.09h1c.06,0,0,.06,0,.06h.09v-.08h-.06s0-.07.1-.06h.37a.59.59,0,0,0,.27-.06,4.86,4.86,0,0,0,.07-1h-.1a.21.21,0,0,1-.11,0h0c-.08,0-.12.05-.21,0h-.28l-1.2.06h-1.62a6.06,6.06,0,0,1-1-.15,1.41,1.41,0,0,1-.29,0h0c-.09,0-.6-.13-.71-.14h0c-.09,0-.07,0-.14-.07s-.09.06-.12,0h-.46a1.29,1.29,0,0,0-.38-.12l-.08-.1h0s-.35.77-.21,1H383s0,0,0,.06a5.82,5.82,0,0,0,.84.25h.25A3.35,3.35,0,0,1,384.71,216.58Z"/><path class="cls-14" d="M383.48,220.7h0Z"/><path class="cls-14" d="M384.81,221.06h0c.07,0,0,.06.08,0s.09,0,.11,0h0a3.81,3.81,0,0,0,.75.07h0a.1.1,0,0,1,.1.07h.61a.2.2,0,0,0,.15,0h0a1.38,1.38,0,0,0,.43-.15h.05v.09l.73-.11v.05h.06V221H388a.07.07,0,0,1,.07-.07,1.22,1.22,0,0,0,.27,0h0a.22.22,0,0,0,.18-.09,4.68,4.68,0,0,0-.1-1h-.07c-.07,0-.09.07-.15,0h-.19c-.14,0-.68.16-.82.17h0a5.31,5.31,0,0,0-.87.11h-.24a2.55,2.55,0,0,1-.73-.06h-.2l-.49-.06h-.11s-.06.05-.08.05h-.31s-.18-.1-.27-.09l-.06-.07h0s-.29.79-.2,1h.08a2.61,2.61,0,0,0,.61.16h.18Z"/><path class="cls-14" d="M381.86,228.15a0,0,0,0,0,.07,0A.09.09,0,0,0,381.86,228.15Z"/><path class="cls-14" d="M383.31,228.19h1c.06,0,.07,0,.1.07h.15c.16,0,.11-.06.15,0H385a.38.38,0,0,0,.15,0h0a1.62,1.62,0,0,0,.46-.14h0v.1a7.55,7.55,0,0,1,.78-.06m0,.06h.06v-.08h.06s0-.06.08,0a1.22,1.22,0,0,0,.27,0h0a.43.43,0,0,0,.21,0,5.5,5.5,0,0,0,.07-1H387a.14.14,0,0,1-.09,0h-.38c-.17,0-.82.07-1,.09h0a6.46,6.46,0,0,0-1,.11.17.17,0,0,0-.14,0h-.14a6,6,0,0,1-.85,0h-.94c-.06,0-.05.06-.08.07h0l-.18.06H382a.62.62,0,0,0-.33,0l-.07-.07h0s-.08.85.08,1h.93a1.14,1.14,0,0,1,.67-.19Z"/><path class="cls-14" d="M382.82,235h0Z"/><path class="cls-14" d="M384,234.84h.18s.56-.08.67-.11,0,0-.07,0h0a.13.13,0,0,1,.11.06h0c.11,0,0,0,.13,0s.09-.06.13,0h.05c.05,0,.06,0,0-.06s.06,0,0,0h.19a.17.17,0,0,0,.12-.05h0a.84.84,0,0,0,.37-.2h0v.09a5.71,5.71,0,0,1,.67-.13h.05v-.08h.05a.07.07,0,0,1,.07-.07H387s.12,0,.16-.07a5.37,5.37,0,0,0-.07-1H387c-.07,0-.09.06-.15,0h-.2a6,6,0,0,0-.81.2h0a6.24,6.24,0,0,0-.85.22.13.13,0,0,0-.12,0h0l-.11.05a4.48,4.48,0,0,1-.72.11c-.05.06-.14,0-.19.08h0a2.21,2.21,0,0,0-.49.09h-.1c-.06,0,0,.07-.07.08h0l-.14.09h0a.44.44,0,0,1-.16.06.42.42,0,0,0-.27,0l-.07-.06h0s0,.84.21,1h.05a3.72,3.72,0,0,0,.57-.08h.16A1.24,1.24,0,0,1,384,234.84Z"/><path class="cls-14" d="M382.19,241.86h0Z"/><path class="cls-14" d="M383.41,241.83h.18a3.75,3.75,0,0,0,.67,0h-.06a.11.11,0,0,1,.09.06h.14c.13,0,.08-.07.11-.06h.37c0-.05.33-.12.37-.18h0v.09s.58-.09.66-.09m0,.06H386v-.08h0a.06.06,0,0,1,.07-.06h.23s.13,0,.17-.07a6.54,6.54,0,0,0,0-1H386c-.14,0-.67.11-.82.13h0a3.9,3.9,0,0,0-.87.16h-.23a2.92,2.92,0,0,1-.72.06.26.26,0,0,0-.19.06h0a1.67,1.67,0,0,0-.49.05h-.11c-.05,0,0,.08-.07.09h0l-.14.07h-.16a.42.42,0,0,0-.27,0l-.07-.07h0a2.94,2.94,0,0,0,.14,1h.06a5.23,5.23,0,0,0,.56,0h.16a.87.87,0,0,1,.63-.24Z"/><path class="cls-14" d="M382.33,247.7h0Z"/><path class="cls-14" d="M383.6,248.05h0s0,.06.06.06h.12a4.15,4.15,0,0,0,.7.15v0h0s.06,0,.07.09h1.12v.07a5.22,5.22,0,0,1,.71.13c.09.05,0,0,0,.06s0,0,.06,0h0v-.08h0s0,0,.09,0H387a5.78,5.78,0,0,0,.28-.94h-.05c-.08,0,0,0,0-.06s-.06,0-.08,0h-.35l-.88-.12h0a7,7,0,0,0-.92-.12.21.21,0,0,0-.12-.05h-.14A4.55,4.55,0,0,1,384,247h-.21c-.07,0-.45-.1-.52-.1h0c-.08,0-.07,0-.12,0s-.06.06-.08.06h-.35a.67.67,0,0,0-.28-.06v-.09h0s-.25.8-.15,1h.07a5.66,5.66,0,0,0,.59.15h.17A1.13,1.13,0,0,1,383.6,248.05Z"/><path class="cls-14" d="M383.12,253.89a.09.09,0,0,0,.07,0Z"/><path class="cls-14" d="M384.44,253.79h.95c.06,0,.06,0,.08.07h.15c.14,0,.1-.06.13,0h.44c.06,0,.38,0,.44-.09h0v.09a4.43,4.43,0,0,1,.72.09V254h.06v-.08h0s0,0,.09,0l.25.06h.2l.32-.93h0s0,0,0-.06-.06,0-.1,0h-.38c-.17,0-.82-.09-1-.1h0a9.2,9.2,0,0,0-1,0h-.27a6,6,0,0,1-.85,0,.31.31,0,0,0-.23.07h0a5.51,5.51,0,0,0-.57.06h-.13c-.05,0,0,.08-.07.09h0a.68.68,0,0,1-.17.08h0a.34.34,0,0,1-.17.05.86.86,0,0,0-.32,0h-.08s.06.85.24,1h.1a2.32,2.32,0,0,0,.61-.07H384A.93.93,0,0,1,384.44,253.79Z"/><path class="cls-14" d="M384.14,263.46a.09.09,0,0,0,.07,0Z"/><path class="cls-14" d="M385.25,262.91h.08c.07,0,.08,0,.08-.08h0s.5-.26.58-.33,0,0-.07,0h.1c.1-.09,0,0,.12-.08s.06-.09.09-.09h0s.07,0,0-.06.07,0,0,0h0s.09,0,.1-.07h.07l.11-.08h0c0-.07.26-.25.28-.32h0v.09a5.83,5.83,0,0,1,.57-.36h0v0h0l-.06-.06h0v-.08l.21-.11h0a.41.41,0,0,0,.13-.15,6.83,6.83,0,0,0-.37-.9h0v-.05h-.06c-.06,0-.05.08-.11.08h-.18c-.12.07-.58.39-.7.47h0c-.18.13-.56.35-.73.5s-.08,0-.11,0h0l-.1.09a3.63,3.63,0,0,1-.64.36c0,.07-.11.08-.14.12h0c-.05.06-.38.21-.44.26h0c0,.05-.05,0-.11,0s0,.08,0,.1h0a1.13,1.13,0,0,1-.1.13h0a.26.26,0,0,1-.13.08.69.69,0,0,0-.25.14h-.09s.3.78.5.88h.05a5.12,5.12,0,0,0,.52-.27h0l.13-.1h0Z"/><path class="cls-14" d="M385,267.59h0s.06,0,.06,0h0a2.94,2.94,0,0,0,.42,0h0l.06.07h.09c.08,0,0-.06.07,0h.19s.21-.09.23-.15h0v.09a2.94,2.94,0,0,1,.42,0h0v-.07h0v-.07H387a.12.12,0,0,0,.11-.07c0-.06,0-.92,0-1h-.21c-.09,0-.43.07-.51.08h0a3.1,3.1,0,0,0-.53.1h-.15a1.14,1.14,0,0,1-.45,0h-.48a.11.11,0,0,1,0,.08h0a.47.47,0,0,1-.09.06h0a.09.09,0,0,1-.1,0h-.16l-.06-.06h0a4.29,4.29,0,0,0,.12,1H385Z"/><g class="cls-15"><path class="cls-10" d="M369.76,223.73h0Z"/><path class="cls-10" d="M370.73,223.79h0s0,.05.06,0,.07,0,.08,0h0a4.51,4.51,0,0,0,.52,0h-.05a.08.08,0,0,1,.07.06h.11c.1,0,.06-.06.09,0h0s.05,0,0,0h.15a.18.18,0,0,0,.09-.06h0c0-.05.24-.14.26-.21h0v.09c.07,0,.43-.16.49-.17h0v-.07h0v-.08l.18-.05h0a.12.12,0,0,0,.11-.1,5.06,5.06,0,0,0-.29-.93h0m0-.06h0s0,.07-.08,0h-.13l-.53.23h0c-.14.07-.44.14-.58.21s0,0-.09,0h-.08a1.4,1.4,0,0,1-.5,0s-.1,0-.13.06h-.42c-.07,0,0,.06,0,.07h0a.24.24,0,0,1-.11.06h0a.24.24,0,0,1-.12,0c-.05,0-.12-.06-.19,0v-.07h0a3.42,3.42,0,0,0,0,1h0a1.62,1.62,0,0,0,.44,0h.13l.52.06Z"/></g><g class="cls-15"><path class="cls-10" d="M370.18,228.5h0c0-.05.05,0,.07,0h0a1.78,1.78,0,0,0,.45.08v-.05h0l.05.08H371a.09.09,0,0,0,.1,0h0s.24,0,.27-.08h0v.08a3.38,3.38,0,0,1,.45,0v.06h0v-.08h0s0-.06.05,0h.28a7.75,7.75,0,0,0,.17-1h-1.61a1.33,1.33,0,0,1-.48-.07h-.13s-.29-.06-.34,0h-.07a.06.06,0,0,1-.05.06h-.21c-.06,0-.13-.06-.19,0v-.07h0a4.27,4.27,0,0,0-.09,1h0a2.74,2.74,0,0,0,.39.09h.11Z"/></g><g class="cls-15"><path class="cls-10" d="M370.57,233.28h0Z"/><path class="cls-10" d="M371.55,233.34h.14a2.44,2.44,0,0,0,.54,0h-.06a.09.09,0,0,1,.08.07h0c.09-.06,0,0,.1,0s.06-.06.1,0h.24a1.15,1.15,0,0,0,.28-.19h0v-.32a4.84,4.84,0,0,1,.51-.14v.05h0v-.07h0v-.07l.19,0h0a.11.11,0,0,0,.11-.09,7.59,7.59,0,0,0-.21-1h0v-.05c0-.06-.05,0,0,0h0c-.05,0-.05.06-.09.05h-.14l-.57.19h0c-.15.05-.46.11-.61.17s-.06,0-.09,0H372a1.57,1.57,0,0,1-.53,0h-.58a.11.11,0,0,1,0,.08h0l-.12.07h-.31l-.05-.07h0a3.49,3.49,0,0,0,0,1H371Z"/></g><g class="cls-15"><path class="cls-10" d="M370.35,241.46a.09.09,0,0,0-.07,0Z"/><path class="cls-10" d="M371.33,241.16h.14a3.06,3.06,0,0,0,.58-.2h0c.09-.08,0,0,.11,0s.07-.08.1-.08h0s.06,0,0,0,.06,0,0,0h0s.08,0,.09-.06h.08a.18.18,0,0,0,.09-.06h0c0-.06.26-.19.29-.25h0v.08a5.33,5.33,0,0,1,.57-.22h0v-.06h0v-.07l.19-.07h0a.14.14,0,0,0,.14-.11,6.43,6.43,0,0,0-.23-1h0V239c0-.05-.05,0-.05,0h0s0,.06,0,0h0c-.07,0-.07.07-.13.06h-.17a4.19,4.19,0,0,0-.69.31h0a5.76,5.76,0,0,0-.72.33h-.1l-.08.06a2.39,2.39,0,0,1-.62.21c0,.06-.12.06-.16.1h0l-.42.15h-.1c-.05,0,0,.08,0,.09h0l-.11.1h0l-.13.08a.5.5,0,0,0-.24.06h-.07a3.11,3.11,0,0,0,.36,1h.05l.5-.14h0l.12-.07h0A1.36,1.36,0,0,1,371.33,241.16Z"/></g><g class="cls-15"><path class="cls-10" d="M369.4,249.24h.06A.06.06,0,0,0,369.4,249.24Z"/><path class="cls-10" d="M370.82,249.39h0c.06,0,0,.06.08,0s.1,0,.11,0h0a5.16,5.16,0,0,0,.79-.06h0c.05,0,.07,0,.1,0h0c.14-.06,0,0,.16,0s.1-.06.14,0h.42c0-.06.37-.17.42-.23h0v.09l.73-.22V249l.05-.05h0v-.07h.06s0-.07.06-.08l.25-.08h0a.8.8,0,0,0,.18-.13,5,5,0,0,0-.23-1h-.06c-.05,0,0,0,0-.06s-.05,0-.05,0h0s0,.06-.07,0h0c-.06,0-.07.08-.14.07h-.18c-.15.05-.69.26-.84.29h0l-.9.26a.24.24,0,0,0-.12,0h-.12a2.48,2.48,0,0,1-.77.06.27.27,0,0,0-.2.06H370s0,.06-.07.06h0a.49.49,0,0,1-.17.06h0a.54.54,0,0,1-.18,0,.71.71,0,0,0-.29,0l-.06-.08h0s-.16.84,0,1h.07c.22,0,.43.06.66.06h.19A1.72,1.72,0,0,1,370.82,249.39Z"/></g><g class="cls-15"><path class="cls-10" d="M369.29,256.85h.06A0,0,0,0,0,369.29,256.85Z"/><path class="cls-10" d="M370.48,257.09h.23l.65.12-.05-.06c-.06-.07,0,0,.05,0s.06,0,.07.08h.33s0,0,0,.06h.1a.06.06,0,0,1,.06,0h.47v.09a4.61,4.61,0,0,1,.64.16v.05h.06v-.09h.06s0-.05.08,0a.83.83,0,0,0,.22.08h.19l.38-.9h0c-.06,0,0,0,0-.06s-.06,0-.08,0h-.32c-.14,0-.7-.16-.85-.18h0a7,7,0,0,0-.9-.15h-.24a4.46,4.46,0,0,1-.73-.13h-.21c-.06,0-.44-.06-.51,0h-.11s-.06.06-.08.06h-.32a.71.71,0,0,0-.29,0l-.06-.06h0a2.86,2.86,0,0,0,0,1h.05a5.14,5.14,0,0,0,.55.06h.15A.91.91,0,0,1,370.48,257.09Z"/></g><g class="cls-15"><path class="cls-10" d="M371.55,261.94h0Z"/><path class="cls-10" d="M372.62,261.93h.67s0,0,.07.07h0c.11-.06,0,0,.12,0s.07-.07.1-.06h.11m.06,0h.12a.89.89,0,0,0,.33-.15h0v.1a3.72,3.72,0,0,1,.57-.08v.05h0v-.06h0a.07.07,0,0,1,.07-.07h.2s.11,0,.15-.06a8.17,8.17,0,0,0,0-1h0m-.05,0h-.4a6.36,6.36,0,0,0-.72.12h0a6.58,6.58,0,0,0-.75.14h-.2a3.21,3.21,0,0,1-.62,0,.22.22,0,0,0-.17.05h-.52c-.05,0,0,.07-.06.08h0l-.13.07h-.14a.49.49,0,0,0-.24,0l-.06-.07h0a3.12,3.12,0,0,0,.14,1h.62a.68.68,0,0,1,.73-.15Z"/></g><g class="cls-15"><path class="cls-10" d="M368.7,274.09a.09.09,0,0,0,.1,0Z"/><path class="cls-10" d="M370.51,273.83h.11c.1,0,.12,0,.14-.07h.06a5.7,5.7,0,0,0,1-.26c.13-.07-.07,0-.1,0h.21c.17-.1,0,0,.19-.08s.11-.1.17-.1h.07s.09,0,.06-.06.09,0,.06,0h.05c.07,0,.12,0,.16-.06h.12l.17-.09h0a5.39,5.39,0,0,0,.5-.33h.05v.1l.91-.41h0v-.05h0l0-.06h.06a.11.11,0,0,1,.07-.1l.33-.14h.05a.87.87,0,0,0,.22-.16,4,4,0,0,0-.28-.95h-.09c-.06,0,0,0,.06-.06s-.07,0-.08,0h0s0,.06-.08.06h0c-.09,0-.1.1-.18.11h-.25l-1.05.52h0l-1.14.48h-.17l-.16.08a4.81,4.81,0,0,1-1,.26c-.07.07-.18.07-.26.11h0a4.56,4.56,0,0,0-.69.16h-.16c-.07,0-.05.07-.08.08h0a1,1,0,0,1-.21.1h0a.79.79,0,0,1-.22.06,1.31,1.31,0,0,0-.39,0l-.1,0h0s0,.84.19,1h.05a.11.11,0,0,1,.08,0H369a5.72,5.72,0,0,0,.83-.12h0l.23-.08h0A2.07,2.07,0,0,1,370.51,273.83Z"/></g><path class="cls-14" d="M354.33,270.78l.09.06A.1.1,0,0,0,354.33,270.78Z"/><path class="cls-14" d="M356,271.38h0c.08,0,0,.06.09.07h.27a7.6,7.6,0,0,0,.92.3.08.08,0,0,1-.08-.07c0-.06.07,0,.09,0s.07,0,.09.11h.52s.08,0,0,.06h0c.08,0,.11.06.16,0h0s.08,0,.08,0h0a.54.54,0,0,0,.18,0h0c.09,0,.49.07.58,0H359s-.05.09-.06.08.81.21.92.26,0,.06,0,.06h.08v-.08h.18a1.52,1.52,0,0,1,.32.11h0c-.05,0,.18.06.26,0a4.43,4.43,0,0,0,.4-.9h0a0,0,0,0,0-.07,0h0s0,0,0-.06-.08,0-.11,0h-.5l-1.15-.29h0c-.3-.08-.9-.26-1.21-.31a.48.48,0,0,0-.16-.08h-.17a7.59,7.59,0,0,1-1-.32h-.27c-.09,0-.57-.18-.68-.21h0c-.09,0-.07,0-.13-.07s-.09.05-.12,0h0a.88.88,0,0,1-.23,0h0a.81.81,0,0,1-.22,0,1,1,0,0,0-.37-.13l-.08-.09h0s-.35.77-.22,1h.1s0,0,0,.05c.25.1.5.2.76.28h.23A2,2,0,0,1,356,271.38Z"/><path class="cls-14" d="M355.22,267.16h0Z"/><path class="cls-14" d="M356.36,267.35h.17s.53.08.62.07,0,0,0-.06h0s.05,0,.08.08h.59a1.34,1.34,0,0,0,.38-.1h0v.1a3.21,3.21,0,0,1,.62,0v.05c0,.06,0,0,.06,0h0v-.07h0s0-.07.07,0h.39a5.6,5.6,0,0,0,.15-1h0s0,0,0-.06,0,0-.07,0H357.3a2.5,2.5,0,0,1-.67-.06h-.75c-.1,0-.05.06-.07.06h-.3a.57.57,0,0,0-.26,0v-.06h0a3.49,3.49,0,0,0,0,1h0a4.67,4.67,0,0,0,.52.08h.15A.75.75,0,0,1,356.36,267.35Z"/><path class="cls-14" d="M354.94,261.1a.06.06,0,0,0-.06,0Z"/><path class="cls-14" d="M356,260.85h.16a4.21,4.21,0,0,0,.61-.16h0c.09-.07,0,0,.11,0s.06-.08.11-.07h.1m.07,0h.11c0-.05.28-.16.31-.23h0v.09a4.1,4.1,0,0,1,.59-.2v.05h0v-.06h0s0-.07.05-.08l.21-.05h0a.15.15,0,0,0,.14-.09,5.3,5.3,0,0,0-.18-1h-.12c-.06,0-.07.07-.12.06H358a4.82,4.82,0,0,0-.72.27h0c-.19.08-.58.2-.77.3h-.1l-.09.06a2.94,2.94,0,0,1-.64.19c0,.06-.12,0-.17.09h0a2.71,2.71,0,0,0-.44.13H355s0,.08,0,.09h0a.65.65,0,0,1-.13.09h0s-.1,0-.12.06a.43.43,0,0,0-.25.07h-.08a3,3,0,0,0,.32,1h.05a4.84,4.84,0,0,0,.51-.14h0l.14-.06h0l.6-.4Z"/><path class="cls-14" d="M355.53,255h.08A.06.06,0,0,0,355.53,255Z"/><path class="cls-14" d="M356.7,254.35h.09c.08,0,.08,0,.08-.07h0s.53-.21.63-.27,0,0-.08,0h.11c.1-.09,0,0,.12-.06s.08-.08.11-.08h.05c.05,0,.06,0,0-.06s.06,0,0,0H358l.11-.06h0c0-.06.32-.18.36-.23h0v.1a3.57,3.57,0,0,1,.66-.18h0v-.08h0a.06.06,0,0,1,.06-.06h.24s.14,0,.18-.07v-1h-.21c-.07,0-.1.06-.16,0H359a7.77,7.77,0,0,0-.91.26h0a5.43,5.43,0,0,0-.92.35h-.13l-.12.07a4.13,4.13,0,0,1-.75.32c-.05.07-.13.09-.19.15h0c-.06.05-.42.22-.5.27h0c-.05.07-.06,0-.12,0s0,.09,0,.1h0l-.13.14h0a.33.33,0,0,1-.13.11,1,1,0,0,0-.28.17h-.1s.38.75.58.81h.06c.17-.08.34-.18.51-.28h0l.13-.11h0A1.6,1.6,0,0,1,356.7,254.35Z"/><path class="cls-14" d="M352.31,247h0Z"/><path class="cls-14" d="M353.86,247.28h.33a4,4,0,0,0,.85,0h0a.11.11,0,0,1,.11.07h.17c.18,0,.11-.07.16,0H356a1.53,1.53,0,0,0,.48-.2h.06v.1l.82-.19v.06h.06v-.07h.06a.06.06,0,0,1,.07-.06l.29-.08h0s.16,0,.21-.1a4,4,0,0,0-.14-1h-.07s0,.06-.07,0h0c-.08,0-.1.07-.17.06h-.23c-.16,0-.78.22-.94.24h0l-1,.2h-.27a4.12,4.12,0,0,1-.86,0h-.94c-.05,0-.06.06-.08.06h-.38a1.06,1.06,0,0,0-.32-.28l-.07-.08h0s-.23.81-.09,1h.07s0,0,0,.06a6,6,0,0,0,.72.11h.2A2.09,2.09,0,0,1,353.86,247.28Z"/><path class="cls-14" d="M355.6,240.48a.09.09,0,0,0,.07,0A0,0,0,0,0,355.6,240.48Z"/><path class="cls-14" d="M356.9,240.37h.18a5.51,5.51,0,0,0,.71-.09h0c.05,0,.06,0,.09.07H358c.15,0,.08-.07.12,0h.27a.34.34,0,0,0,.12-.06h0c.05,0,.35-.13.4-.2h0v.09a6.22,6.22,0,0,1,.7-.12c.09,0,0,.06,0,.06h.05V240h0s0-.07.06-.07H360s.14,0,.19-.07a6.54,6.54,0,0,0,0-1h-.05c-.05,0,0,0,.06-.06s-.06,0-.06,0h-.42l-.86.19h0c-.21.05-.67.13-.89.2h-.25a4.78,4.78,0,0,1-.76.09c-.06.06-.14,0-.19.07h0c-.07,0-.44,0-.52.09h-.11c-.05,0,0,.08-.06.09h0l-.16.07h-.17a.71.71,0,0,0-.29,0l-.07-.05h0s0,.85.17,1h.06a4,4,0,0,0,.59-.07h.17A2.57,2.57,0,0,1,356.9,240.37Z"/><path class="cls-14" d="M354.73,234.84h.07A0,0,0,0,0,354.73,234.84Z"/><path class="cls-14" d="M355.73,234.29h.08c.07,0,.06,0,.06-.08h0a5.84,5.84,0,0,0,.53-.33h0c.08-.09,0,0,.1-.08s.05-.08.08-.09h.1s.08,0,.08-.07h.07a.14.14,0,0,0,.08-.09h0c0-.06.23-.24.24-.31h0v0a4.3,4.3,0,0,1,.52-.35h-.06v-.08l.19-.12h0a.52.52,0,0,0,.12-.13,6,6,0,0,0-.43-.88h0c-.06,0,0,.05,0,.05h0c-.07,0-.06.08-.12.09h-.16c-.1.06-.51.38-.61.46h0c-.16.13-.49.35-.65.51h-.1l-.08.08a3,3,0,0,1-.56.36c0,.06-.11.08-.14.13h0l-.38.25h0c0,.06-.06,0-.1,0a.09.09,0,0,1,0,.1h0l-.09.12h0l-.12.1s-.16.05-.22.13h-.08s.36.76.54.85h0a2.13,2.13,0,0,0,.46-.27h0l.12-.09h0A1.5,1.5,0,0,1,355.73,234.29Z"/><path class="cls-14" d="M354.74,228.22h.07A0,0,0,0,0,354.74,228.22Z"/><path class="cls-14" d="M355.94,227.53H356c.09,0,.09,0,.09-.09h0s.55-.33.65-.41-.06,0-.09,0h.12c.09-.11,0,0,.12-.1s.07-.1.11-.11h0s.06,0,0-.06.07,0,0,0h0a.1.1,0,0,0,.1-.09h.08a.22.22,0,0,0,.11-.1h0c0-.07.28-.29.3-.35h0v0s.54-.38.63-.43h0l-.06,0h0v-.09l.23-.14h0s.12-.09.14-.16a7,7,0,0,0-.4-.89h-.07v-.06c0-.07-.06,0-.06,0h0s0,.06,0,.06h0c-.08,0-.08.09-.14.1h0a.12.12,0,0,0-.09.06h-.11c-.13.07-.63.46-.76.56h0c-.19.14-.59.42-.78.59s-.1,0-.13,0h0l-.09.1a3.65,3.65,0,0,1-.69.44c0,.08-.13.1-.17.16h0s-.4.25-.46.31h0c-.05.06-.06,0-.11,0s0,.08,0,.09h0l-.13.15h0l-.13.11a1,1,0,0,0-.28.16h-.09s.33.77.55.84h0v-.06h.06a6.16,6.16,0,0,0,.55-.33h0l.15-.12h0Z"/><path class="cls-14" d="M356.88,222.38Z"/><path class="cls-14" d="M357.42,222h0V222h0a1.86,1.86,0,0,0,.28-.21h0c0-.07,0,0,0,0s0-.08,0-.08h0s.05,0,0,0h.05a.09.09,0,0,0,0-.07h0a.7.7,0,0,0,.07-.23h0s.06.08,0,.08a2,2,0,0,1,.26-.24h-.06v-.07l.1-.08h0s.05,0,0-.1l-.57-.78h0v.06h-.05l-.29.32h0a3.47,3.47,0,0,0-.32.34h-.06v.06a.8.8,0,0,1-.29.23.11.11,0,0,1-.05.09h0s-.18.12-.2.17h-.06a.09.09,0,0,1,0,.07h0v.1h0v.07c0,.07-.1,0-.12.09h-.06a5.15,5.15,0,0,0,.64.76h0a1.77,1.77,0,0,0,.24-.17h0l.05-.06h0Z"/><path class="cls-14" d="M373.35,213a.06.06,0,0,0,.08,0Z"/><path class="cls-14" d="M374.46,212.34h.09c.08,0,.08,0,.08-.1h0s.51-.33.59-.4,0,0-.07,0h.11c.08-.11,0,0,.11-.1s.05-.1.09-.11h0s.06,0,0-.07.07,0,0,0h0a.1.1,0,0,0,.1-.09h.08a.36.36,0,0,0,.1-.11h0c0-.06.26-.27.28-.35h0v.09a4.83,4.83,0,0,1,.58-.43h0v-.07h-.05v-.08a1.7,1.7,0,0,0,.22-.15h0a.51.51,0,0,0,.14-.15,6.57,6.57,0,0,0-.44-.88h-.11c-.05,0,0,0,0-.07s-.05,0-.05,0h0s0,.07-.06.07h0c-.07,0-.05.09-.12.1h0a.12.12,0,0,0-.09.05h-.11c-.12.08-.58.47-.71.56h0c-.18.15-.57.43-.75.6a.15.15,0,0,0-.11,0h0l-.09.1a3.84,3.84,0,0,1-.64.44c0,.08-.12.1-.16.16h0s-.38.25-.44.3h0c0,.07,0,0-.1,0s0,.09,0,.1h0a.83.83,0,0,1-.11.15h0a.49.49,0,0,1-.13.12.68.68,0,0,0-.26.15h-.09s.36.76.57.83h0V213c0-.05,0,0,.06,0a2.78,2.78,0,0,0,.51-.33h0l.12-.12h0Z"/><path class="cls-14" d="M372.59,209.7Z"/><path class="cls-14" d="M373.07,209.43h.05a1.08,1.08,0,0,0,.24-.18h0v-.06h0s.07-.16,0-.21h0s.05.07,0,.07a1,1,0,0,1,.21-.19h-.05v-.07a.28.28,0,0,0,.09-.07h0v-.08a6.64,6.64,0,0,0-.57-.79h0m0-.06h0v.06h0c-.05,0-.21.23-.25.27h0a2.55,2.55,0,0,0-.26.3h-.05v.05a.79.79,0,0,1-.25.2v.08h0a1.53,1.53,0,0,0-.17.14h0V209h0V209h0s-.1,0-.11.07h-.06a6,6,0,0,0,.63.78h0l.22-.13h0v-.07h0l.35-.26Z"/><g class="cls-15"><path class="cls-10" d="M355.66,212.51a0,0,0,0,0,0,.05Z"/><path class="cls-10" d="M356.05,213.33h0v.07c0,.06,0,0,.07,0h0a1.62,1.62,0,0,0,.3.39v-.06h0v.1h0c.09,0,0,0,.07.06s.08,0,.09,0h.05s0,.07.06.06h0V214h.09c.06,0,.23.12.29.11h0l-.06.06a3.84,3.84,0,0,1,.36.31h.05v-.07h.08s.08.07.12.11h0s.08.05.13,0l.57-.78h-.05c0-.06-.07,0-.08,0h0v-.06h0l-.42-.3h0c-.11-.08-.3-.28-.42-.36s0,0,0-.06h-.07a1.21,1.21,0,0,1-.28-.36c-.06,0-.06-.07-.1-.08h0a1.78,1.78,0,0,0-.18-.27h0v-.07c0-.08-.07,0-.08,0h0a.21.21,0,0,1-.1-.06h0a.45.45,0,0,1-.07-.07s0-.12-.08-.17v-.06h0a3.69,3.69,0,0,0-.81.54h0v.06a2.58,2.58,0,0,0,.19.37h0l.09.09h0Z"/></g><g class="cls-15"><path class="cls-10" d="M358.12,210.13a.06.06,0,0,0,0,.06S358.13,210.14,358.12,210.13Z"/><path class="cls-10" d="M358.52,211.1h0v.07c0,.06,0,.06.07,0h0a5,5,0,0,0,.33.47v-.08h0v.11h0c.08.06,0,0,.07.08s.1,0,.11.05h0c.05,0,0,.06,0,0h0a.06.06,0,0,0,.08.06h0v.06h.09c.06,0,.26.14.32.13h0s-.07.06-.07,0,.37.28.42.34h.06v-.07h.07c.07,0,.1.07.16.11h.13a6.33,6.33,0,0,0,.54-.81H361v-.06h-.1v-.05h0c-.07-.06-.38-.26-.46-.32h0l-.46-.39v-.07h0c0-.07,0,0-.07,0a1.92,1.92,0,0,1-.28-.42c-.06,0-.06-.08-.11-.09h0s-.14-.26-.18-.31h0v-.07h-.09a.1.1,0,0,1-.09-.08h0l-.06-.09s0-.14-.08-.19v-.06h0a2.86,2.86,0,0,0-.86.46h0a1.85,1.85,0,0,0,.18.44h0l.09.11h0Z"/></g><g class="cls-15"><path class="cls-10" d="M341.72,223.84a.06.06,0,0,0,0,.06S341.75,223.84,341.72,223.84Z"/><path class="cls-10" d="M342.57,224.49h0v.07c0,.06.06,0,.09,0h0a5,5,0,0,0,.47.33v-.07h0v.11h.28s0,.06,0,.06h.08v0h0a.17.17,0,0,0,.1,0h0c.07,0,.29.1.35.08h0l-.06.06a5,5,0,0,1,.49.31h.05v-.08h.07a1.08,1.08,0,0,1,.18.11h0s.1.06.16,0l.55-.8h0c-.05,0,0,0,0-.05s-.05,0-.06,0h0c0-.06-.09,0-.12-.06h-.06l0-.06h0c-.1-.07-.51-.29-.62-.34h0a7,7,0,0,0-.66-.36s-.05,0-.07-.07h-.1a2.68,2.68,0,0,1-.52-.36.17.17,0,0,1-.15,0h0c-.05,0-.29-.21-.36-.23h0c-.06,0,0,0-.06-.07a.07.07,0,0,1-.09,0h0a.33.33,0,0,1-.14,0h0a.31.31,0,0,1-.13-.06.61.61,0,0,0-.18-.15v-.08h0a2.9,2.9,0,0,0-.48.88h0a2.19,2.19,0,0,0,.39.29h.12S342.57,224.48,342.57,224.49Z"/></g><g class="cls-15"><path class="cls-10" d="M344.84,221.23h.07a2.17,2.17,0,0,0,.42.11v-.06h0v.08h.3s.23,0,.27-.07h0v.08a2.1,2.1,0,0,1,.42.09v0h0v-.08h0s0-.05.05,0h.27a7.18,7.18,0,0,0,.27-1h0v-.06h-.2a4.81,4.81,0,0,0-.53-.07h0a3.43,3.43,0,0,0-.56-.07h-.14a1.45,1.45,0,0,1-.45-.13h-.13l-.31-.08h-.07a0,0,0,0,1,0,0h-.2s-.1-.08-.17-.06v-.08h0a3.39,3.39,0,0,0-.18,1h0a2.06,2.06,0,0,0,.35.12h.11A4.37,4.37,0,0,1,344.84,221.23Z"/></g><g class="cls-15"><path class="cls-10" d="M344.65,216.53h0Z"/><path class="cls-10" d="M345.62,216.34h.14a3.23,3.23,0,0,0,.51-.14h0c.08-.06,0,0,.09,0s.07-.06.1-.06h.24c0-.06.25-.16.27-.22h0V216a5,5,0,0,1,.51-.16h0v-.07h0v-.06l.18-.06h0a.13.13,0,0,0,.12-.09,5.09,5.09,0,0,0-.18-1h0c-.06,0-.06.06-.11,0h-.15a3.38,3.38,0,0,0-.63.23h0a5.78,5.78,0,0,0-.65.25.14.14,0,0,0-.09,0h0l-.09,0a2.05,2.05,0,0,1-.55.16c0,.05-.11,0-.14.08h0a2.27,2.27,0,0,0-.38.12h-.09a0,0,0,0,1,0,.07h0l-.1.09h0a.14.14,0,0,1-.12.06.37.37,0,0,0-.22,0l-.06,0h0a3.59,3.59,0,0,0,.31,1h0s.3,0,.44-.09h.12Z"/></g><g class="cls-15"><path class="cls-10" d="M343.5,234.24h0Z"/><path class="cls-10" d="M344.46,234.17h.14a3.09,3.09,0,0,0,.52-.07h-.05s.05,0,.08.07h0c.08-.06,0,0,.1,0s.07-.07.1-.06h0s0,0,0-.05h.24s.24-.12.27-.18h0v.1a2.77,2.77,0,0,1,.5-.1h0v-.08h0v-.06h.19a.15.15,0,0,0,.13-.08,7.93,7.93,0,0,0-.09-1h0v-.05c0-.06,0,0,0,0h-.05c-.05,0-.07.05-.11,0h-.14a4.44,4.44,0,0,0-.63.15h0q-.33.08-.66.18a.14.14,0,0,0-.09,0h-.09a2.51,2.51,0,0,1-.55.07.22.22,0,0,0-.15.06h0s-.32,0-.37.07h-.08a.09.09,0,0,1,0,.07h0a.54.54,0,0,1-.12.07h-.4a3.77,3.77,0,0,0,.19,1h.57Z"/></g><g class="cls-15"><path class="cls-10" d="M345.51,238Z"/><path class="cls-10" d="M346,237.87h0a.87.87,0,0,0,.25-.1h0l.05.06h0v-.06h0a.59.59,0,0,0,.09-.18h0v.08l.24-.12h0v-.05h.1v-.08c0-.08-.33-.86-.35-.91h0l-.29.17h0l-.29.2h-.06a.59.59,0,0,1-.28.1l0,.07h0s-.17,0-.19.07h-.05a.06.06,0,0,1,0,.08h0v.08H345a7,7,0,0,0,.41.92h0a1.55,1.55,0,0,0,.23-.06h.05Z"/></g><g class="cls-15"><path class="cls-10" d="M345.76,245.87h0c0-.06,0,0,.06,0h0a1.43,1.43,0,0,0,.34.14V246h0V246h.16v.06h.38v.07l.35.11v.06h0v-.08h0s0-.07.06,0l.12.06h.11a5.32,5.32,0,0,0,.33-.93h-.14a4.2,4.2,0,0,1-.45-.11h0a2.47,2.47,0,0,0-.47-.11h-.13a1.74,1.74,0,0,1-.38-.14H346a1.42,1.42,0,0,0-.26-.1h-.06a0,0,0,0,1,0,.05h-.17s-.09-.07-.15-.06v-.08h0a4.89,4.89,0,0,0-.26,1h0a1.47,1.47,0,0,0,.28.14h.08A1.77,1.77,0,0,1,345.76,245.87Z"/></g><g class="cls-15"><path class="cls-10" d="M345.65,254.12Z"/><path class="cls-10" d="M346.38,253.92h.06c.05,0,0,0,0,0h0a2.43,2.43,0,0,0,.38-.13h0l.07,0h0c.06-.06,0,0,.08,0s0-.06,0,0h.12l.06-.06h0c0-.05.16-.15.18-.21h0v.1a1.76,1.76,0,0,1,.37-.17v0h0v-.06h0v-.07h.14s.07,0,.08-.09a7.81,7.81,0,0,0-.29-.93h0v-.06h0s0,.07-.07,0h-.13l-.46.24h0a4.39,4.39,0,0,0-.47.27h-.07c-.07,0,0,0-.07.05a1.29,1.29,0,0,1-.41.16.11.11,0,0,0-.1.07h0a1.36,1.36,0,0,1-.28.11h-.07a.14.14,0,0,1,0,.09h0l-.07.09h0a.09.09,0,0,0-.08.06c0,.05-.11,0-.16,0h-.06a4.66,4.66,0,0,0,.38.93h0a1.39,1.39,0,0,0,.33-.1h0l.09-.05h0S346.37,253.91,346.38,253.92Z"/></g><g class="cls-15"><path class="cls-10" d="M347.38,258.82h.1a2.77,2.77,0,0,0,.41-.12h0c.06-.07,0,0,.08,0s0-.08.05-.07h.18c0-.05.16-.16.16-.23h0v.09a2.83,2.83,0,0,1,.34-.23h-.05v-.08l.12-.09h0a.07.07,0,0,0,0-.11c-.07-.05-.52-.75-.56-.79h-.05c-.05,0-.24.22-.3.25h0c-.09.07-.27.17-.36.25s0,0,0,0h0v.05a.79.79,0,0,1-.33.1s-.07,0-.09.05h0s-.2,0-.23.06h-.06c-.06,0,0,.08,0,.08h0l-.06.06h-.21V258h0a4.28,4.28,0,0,0,.1,1h0a1.09,1.09,0,0,0,.36,0H347Z"/></g><g class="cls-15"><path class="cls-10" d="M346.17,267h0V267c0,.06.06,0,.08,0h0a2.27,2.27,0,0,0,.34.19v-.06h0v.09h.16v.06h.39v.07a1.58,1.58,0,0,1,.35.16v.05h0v-.07h.05l.13.06h.1a7.22,7.22,0,0,0,.43-.88h0v0c0-.06,0,0-.05,0h-.09l-.44-.17h0a4.5,4.5,0,0,0-.48-.16H347a1.07,1.07,0,0,1-.38-.2h-.11a1.29,1.29,0,0,0-.26-.12h0l-.05-.06a.09.09,0,0,1-.07.06h-.2s-.07-.09-.13-.09v-.08h0a4.57,4.57,0,0,0-.37,1h0a1.22,1.22,0,0,0,.29.17h.09Z"/></g><g class="cls-15"><path class="cls-10" d="M348,273.26h.11a1.41,1.41,0,0,0,.41,0h0v.07h.29s.19-.11.21-.16h0v.08a2.66,2.66,0,0,1,.39-.07h0v-.08h.15a.11.11,0,0,0,.1-.07,6.25,6.25,0,0,0-.09-1h-.21a4.37,4.37,0,0,0-.49.12h0a1.62,1.62,0,0,0-.51.14h-.14a1.3,1.3,0,0,1-.44.05.12.12,0,0,0-.1.06h-.38a.07.07,0,0,1,0,.09h0a.24.24,0,0,1-.08.06H347v-.06h0a4.29,4.29,0,0,0,.18,1h.44S348,273.25,348,273.26Z"/></g><g class="cls-15"><path class="cls-10" d="M348.14,280.91h.05A0,0,0,0,0,348.14,280.91Z"/><path class="cls-10" d="M348.83,280.83h0c0-.06.05,0,.05,0h.38l.05.07h.07c.07,0,0-.06.06,0h.07a.09.09,0,0,0,.07,0h0s.19-.09.22-.15h0v.09h.39v.06h0v-.08h0v-.06h.24l.14-1h-.22a2.44,2.44,0,0,0-.54,0h0a2.1,2.1,0,0,0-.56.08h-.15a1.24,1.24,0,0,1-.47,0c0,.06-.08,0-.12.07h0s-.27,0-.31.07h-.07a.11.11,0,0,1,0,.08h0l-.09.08h-.27l-.06-.05h0a4.4,4.4,0,0,0,.31.95h.4Z"/></g><g class="cls-15"><path class="cls-10" d="M394.77,212.37a0,0,0,0,0,.07,0Z"/><path class="cls-10" d="M396,212h.08c.09,0,.09,0,.1,0h0c.22-.06.43-.13.65-.21h.08c.1-.08,0,0,.13-.07s.07-.07.11-.07h.05a.13.13,0,0,0,.11-.06h.07a.17.17,0,0,0,.1-.07h0a1.52,1.52,0,0,0,.34-.25h0v.1a4.69,4.69,0,0,1,.63-.24h0V211h0a.07.07,0,0,1,.06-.07l.23-.08h0a.16.16,0,0,0,.15-.11,4.75,4.75,0,0,0-.21-1h0v0c0-.06-.05,0-.05,0h0s0,0-.06,0h0c-.06,0-.07.07-.14.06h-.18a5.3,5.3,0,0,0-.79.33h0c-.2.09-.61.24-.81.35h-.13l-.1.08a4.41,4.41,0,0,1-.7.23.21.21,0,0,0-.18.1h0a2,2,0,0,0-.47.18h-.11c-.06,0,0,.08,0,.1h0l-.14.11h0a.39.39,0,0,1-.15.06.92.92,0,0,0-.27.08h-.08s.17.83.34,1h.11a3.8,3.8,0,0,0,.55-.16h0l.15-.08h0A2.4,2.4,0,0,1,396,212Z"/></g><g class="cls-15"><path class="cls-10" d="M397.69,214.74h.07A.16.16,0,0,0,397.69,214.74Z"/><path class="cls-10" d="M398.85,214.64H399a3.42,3.42,0,0,0,.63-.09h0c.05,0,.05,0,.08.06h0c.1-.06,0,0,.12,0s.08-.07.12-.06H400c.05,0,.06,0,0-.05s.06,0,0,0h.29a1.56,1.56,0,0,0,.35-.19h0v.1a3.29,3.29,0,0,1,.61-.12h0v-.07h.06s0-.07.05-.06h.23a.2.2,0,0,0,.16-.08,6.28,6.28,0,0,0-.07-1h-.05c-.05,0,0,0,.05,0s-.05,0-.05,0h-.38l-.67.06h0c-.2.06-.61.12-.81.2h-.22a3.74,3.74,0,0,1-.67.1.2.2,0,0,0-.17.06h0c-.06,0-.4,0-.46.08h-.11a.07.07,0,0,1-.05.09h0a.51.51,0,0,1-.14.08h-.4l-.08-.06h0a3.11,3.11,0,0,0,.19,1h0a4.93,4.93,0,0,0,.54,0h.14A.72.72,0,0,1,398.85,214.64Z"/></g><g class="cls-15"><path class="cls-10" d="M401.8,220.43h.12a1.66,1.66,0,0,0,.45-.12h-.05l.07.06h.09c.08,0,0-.07.07-.07h0v-.05h.21c0-.06.21-.13.24-.19h0v.09a2.42,2.42,0,0,1,.45-.1m0,0h0V220h0V220h.16s.09,0,.11-.06,0-.93,0-1h-.1c-.06,0-.08.05-.12,0h.13a4.47,4.47,0,0,0-.63.16h0a3.83,3.83,0,0,0-.65.22h-.15a2.72,2.72,0,0,1-.54.15.15.15,0,0,0-.13.09h0a3.31,3.31,0,0,0-.36.13h-.08a.09.09,0,0,1,0,.1h0l-.1.1h0l-.09.08a.31.31,0,0,0-.2.07h-.07a3.48,3.48,0,0,0,.44.91h0l.37-.13h0l.1-.07h0s.25-.29.26-.29Z"/></g><g class="cls-15"><path class="cls-10" d="M401.53,225.76a.09.09,0,0,0,.07,0A0,0,0,0,0,401.53,225.76Z"/><path class="cls-10" d="M402.74,225.55h.17a3.71,3.71,0,0,0,.64-.15h.08c.1-.06,0,0,.12,0s.07-.07.12-.06h.23l.11-.07h0c0-.05.31-.16.36-.22h0v.1a4.5,4.5,0,0,1,.63-.17V225h0V225h.06v-.06l.24-.06h0a.17.17,0,0,0,.15-.1,5,5,0,0,0-.12-1h0s0,0-.07,0h0c-.06,0-.08.06-.13,0h-.2l-.79.25h0c-.27.08-.55.17-.82.28h-.12l-.1.06a3.38,3.38,0,0,1-.7.16.18.18,0,0,0-.18.09h0l-.48.11h-.11c-.06,0,0,.08-.06.08h0a.65.65,0,0,1-.13.09h-.15a.62.62,0,0,0-.27,0h-.08s.09.85.26,1h.1a3.45,3.45,0,0,0,.56-.1h.15Z"/></g><g class="cls-15"><path class="cls-10" d="M402.6,230.05h.08C402.75,230.05,402.67,230,402.6,230.05Z"/><path class="cls-10" d="M403.92,229.9h.19s.6-.08.72-.11-.05,0-.08,0h0a.14.14,0,0,1,.11.06h0c.11-.07,0,0,.13,0s.1-.07.14,0h.05c.05,0,.08,0,.05-.06s.07,0,0,0h.21a.29.29,0,0,0,.13,0h0a1.11,1.11,0,0,0,.4-.21h0v.1a4.15,4.15,0,0,1,.7-.15h.05v-.08h0s0-.07.06-.07H407s.15,0,.19-.08a3.24,3.24,0,0,0-.06-1h-.44a6.87,6.87,0,0,0-.87.21h0a3.55,3.55,0,0,0-.92.23h-.12l-.12.05a4,4,0,0,1-.77.13.23.23,0,0,0-.2.07h0a5.27,5.27,0,0,0-.52.1h-.13c-.06,0,0,.08-.06.09h0l-.16.07h0a.38.38,0,0,1-.15,0,.81.81,0,0,0-.31,0h-.07s0,.85.21,1h.25a1.85,1.85,0,0,0,.61-.07h0l.17-.06h0A2.16,2.16,0,0,1,403.92,229.9Z"/></g><g class="cls-15"><path class="cls-10" d="M403.71,235.85h0Z"/><path class="cls-10" d="M404.81,235.83h.78c.05,0,.05,0,.08.06h.13c.12,0,.08-.06.11,0h.16m.06,0h.12a1.37,1.37,0,0,0,.35-.17h0v.09c.21,0,.41-.06.62-.08h0v-.07h0s0-.07,0,0h.23s.13,0,.17-.07a8.17,8.17,0,0,0,0-1h-.38l-.77.12h0a5.37,5.37,0,0,0-.8.15h-.22a3.86,3.86,0,0,1-.68,0c-.06.05-.12,0-.18.05h-.56c-.06,0,0,.08-.07.08h0a.38.38,0,0,1-.13.06h0a.38.38,0,0,1-.15,0,.57.57,0,0,0-.26,0l-.06-.06h0a2.81,2.81,0,0,0,.13,1h0a4.86,4.86,0,0,0,.54,0h.14l.59-.12Z"/></g><g class="cls-15"><path class="cls-10" d="M405.63,240.46h.17s.51.25.62.28,0,0,0-.08,0,0,.06,0,0,0,0,.11h0c.12,0,0,0,.12.06s.11,0,.13,0h.06v0h0a.08.08,0,0,0,.12,0h0s0,0,0,.07h0a.13.13,0,0,0,.12,0h0c.06,0,.34.11.41.1h.05l-.06.07a3.56,3.56,0,0,1,.58.37h.07v-.08h.08l.2.16h0a.4.4,0,0,0,.18.07l.64-.71h.09c.08,0,0-.06-.07,0s0,0,0-.06a.06.06,0,0,1-.08,0h0c0-.06-.1,0-.15-.1h0a.08.08,0,0,1-.07-.06h0a.4.4,0,0,1-.07-.09h0a8.37,8.37,0,0,0-.82-.48h0a7,7,0,0,0-.87-.43l-.12-.08h-.13a5.4,5.4,0,0,1-.74-.33H406c-.07,0-.44-.16-.53-.17h0c-.07,0,0,0-.1-.07s-.06,0-.1,0h-.33a.75.75,0,0,0-.29-.09l-.07-.09h0s-.26.8-.16,1h.06c.06,0,0,0,0,.06l.55.19h.16A1,1,0,0,1,405.63,240.46Z"/></g><g class="cls-15"><path class="cls-10" d="M404.94,244.71h0Z"/><path class="cls-10" d="M406,245h0c.05,0,0,.05.06,0s.07,0,.09,0h0a2.85,2.85,0,0,0,.58.12l-.05-.06c-.06-.05,0,0,.05,0s0,0,.06.09h.28s0,0,0,.06h.21s.3,0,.36-.07h0v.09a2.82,2.82,0,0,1,.57.09v.05h0v-.08h0s0,0,.07,0h.38a6,6,0,0,0,.23-.95h0c-.05,0,0,0,0-.06s-.05,0-.06,0h-.29l-.74-.07h0c-.18,0-.56-.08-.76-.07h-.2a2.13,2.13,0,0,1-.61-.12h-.18c-.05,0-.37-.08-.43-.08h-.08c-.09,0-.05.07-.08.07h-.28a.61.61,0,0,0-.24-.07v-.08h0a3.17,3.17,0,0,0-.12,1h.05c.05,0,0,0,0,.05a4.15,4.15,0,0,0,.48.11h.14Z"/></g><g class="cls-15"><path class="cls-10" d="M407.31,253.91h0Z"/><path class="cls-10" d="M408.18,253.54h.07c.08,0,.06,0,.06-.07h0a2.2,2.2,0,0,0,.46-.23h0c.06-.07,0,0,.08-.05s0-.09.07-.09h0v0c0-.06.06,0,0,0H409a.27.27,0,0,0,.07-.08h0c0-.06.19-.2.2-.27h0v.09l.44-.26h0v-.06h0v-.06l.15-.09h0s.09-.06.1-.11a7.82,7.82,0,0,0-.38-.9h0v-.06c0-.05-.05,0,0,0h0c-.05,0,0,.07-.09.07h-.14l-.53.36h0c-.14.1-.43.27-.57.38h-.08l-.06.06a1.62,1.62,0,0,1-.49.25c0,.07-.1.07-.12.11h0a3.25,3.25,0,0,0-.33.19h-.09a.06.06,0,0,1,0,.09h0a.48.48,0,0,1-.08.11h0l-.1.08s-.15,0-.19.08h-.07a3.13,3.13,0,0,0,.48.88h0a2,2,0,0,0,.39-.18h0l.11-.08h0A1.12,1.12,0,0,1,408.18,253.54Z"/></g><g class="cls-15"><path class="cls-10" d="M408.51,259.77h0Z"/><path class="cls-10" d="M409.65,259.46h.08c.07,0,.08,0,.09-.07h0a6.45,6.45,0,0,0,.62-.21h0c.09-.08,0,0,.11-.05s.08-.09.11-.08h0s.06,0,0-.07.05,0,0,0h0s.08,0,.1-.05h.08l.1-.07h0c0-.05.28-.19.31-.25h0v.09a4.24,4.24,0,0,1,.6-.23h0v-.07h0v-.08l.22-.07h0a.15.15,0,0,0,.14-.11,4,4,0,0,0-.23-1h0m-.05,0h0s0,.05-.06,0h0c-.06,0-.07.07-.13.05h-.17a4.32,4.32,0,0,0-.73.33h0c-.19.09-.58.25-.77.36a.11.11,0,0,0-.11,0h0l-.1.07a3.11,3.11,0,0,1-.65.22c0,.07-.13.06-.17.1h0a2.2,2.2,0,0,0-.44.17h-.1s0,.08,0,.1h0l-.13.09h0l-.14.08a.49.49,0,0,0-.25.08h-.08a3.16,3.16,0,0,0,.36.94h0a3.45,3.45,0,0,0,.52-.16h0l.14-.08h0a1,1,0,0,1,.65-.07Z"/></g><g class="cls-15"><path class="cls-10" d="M409.9,264.79h0v0c0,.06,0,0,.08,0h0a1.73,1.73,0,0,0,.38.24V265h0v.1h.18v.05h0s0,.06.07,0h0v.06H411l-.06.06a3,3,0,0,1,.4.21v.06h0v-.08h0s0-.05.07,0l.14.08h.13l.49-.85h.05v0h-.09l-.51-.23h0a5.38,5.38,0,0,0-.55-.24l-.05-.05h-.08a2.22,2.22,0,0,1-.42-.25h-.13a2.24,2.24,0,0,0-.29-.17h0c-.05,0,0,0-.05-.06h-.15s-.09-.1-.15-.1v-.09h0a4,4,0,0,0-.42.92h0v.06a2.2,2.2,0,0,0,.32.21h.11Z"/></g><g class="cls-15"><path class="cls-10" d="M410.44,271.23Z"/><path class="cls-10" d="M410.72,271.89h0V272h0a2.79,2.79,0,0,0,.18.34v-.06h0v.08h0c.07,0,0,0,.05.06s.07,0,.06,0h.05v.06h.06c.05,0,.16.12.22.12h-.09a1.85,1.85,0,0,1,.21.33h0l.05-.05h.07a.34.34,0,0,0,.06.12h0s0,.06.09.06l.82-.47h0m.05,0h0s-.06,0-.05-.07h0v-.05h0v-.06h0l-.29-.38h0a3.79,3.79,0,0,0-.3-.4c-.09-.09,0-.05,0-.07h0a1.72,1.72,0,0,1-.2-.38s0-.05-.08-.08h0a2.77,2.77,0,0,0-.15-.24h0v-.06h-.17a.07.07,0,0,0-.06-.07c-.06,0,0-.12-.06-.15v-.07h0a5.07,5.07,0,0,0-.81.56h0a1.73,1.73,0,0,0,.14.31h0a.08.08,0,0,0,.06.07h0l.14.49Z"/></g><g class="cls-15"><path class="cls-10" d="M409,276.6v.07A.09.09,0,0,0,409,276.6Z"/><path class="cls-10" d="M409.21,277.78h0V278h0a4.89,4.89,0,0,0,.14.64v-.07h0v.1h0c.06.11,0,0,0,.13s.07.08.06.11h0v.06c0,.05,0,0,.06,0s0,.05,0,0h0v.1h0v.07h0a.16.16,0,0,0,0,.11h0a1.38,1.38,0,0,0,.2.33h-.1a4.91,4.91,0,0,1,.17.63h.12a.41.41,0,0,0,.06.22h0s0,.12.08.16l.93-.16h0m0-.06h0v-.05c0-.06,0,0,0,.05s0-.06,0-.06h0v-.07h0c0-.06,0-.08,0-.13h0V280h0v-.09h0a6.16,6.16,0,0,0-.24-.77h0a8.45,8.45,0,0,0-.26-.81v-.11h0l0-.1a3.93,3.93,0,0,1-.15-.68c-.05-.05,0-.13-.08-.18h0a2.32,2.32,0,0,0-.12-.47h0v-.1s-.07,0-.08-.05h0a.83.83,0,0,1-.07.27h0s0-.12-.05-.14a.58.58,0,0,0-.06-.26l.06-.08h0s-.8.12-.92.28h0v.06a5.07,5.07,0,0,0,.09.54h0v.14h0a1.65,1.65,0,0,1,.11.36Z"/></g><g class="cls-15"><path class="cls-10" d="M408,282.24h0v.05h0a.65.65,0,0,0-.17.2h0v.07h0v.19h0l-.07-.06c0,.07-.09.14-.14.21h.06V283a.09.09,0,0,1-.06.08h0v.08l.71.63h0v-.05h0s.13-.24.15-.29h0c0-.07.14-.21.17-.29h0v-.06a.48.48,0,0,1,.19-.21v-.09h0s.11-.12.11-.15H409a0,0,0,0,1,0-.07h0v-.08h0v-.07c0-.07.08,0,.08-.08h.06a6.44,6.44,0,0,0-.77-.61h0c-.05,0-.12.1-.16.15h0v.07h0Z"/></g><g class="cls-15"><path class="cls-10" d="M404.1,283.9h0Z"/><path class="cls-10" d="M403.63,284.84h-.07c-.06,0,0,.07,0,.09h0c-.08.17-.16.35-.23.53h.07c.06,0,0,0,0,.05s0,0-.1,0h0v.23h0v.06h-.05s-.05.05,0,.09h-.05a.2.2,0,0,0,0,.11h0v.36h0l-.08-.06a2.47,2.47,0,0,1-.19.54h0v.06H403s.05,0,0,.08a1.42,1.42,0,0,0-.08.18h0v.17l.83.44h0v0c0-.06,0,0,.05,0s0,0,0-.07h0v-.12h0v-.08h0v-.06h0a5.89,5.89,0,0,1,.21-.68h0a7.21,7.21,0,0,1,.21-.72.11.11,0,0,0,.06-.09h0v-.09a2.72,2.72,0,0,1,.24-.58v-.16h0c0-.06.15-.33.16-.4h0c0-.06,0,0,.06-.07s-.05-.07,0-.08h0v-.14h0v-.14s.11-.13.11-.22h.08a3.18,3.18,0,0,0-.9-.35h0v.06h0a3.55,3.55,0,0,0-.21.44h0v.14h0S403.64,284.84,403.63,284.84Z"/></g><g class="cls-15"><path class="cls-10" d="M399.53,285.24h0Z"/><path class="cls-10" d="M398.6,286.38h-.08s-.06.08,0,.12h0v.06h0v.05h0a5.61,5.61,0,0,0-.45.67h.08c.09,0,0,0,0,.07s0,0-.11,0h0c0,.14,0,0-.09.14s0,.13,0,.16h0v.12h-.05s-.07.06-.06.12h0a0,0,0,0,1-.06.05h0a.34.34,0,0,0-.06.15h0c0,.07-.13.39-.12.47h0v.06s-.07-.07-.06-.07a8,8,0,0,1-.36.72c-.06.09-.05,0-.05,0v.07h.07v.05h0v.11c0,.09-.09.17-.12.26h0s-.06.14,0,.22l.8.51h0v-.05h0v0c0-.07,0,0,.05,0s0-.07,0-.09h0c.06,0,0-.12.06-.16h0s0-.07.05-.09h0a.1.1,0,0,1,.06-.09h0l.39-.88h0c.09-.22.33-.67.44-.9l.08-.11h0V288a3.61,3.61,0,0,1,.46-.69c0-.09.07-.15.09-.21h0c0-.07.3-.39.33-.47h0c0-.07.05,0,.1-.07s0-.09,0-.11h0l.06-.19h0a.56.56,0,0,1,.1-.15c.05-.07.16-.13.21-.24h.09s-.54-.62-.77-.62h0v.08h0a4.32,4.32,0,0,0-.44.52h0a1.62,1.62,0,0,0-.1.18h0A2.18,2.18,0,0,1,398.6,286.38Z"/></g><g class="cls-15"><path class="cls-10" d="M394.52,285.1a.14.14,0,0,0-.09,0Z"/><path class="cls-10" d="M393.42,286.32h0c-.05.05-.05,0-.09,0s-.08.08-.07.13h0v.05h0s-.5.57-.57.7.05,0,.08,0,0,0,0,.06-.06.06-.11,0h0c-.08.16,0,0-.11.16s0,.13-.08.15h0v.05s-.06.07,0,.08h-.06c0,.06-.09.07-.09.12h0a.06.06,0,0,1-.08.06h0a.28.28,0,0,0-.08.15h0c0,.09-.23.41-.23.5h0v0s-.46.63-.55.71h0v.07h.08v.11l-.2.26v-.07h0c0-.05-.11.14-.12.22l.63.74h0v.09s.06,0,.05-.07,0,0,.05,0,0-.08.06-.09h0c.07,0,0-.12.11-.16h0s0-.06.09-.09h0s0-.07.09-.09h0c.12-.14.55-.75.66-.9h0c.16-.23.53-.69.69-1l.11-.11h0l.07-.13a8.81,8.81,0,0,1,.62-.75c0-.08.11-.14.14-.23h0a3.56,3.56,0,0,1,.4-.51h0c0-.08.07,0,.12-.09s0-.1,0-.12h0s.05-.14.08-.2h0a1.36,1.36,0,0,0,.12-.18,1.29,1.29,0,0,0,.25-.27h.09s-.53-.64-.77-.63h0a.09.09,0,0,1,0,.07h-.06c-.07,0-.35.36-.5.56h0l-.13.18h0A1.66,1.66,0,0,1,393.42,286.32Z"/></g><g class="cls-15"><path class="cls-10" d="M388,286.17H388c-.06,0,0,0,0,.08h0l-.35.35h0c0,.1,0,0-.06.09s0,.09,0,.09h0v.05c0,.06-.05,0,0,0h0s-.05,0,0,.07h-.06a.15.15,0,0,0-.06.09h0c0,.06-.11.24-.1.3h0s-.05-.08,0-.07a3.8,3.8,0,0,1-.33.37h0v.06h.06v.07l-.12.12h0a.26.26,0,0,0-.06.14,6.11,6.11,0,0,0,.64.72h0v.07c0,.06.05,0,0,0h0v-.06h0c.05,0,0-.07.06-.09h.13c.07-.07.32-.4.38-.49h0a4.17,4.17,0,0,0,.41-.53h.07v-.09a2.28,2.28,0,0,1,.38-.38c0-.06.06-.08.07-.13h0a2.32,2.32,0,0,0,.25-.27h0c0-.05,0,0,.08,0a.06.06,0,0,1,0-.08h0a.28.28,0,0,1,0-.13h0a.2.2,0,0,1,.07-.09.4.4,0,0,0,.15-.15h.08s-.53-.63-.72-.68h0a2.13,2.13,0,0,0-.31.29h0l-.07.1h0Z"/></g><g class="cls-15"><path class="cls-10" d="M385.13,285.24s0,0,.05,0Z"/><path class="cls-10" d="M384.57,285.85h-.06c-.06,0,0,0,0,.08h0a3.47,3.47,0,0,0-.31.36h0c0,.09,0,0-.06.08s0,.09,0,.1h-.05s-.05,0,0,.08H384a.11.11,0,0,0,0,.08h0c0,.06-.1.24-.08.3h0l-.06-.06a3.27,3.27,0,0,1-.28.37h0v.05h.06v.07l-.1.13h0s-.05.08,0,.13l.68.69h0c.05,0,0-.06,0-.06h0v-.09h.11c.06-.07.27-.4.32-.49h0c.08-.13.27-.38.34-.52l.08,0h0V287a2,2,0,0,1,.33-.39c0-.06.05-.08.06-.13h0c0-.05.2-.23.22-.27h0c0-.06,0,0,.08,0m0-.08h0V286h0s0-.08.05-.1a.2.2,0,0,0,.13-.14H386a3.8,3.8,0,0,0-.76-.63h0a1.92,1.92,0,0,0-.28.29h0l-.07.1h0l-.27.3Z"/></g><g class="cls-15"><path class="cls-10" d="M380.73,286h-.05c-.06,0,0,.08,0,.1h0c0,.07-.2.47-.22.56s0,0,.06,0,0,0,0,.05,0,0-.09,0h0V287h0V287h0c0,.05-.06.06,0,.1h-.06a.2.2,0,0,0,0,.11h0v.37h0l-.07,0a4.34,4.34,0,0,1-.25.54H380v.06h.07v.09a.7.7,0,0,1-.1.19h0s-.06.11,0,.16l.76.58h0v0c0-.06,0,0,0,0s0-.05,0-.06h0s0-.1.05-.13h0a.09.09,0,0,1,.06-.08h0s0-.07.06-.08h0c.07-.12.27-.62.32-.74h0a4.59,4.59,0,0,0,.29-.81.1.1,0,0,1,.07-.09h0v-.12a4.44,4.44,0,0,1,.25-.66v-.18h0c0-.07.13-.4.14-.46h0c0-.07,0,0,.06-.09a.07.07,0,0,1,0-.09h0v-.17h0v-.15a.5.5,0,0,0,.08-.26h.07a2.58,2.58,0,0,0-1-.21h0m0,0h0a4,4,0,0,0-.16.49h0v.15h0l-.39.53Z"/></g><path class="cls-14" d="M379.1,278a.06.06,0,0,0,0,.06A.06.06,0,0,0,379.1,278Z"/><path class="cls-14" d="M379.68,278.48h0v0c0,.06,0,0,.07,0h0s.2.28.24.32,0,0,0-.05h0v.08h0c.07,0,0,0,.05.07s.07,0,.07,0h0V279h0v.05h0a2.55,2.55,0,0,0,.21.18h-.08a1.87,1.87,0,0,1,.13.4h.09a.38.38,0,0,0,0,.15h0v.09h.94v0h0v-.06h0v-.12h0v-.08h0v-.09h0a4.17,4.17,0,0,0-.25-.67h0a3.77,3.77,0,0,0-.39-.64v-.09h0l-.07-.06a3.41,3.41,0,0,1-.37-.48.15.15,0,0,0-.13-.09h0c-.1-.1-.21-.19-.32-.28h0c-.06,0,0,0-.05-.08a.07.07,0,0,1-.09,0h-.14a.24.24,0,0,1-.11-.06c-.06,0-.12-.12-.19-.13v-.08h0a4.28,4.28,0,0,0-.4.93h0l.26.22h.09Z"/><path class="cls-14" d="M382.91,275.49a.09.09,0,0,0,0,.07A.09.09,0,0,0,382.91,275.49Z"/><path class="cls-14" d="M383.27,276.56h0v.08c0,.08,0,.07.06.08h0s.17.48.22.57,0,0,0-.08h0v.1h0c.07.09,0,0,.06.11s.08.06.08.09h.05c.05,0,0,.05,0,0h0s0,.08.05.09h0a0,0,0,0,1,0,.07h0a.22.22,0,0,0,.07.09h0c.05,0,.19.25.24.28H384a5.55,5.55,0,0,1,.24.56h.14s.06.14.08.21h0a.13.13,0,0,0,.1.13l.89-.32h0v-.06h0c.06,0,0-.05,0-.05h0s0,0,0-.06h0c0-.06-.06-.05-.06-.12h0v-.07h0v-.09h0a3.87,3.87,0,0,0-.33-.68h0c-.1-.18-.25-.54-.37-.72s0-.07,0-.11h0l-.07-.09a3.22,3.22,0,0,1-.24-.61c-.05,0-.05-.11-.1-.14h0a3.7,3.7,0,0,0-.17-.42h0v-.1a.09.09,0,0,1-.1,0h0a.52.52,0,0,1-.1-.11h0a.88.88,0,0,0-.07-.12.5.5,0,0,0-.09-.24v-.09h0s-.76.26-.87.45h0s.11.33.18.48h0a.6.6,0,0,0,.09.13h0Z"/><path class="cls-14" d="M386.39,275.78h0v.08c0,.08,0,.08.06.08h0a5.94,5.94,0,0,0,.27.57v-.07h0v.11h0c.09.09,0,0,.07.11s.08.06.08.09h0v.06c0,.05,0,.05.05,0s0,.05,0,0h0s0,.07.06.08h0V277h0a.16.16,0,0,0,.07.09h0c.06,0,.22.25.28.27h-.08a5.77,5.77,0,0,0,.29.55h.14a.72.72,0,0,0,.09.2h0s.06.11.11.13l.87-.38h.05c.06,0,0-.06,0,0v-.06h0s-.07,0-.07-.11h0v-.09h0v-.09h0a3.07,3.07,0,0,0-.39-.67h0c-.1-.18-.29-.54-.41-.71a.24.24,0,0,0,0-.12h0l-.08-.08a4.27,4.27,0,0,1-.29-.61c-.05,0-.06-.11-.11-.16h0a3.22,3.22,0,0,0-.21-.41h0v-.1a.09.09,0,0,1-.1,0h0l-.14.06h0l-.09-.12a.51.51,0,0,0-.1-.24v-.09h0s-.74.32-.84.52h0v.05a3.75,3.75,0,0,0,.21.5h0a.64.64,0,0,1,.1.13h0A.89.89,0,0,1,386.39,275.78Z"/><path class="cls-14" d="M390.13,273V273A.09.09,0,0,0,390.13,273Z"/><path class="cls-14" d="M390.68,274h0v.08c0,.07,0,.07.08.06h0l.26.6v-.08h0v.11h0c.08.09,0,0,.06.11s.07.07.07.1h0V275c0,.06,0,0,.06,0s0,.07,0,0h0v.1h0m0,.08h0a.24.24,0,0,0,.06.11h0c.05,0,.17.28.23.32h-.08a3.33,3.33,0,0,1,.16.64h.08s0,.16,0,.24h0s0,.12.07.16h.94v-.05h0v-.06h0v-.07h0c0-.07-.05-.1,0-.16h0v-.1h0v-.11h0a9,9,0,0,0-.25-.89h0a5,5,0,0,0-.36-.9.24.24,0,0,0,0-.12h0l-.08-.1a4.36,4.36,0,0,1-.32-.73.28.28,0,0,0-.13-.16h0s-.22-.41-.28-.47h0v-.12c0-.06-.09,0-.11,0h0l-.13-.11h0c-.05,0-.1-.1-.12-.14a.67.67,0,0,0-.16-.25V272h0s-.67.48-.73.69h.06v0a2,2,0,0,0,.28.47h0l.09.12h0a1.1,1.1,0,0,1,.25.62Z"/><path class="cls-14" d="M395,272.73v.06C395,272.86,395,272.75,395,272.73Z"/><path class="cls-14" d="M395.42,273.79h0v.08c0,.08,0,.08.07.08h0a4,4,0,0,0,.23.59c0,.09,0,0,0-.08h0v.1h0c.07.1,0,0,0,.12s.08.06.07.1h0v.1h0V275h0a.36.36,0,0,0,.07.1h0s.16.28.23.3H396a4.31,4.31,0,0,1,.19.61h.06s.08,0,.08,0a1.42,1.42,0,0,0,.05.22h0s0,.13.08.16l.93-.13h0m0-.06h0v-.06h0c0-.07-.06-.09,0-.15h0v-.1h0v-.1h0a5.19,5.19,0,0,0-.28-.81h0a6,6,0,0,0-.36-.82v-.12h0l-.07-.1c-.1-.22-.19-.45-.27-.68-.05,0-.06-.13-.12-.17h0a4.54,4.54,0,0,0-.21-.45h0c-.06,0,0,0,0-.11s-.09,0-.1,0h0a.63.63,0,0,1-.12-.11h0a.26.26,0,0,1-.1-.13.88.88,0,0,0-.12-.26V272h0s-.72.36-.81.56h0v.05a2.43,2.43,0,0,0,.23.49h0l.09.13h0a1.42,1.42,0,0,1,.23.6Z"/><path class="cls-14" d="M399.53,273.14h0v.07c0,.07,0,.07.06.07h0a4.25,4.25,0,0,0,.21.49h0v.1h0c.08.07,0,0,0,.09s.08.05.08.09h0s0,.05.05,0h0v.08h0v.07h0a.18.18,0,0,0,.06.09h0c.05,0,.16.23.22.25h-.08a4.48,4.48,0,0,1,.16.52h.13v.18h0a.17.17,0,0,0,.07.14l.93-.17h0m0,0h0v-.06h0c0-.05-.05-.06,0-.12h0v-.09h0v-.09h0a4.85,4.85,0,0,0-.26-.69h0a5.51,5.51,0,0,0-.31-.7.2.2,0,0,0,0-.11h0l-.08-.08a6,6,0,0,1-.25-.58s-.06-.11-.1-.14h0s-.16-.33-.2-.39h0V272c0-.1-.07,0-.08,0h0a.35.35,0,0,1-.11-.09h0a.24.24,0,0,1-.08-.11.26.26,0,0,0-.12-.22v-.07h0s-.7.4-.78.59h0v.06c.06.14.13.27.2.4h0l.08.1h0l.2.47Z"/><path class="cls-14" d="M400.92,267v.06C400.92,267.12,400.94,267,400.92,267Z"/><path class="cls-14" d="M401.62,267.72h0v.07c0,.07,0,0,.07,0h0a4.25,4.25,0,0,0,.39.35v-.08h0v.1h0c.08,0,0,0,.08.06s.09,0,.1,0h.05s0,0,.07,0h0v.06h.09c.06,0,.25.11.31.1h0l-.06.06a1.62,1.62,0,0,1,.39.32h.06v-.07h.08a.53.53,0,0,0,.14.12h0a.31.31,0,0,0,.13.06l.64-.73h0v-.05c0-.06,0,0,0,0h0c0-.06-.07,0-.1-.07h0v0h0l-.05-.07h0a3.68,3.68,0,0,0-.51-.37h0c-.14-.09-.4-.31-.54-.39s0-.05,0-.08h-.1a2.05,2.05,0,0,1-.41-.37.12.12,0,0,1-.13-.07h0a2.84,2.84,0,0,0-.29-.24h0v-.07c0-.08-.07,0-.09,0h-.12s-.09,0-.11-.06a.28.28,0,0,0-.15-.15V266h0a3.62,3.62,0,0,0-.58.81h0l.31.32h0a.42.42,0,0,0,.11.07h0S401.62,267.71,401.62,267.72Z"/><path class="cls-14" d="M401,263.75h0s0,.06.06,0,.06,0,.07,0h0a1.85,1.85,0,0,0,.47,0v-.05h0l.05.08h.1c.09,0,.06-.06.08,0H402a1,1,0,0,0,.28-.12h0v.08h.47v-.07h0s0-.08.05-.06h.29a7.2,7.2,0,0,0,.08-1h-1.59a1.4,1.4,0,0,1-.5,0h-.55a.07.07,0,0,1-.06.07h-.4v-.08h0a3.49,3.49,0,0,0,0,1h0a1.27,1.27,0,0,0,.39,0h.12Z"/><path class="cls-14" d="M397.24,260h0Z"/><path class="cls-14" d="M398.18,259.87h.13a2.16,2.16,0,0,0,.49-.16h0c.07-.07,0,0,.1,0s0-.08.07-.07h0s.05,0,0-.05.05,0,0,0h.13a.13.13,0,0,0,.09-.07h0s.2-.19.21-.25h0v.09a3.14,3.14,0,0,1,.44-.27h0v0h0V259l.15-.09h0s.09-.06.1-.12-.43-.8-.45-.87h0c-.06,0,0,.08-.08.08h-.12l-.47.32h0c-.13.08-.39.22-.51.31s-.07,0-.09,0h0l-.06.05a1.33,1.33,0,0,1-.47.17c0,.05-.08,0-.11.07h0l-.33.1h-.08a.07.07,0,0,1,0,.09h0l-.09.09H397l-.06-.06h0a3.66,3.66,0,0,0,.23,1h0a2.14,2.14,0,0,0,.43-.07h0a.24.24,0,0,1,.11-.06h0A1.41,1.41,0,0,1,398.18,259.87Z"/><path class="cls-14" d="M396.51,256.45h0Z"/><path class="cls-14" d="M397.67,256.05h.08c.07,0,.08,0,.08-.08h0a3.08,3.08,0,0,0,.59-.33h0c.08-.09,0,0,.11-.08s.05-.1.08-.1h.06c.05,0,.05,0,0-.05s.06,0,0,0h0a.08.08,0,0,0,.08-.08h.07a.32.32,0,0,0,.1-.1h0c0-.06.24-.26.25-.34h0V255l.51-.44h0v-.07h-.06v-.08l.17-.17h0a.47.47,0,0,0,.11-.16,4.78,4.78,0,0,0-.58-.78h0v-.07c0-.07-.05,0,0,0h-.05s0,.09-.08.1h-.16c-.09.08-.45.44-.55.52h0c-.15.14-.46.37-.62.51h-.1l-.09.08a2.45,2.45,0,0,1-.57.32c0,.06-.11.06-.15.12h0s-.34.15-.39.19h-.11s0,.07,0,.08h0a.38.38,0,0,1-.11.11h0l-.13.08a.46.46,0,0,0-.25.08h-.07s.18.82.35.94h.05a2.72,2.72,0,0,0,.55-.18h0a.51.51,0,0,1,.13-.09h0Z"/><path class="cls-14" d="M395.73,251.29a.06.06,0,0,0,.06,0S395.74,251.26,395.73,251.29Z"/><path class="cls-14" d="M396.61,250.74h.07c.07,0,.06,0,.05-.08h0a3.83,3.83,0,0,0,.46-.33h0c.07-.09,0,0,.09-.08s0-.09.07-.1h0v-.06c0-.07.05,0,0,0h0a.06.06,0,0,0,.06-.07h0m.08,0h0l.07-.09h0c0-.05.19-.23.19-.29h0v.08a3.08,3.08,0,0,1,.44-.35h0l-.06-.05h0v-.08l.16-.12h0a.33.33,0,0,0,.09-.12,7.41,7.41,0,0,0-.48-.86h0v.06h0c-.05,0,0,.07-.08.07h-.16c-.09.07-.44.39-.53.45h0a6.52,6.52,0,0,0-.55.5h-.1l-.06.09a2.09,2.09,0,0,1-.49.35c0,.06-.08.08-.12.13h0a3.6,3.6,0,0,0-.33.25h0c0,.06,0,0-.08,0a.17.17,0,0,1,0,.1h0a.61.61,0,0,1-.09.12h0l-.09.09a.55.55,0,0,0-.2.13H395s.4.73.59.81h.06A3.39,3.39,0,0,0,396,251h0l.11-.1h0a1.28,1.28,0,0,1,.47-.18Z"/><path class="cls-14" d="M395.2,246h0Z"/><path class="cls-14" d="M396,245.54h.06c.07,0,.07,0,.06-.07h0a3.7,3.7,0,0,0,.43-.25h0c.06-.09,0,0,.08-.07s0-.09.06-.09h0V245c0-.06.05,0,0,0h0s.08,0,.08-.07h.06a.12.12,0,0,0,.07-.07h0c0-.06.18-.21.19-.28h0v.09a3.13,3.13,0,0,1,.42-.29h0l-.06-.06h0v-.08l.16-.09h0a.35.35,0,0,0,.09-.12,8.76,8.76,0,0,0-.43-.87h0v0c0-.06-.06,0,0,0h0s0,.07-.09.07h-.13c-.1,0-.42.32-.5.38h0a5.25,5.25,0,0,0-.53.4H396l-.05.08a2.59,2.59,0,0,1-.47.29s-.09.06-.11.11h0a2.21,2.21,0,0,0-.32.2h0s0,0-.08,0a.06.06,0,0,1,0,.08h0a.44.44,0,0,1-.08.11h0l-.08.09s-.15,0-.19.1h-.07a3.33,3.33,0,0,0,.53.86h0a2,2,0,0,0,.38-.2h0l.09-.08h0Z"/><path class="cls-14" d="M394.67,242h.07S394.68,242,394.67,242Z"/><path class="cls-14" d="M395.6,241.52h.07c.06,0,.07,0,.06-.07h0a2.55,2.55,0,0,0,.47-.31h0c0-.09,0,0,.08-.08s0-.09.07-.09h0v-.05h0s.06,0,.06-.08h.06a.15.15,0,0,0,.06-.09h0a1.31,1.31,0,0,0,.18-.3h0s.05.08,0,.08c.13-.13.26-.26.4-.38h-.06v-.08l.14-.13h0s.08-.08.08-.14l-.61-.75h0V239c0-.05-.05,0,0,0h-.05c-.05,0,0,.08-.08.09h-.12l-.44.47h0c-.11.13-.38.33-.49.48s-.05,0-.08,0h0l-.07.07a1.77,1.77,0,0,1-.46.31.58.58,0,0,0-.1.11h0a3.69,3.69,0,0,0-.32.2h-.09a.09.09,0,0,1,0,.1h0a.41.41,0,0,1-.07.11h0a.11.11,0,0,0-.1.08.32.32,0,0,0-.19.07H394a3.37,3.37,0,0,0,.47.89h0a2.08,2.08,0,0,0,.43-.19h0l.11-.09h0Z"/><path class="cls-14" d="M395.41,238.27h0a1.21,1.21,0,0,0,.25-.08h0s.1-.12.1-.17h0v.08l.24-.1v.06h0V238h0v-.06h.09v-.08a8.42,8.42,0,0,0-.29-.93h-.05l-.29.15h0a2.11,2.11,0,0,0-.3.16h-.06a.5.5,0,0,1-.27.08h-.06s-.16,0-.18.07h-.05s0,.06,0,.07h0v.08h-.17v-.05h0a6.74,6.74,0,0,0,.34,1H395S395.41,238.26,395.41,238.27Z"/><path class="cls-14" d="M385.67,211.86h0a.06.06,0,0,0,.06-.06h0a2.25,2.25,0,0,0,.44-.14h0c.07-.07,0,0,.09,0s0-.07.06-.07h.13a.1.1,0,0,0,.08-.05h0s.2-.14.21-.21h0v.09a3.69,3.69,0,0,1,.42-.17h0v-.06h0v-.07h.16a.11.11,0,0,0,.11-.09,6.08,6.08,0,0,0-.27-.95h0V210H387l-.52.24h0c-.12.07-.4.18-.54.27h0l-.06.05a1.63,1.63,0,0,1-.47.16s-.08,0-.12.07h0a2.4,2.4,0,0,0-.31.11h-.08a.14.14,0,0,1,0,.09h0a.36.36,0,0,1-.09.09h-.1a.28.28,0,0,0-.18,0h-.06a4.77,4.77,0,0,0,.34,1h0a1.64,1.64,0,0,0,.38-.1h0l.1-.06h0S385.66,211.85,385.67,211.86Z"/><path class="cls-14" d="M383.86,209.35h.07c.06,0,0,0,0-.06h0a2.35,2.35,0,0,0,.29-.26h.08c0-.06,0,0,.05-.05s0-.08,0-.08h.06v-.07h0c0-.05.09-.18.08-.25h0s.05.08,0,.08a3.57,3.57,0,0,1,.27-.28h-.06v-.07l.1-.09h0s.05,0,0-.1-.54-.73-.58-.77h0m0,0h0s0,.07-.05.07h-.06c-.06,0-.26.3-.32.37h0a3,3,0,0,0-.32.39h-.08v.07a1,1,0,0,1-.31.27.48.48,0,0,0-.06.11h0a1.81,1.81,0,0,0-.22.2h-.07a.08.08,0,0,1,0,.09h0v.1h0l-.06.07c-.06.08-.1,0-.12.1h-.08a4.72,4.72,0,0,0,.67.74h0a1.64,1.64,0,0,0,.26-.2h0l.06-.08h0l.4-.25Z"/><path class="cls-14" d="M332.91,236.3Z"/><path class="cls-14" d="M333.72,236.44h.08a1.69,1.69,0,0,0,.45,0h0l.06.07h0c.07-.06,0,0,.08,0s.05-.07.08,0h.16s.21-.13.23-.19h0v.09a2.64,2.64,0,0,1,.42-.13c.05,0,0,.05,0,.05h0v-.06h0v-.07h.16s.07,0,.09-.09a6.72,6.72,0,0,0-.29-.93h0v-.06h0s0,.07-.08,0h-.05l-.42.18h0a1.72,1.72,0,0,0-.46.14h-.13a.9.9,0,0,1-.4,0h-.37a.09.09,0,0,1,0,.07h0l-.1.05h-.08s-.11-.06-.16,0v-.06h0a4.27,4.27,0,0,0-.09,1h0a2.38,2.38,0,0,0,.37.06h.11Z"/><path class="cls-14" d="M333.39,231.92h0a1,1,0,0,0,.34,0h0V232h.08c.07,0,.05-.05.06,0H334a.75.75,0,0,0,.21-.13h0V232a2,2,0,0,1,.35,0h0v-.08h0v0h.21s.06-.92.06-1H333.7a1.09,1.09,0,0,1-.36,0h-.42a.06.06,0,0,1,0,.06h-.3v-.06h0a4.35,4.35,0,0,0,0,1H333Z"/><path class="cls-14" d="M334,227.28h.05a.58.58,0,0,0,.25.09v-.05h0v.09h.16s.14,0,.16-.09h0v.09a.35.35,0,0,1,.25.05h0v-.08h.16s.23-.89.25-.95h-.78a.62.62,0,0,1-.27-.09h-.09s-.15-.07-.19,0h0a0,0,0,0,1,0,.06h-.12s-.06-.06-.11,0v-.06h0a6.78,6.78,0,0,0-.19,1h0a.72.72,0,0,0,.2.09h.07Z"/><path class="cls-14" d="M335.19,223.69h0s.15.09.18.08h0v.07h.06s.11,0,.14-.07h0v.08h.2v-.06h.13a5.6,5.6,0,0,0,.29-.95h-.53a.4.4,0,0,1-.21-.09h-.07s-.11-.06-.14,0h0v.07h-.07s0-.07-.08,0v-.07h0c-.1.33-.19.65-.26,1h0a.34.34,0,0,0,.16.1H335Z"/><g class="cls-13"><path d="M352.43,210.11a36.07,36.07,0,0,0,3.35,9.29,4.47,4.47,0,0,0,1.93,2.2c1.61.69,3.3-.68,4.55-1.95a3.11,3.11,0,0,0,2.62,3.1,6.19,6.19,0,0,0,4.18-1.1,26.64,26.64,0,0,0,8-8.15,54,54,0,0,1-5.84,4.39c-1.42.94-3.21,1.83-4.72,1s-2.16-2.88-3.77-3c-2.09-.16-3.29,3.29-5.35,2.94-1.18-.17-1.84-1.49-2.3-2.65L352.57,210"/></g><g class="cls-13"><path d="M375.32,294.75a4.18,4.18,0,0,1,.39-3.12,3.06,3.06,0,0,1,2.38-1,18,18,0,0,1,5.77,1.28,39.1,39.1,0,0,0,13.28,1.73,11.59,11.59,0,0,1-6.94,2.73,34.33,34.33,0,0,1-7.5-.55l-7.76-1.1"/></g><polygon class="cls-6" points="320.88 413 321.19 459.2 340.9 457.72 345.31 412.71 320.88 413"/><path class="cls-5" d="M341.59,448.65S327.72,459,321,450l-1.76,4.34-7.89,31a4.23,4.23,0,0,0,2.22,5,3.66,3.66,0,0,0,4-.82c5.72-5.71,26.61-26.85,26.41-29.68l-.08-7.61a3.86,3.86,0,0,0-2.34-3.56Z"/><path class="cls-16" d="M314.25,490.55,344,457.2v1.66c.15,1.8-.59,2.51-1.41,3.66-2.41,3.42-9.08,11.07-24.88,27a3.66,3.66,0,0,1-3.47,1Z"/><g class="cls-15"><path class="cls-10" d="M339.66,452.22a2.52,2.52,0,0,0-.65,3.17,2.16,2.16,0,0,0,3,.7,2.67,2.67,0,0,0,.66-3.37,2.23,2.23,0,0,0-3.18-.36"/></g><path class="cls-4" d="M322.83,473.45c-.21.11-1.05-1.95-3.25-3.07s-4.24-.64-4.28-.88.44-.39,1.3-.52a6,6,0,0,1,5.84,3C322.87,472.83,322.92,473.42,322.83,473.45Z"/><path class="cls-4" d="M320.14,478.68c-.17.18-1.37-1.1-3.29-1.69s-3.57-.26-3.63-.52,1.69-1,3.87-.3S320.35,478.58,320.14,478.68Z"/><path class="cls-4" d="M327.8,466.74c-.18.19-2-1.79-4.92-3s-5.52-1.1-5.52-1.37,2.71-.75,5.82.57S328,466.63,327.8,466.74Z"/><path class="cls-4" d="M328.5,457.31c-.1.23-2.15-.68-4.84-.79s-4.79.55-4.87.31,2.08-1.32,4.92-1.17S328.57,457.13,328.5,457.31Z"/><path class="cls-4" d="M322.1,456.43a3.6,3.6,0,0,1,.21-1.46,10.6,10.6,0,0,1,1.78-3.61,4.37,4.37,0,0,1,2.22-1.78,1.49,1.49,0,0,1,1.63.69,2.76,2.76,0,0,1,.27,1.85,5.43,5.43,0,0,1-5.57,4.25,6.31,6.31,0,0,1-5.44-4.58,2.34,2.34,0,0,1,.24-1.88,1.46,1.46,0,0,1,1.69-.53,5.34,5.34,0,0,1,2.17,1.81,11.11,11.11,0,0,1,2,3.48,3.74,3.74,0,0,1,.33,1.44,18.22,18.22,0,0,0-2.73-4.52,4.85,4.85,0,0,0-1.93-1.52.79.79,0,0,0-.93.28,1.74,1.74,0,0,0-.08,1.25,5.66,5.66,0,0,0,4.76,3.91,4.72,4.72,0,0,0,4.78-3.53,2,2,0,0,0-.14-1.31.83.83,0,0,0-.9-.39,3.89,3.89,0,0,0-1.9,1.48A15.2,15.2,0,0,0,322.1,456.43Z"/><polygon class="cls-6" points="274.46 373.24 250.34 421.43 269.6 433.57 300.74 387.4 274.46 373.24"/><path class="cls-5" d="M253.35,415l-.78,1.33s-26.89-4.82-29.64-.66l43,27.49,8.09-15.4C265.83,426.72,258.92,422.8,253.35,415Z"/><g class="cls-15"><path class="cls-10" d="M266.87,429.71a2.29,2.29,0,0,1,0,2.88,1.91,1.91,0,0,1-2.72,0,2.37,2.37,0,0,1,0-3,2,2,0,0,1,2.82.3"/></g><g class="cls-15"><path class="cls-10" d="M265.9,443.11l2-3.71L226,414.45s-2.41-.35-3,1.21Z"/></g><path class="cls-4" d="M252.34,416.35c-.12.23.88,1,1.49,2.37s.64,2.65.89,2.68.67-1.44-.11-3.08S252.41,416.12,252.34,416.35Z"/><path class="cls-4" d="M246.71,415.42c-.18.17.52,1.1.69,2.53s-.19,2.5,0,2.63,1-1.05.81-2.76S246.83,415.23,246.71,415.42Z"/><path class="cls-4" d="M240.87,419.48c.17.17,1-.75,1.25-2.3s-.54-2.66-.74-2.54,0,1.16-.1,2.44S240.68,419.32,240.87,419.48Z"/><polygon class="cls-2" points="297.2 382.3 297.2 481.13 303.6 481.13 303.6 374.44 297.2 382.3"/><rect class="cls-2" x="390.03" y="366.83" width="6.22" height="114.3"/><rect class="cls-2" x="303.6" y="382.3" width="86.43" height="7.3"/><path class="cls-5" d="M307.51,346.14h87.81a4,4,0,0,1,3.92,4.12V362.7a4,4,0,0,1-3.92,4.12H307.51a4,4,0,0,1-3.91-4.12V350.26A4,4,0,0,1,307.51,346.14Z"/><path class="cls-4" d="M392.09,297.1s13,24.28,11.08,41.24-5.48,17-5.48,17l-42.12-2.44-6.05-53.32,10.27-6.05Z"/><polygon class="cls-9" points="282.31 241.85 292.84 294.66 342.56 299.51 374.62 297.19 363 285.49 349.52 288.53 344.72 237.42 282.31 241.85"/><path class="cls-6" d="M351.62,285.34c1.45,4.22,8.29.25,8.29.25l-.47,7.52-4.26,3.2s0,2,2.81,2.2a9.11,9.11,0,0,0,3.95-.31l.15,1a2.28,2.28,0,0,0,2.16,2,2.63,2.63,0,0,0,1.32-.23s3,2.28,5.81.63a8.21,8.21,0,0,0,3.56-4.86l.46-6.21,3.62-2.64s3-5.8-.76-9.79a7.15,7.15,0,0,0-7.62-1.76l-5.79,2a5.65,5.65,0,0,0-4.11,1.15c-1,.74-2.17,1.62-3.22,2.28C357.52,281.82,351.31,284.46,351.62,285.34Z"/><path class="cls-7" d="M365.06,291.55a3.12,3.12,0,0,1,.27,1.26,9.85,9.85,0,0,1,0,3.16,3.5,3.5,0,0,1-.78,1.62,2.84,2.84,0,0,1-1.21.78c-.83.22-1.3-.15-1.26-.19a2.8,2.8,0,0,0,1.13-.2,2.91,2.91,0,0,0,1.6-2.14,15.88,15.88,0,0,0,.15-3C364.9,292,365,291.56,365.06,291.55Z"/><path class="cls-7" d="M359.91,285.59a28,28,0,0,1-.51,7.52,26.72,26.72,0,0,1,.47-7.52Z"/><path class="cls-7" d="M369.87,293.37a4.12,4.12,0,0,1,.27,1.47,6.44,6.44,0,0,1-.63,3.59,5.43,5.43,0,0,1-2.71,2.3c-.83.34-1.37.4-1.4.32a6.89,6.89,0,0,1,1.25-.68,6,6,0,0,0,2.39-2.2,7.35,7.35,0,0,0,.71-3.3C369.77,293.92,369.78,293.37,369.87,293.37Z"/><path class="cls-4" d="M377.73,290.08a19.47,19.47,0,0,1,1.35-2.75,9.2,9.2,0,0,0,.84-3.14,7.93,7.93,0,0,0-2.82-7,8.2,8.2,0,0,0-2.75-1.46,20.15,20.15,0,0,0-2.88-.49,2.2,2.2,0,0,1,.8-.13,7.93,7.93,0,0,1,2.17.22,8.2,8.2,0,0,1,3,1.44,8,8,0,0,1,2.47,3.3,8.47,8.47,0,0,1,.55,4.17,9.11,9.11,0,0,1-1.05,3.3,22.44,22.44,0,0,1-1.19,1.91C377.93,289.89,377.76,290.13,377.73,290.08Z"/><path class="cls-17" d="M318.23,266.64a3.14,3.14,0,1,1-3.13-3.3A3.21,3.21,0,0,1,318.23,266.64Z"/><path class="cls-4" d="M324.32,324.56l-.28.17a21.2,21.2,0,0,0-9.6,18.89l3.13,71.47,30.49,3.23,1-64.65,12.67-1.62-21.11-24.92A12.44,12.44,0,0,0,324.32,324.56Z"/><path class="cls-4" d="M266.56,386.21l40.64-85.84s5.76-8.9,13.82-8.49,58.34,17.37,58.34,17.37v43.23l-17.65-.4-39.93-4-26.94,54.8Z"/><path class="cls-9" d="M363.6,352.12a2.91,2.91,0,0,1-.33-.37l-.9-1.1-3.44-4.4-12.36-16.12h0c-3-5.06-9.83-8.06-16.71-6.83a18,18,0,0,0-9.53,4.88,15.15,15.15,0,0,0-3.25,4.75,19.69,19.69,0,0,0-1.36,5.86q-.25,3.68-.15,7.35c0,2.43,0,4.83.06,7.17.08,4.7.16,9.23.23,13.55.18,8.64.42,16.42.65,22.94s.47,11.78.61,15.47c.08,1.79.13,3.2.17,4.2v1.1a2.29,2.29,0,0,1,0,.37,2.16,2.16,0,0,1,0-.36,6,6,0,0,0-.08-1.1c-.08-1-.16-2.4-.27-4.19-.22-3.65-.52-8.93-.79-15.46s-.56-14.29-.77-22.94c-.08-4.32-.17-8.85-.26-13.56,0-2.35,0-4.74-.07-7.17s0-4.94.15-7.41a20.14,20.14,0,0,1,1.4-6,15.46,15.46,0,0,1,3.39-4.92,18.34,18.34,0,0,1,9.81-5c7-1.25,14.06,1.85,17.12,7.12h0l12.22,16.2,3.33,4.48.86,1.18A3.38,3.38,0,0,1,363.6,352.12Z"/><path class="cls-9" d="M348.55,382.43c-.16,0-.28-9-.28-20.08s.12-20.08.28-20.08.27,9,.27,20.08S348.69,382.43,348.55,382.43Z"/><path class="cls-9" d="M389,315.08a1.94,1.94,0,0,1-.57-.2l-1.6-.67L381,311.68c-5-2.11-11.86-4.92-19.57-7.7s-14.77-5.12-19.91-6.71l-6.09-1.86-1.65-.52a1.77,1.77,0,0,1-.56-.22,3.84,3.84,0,0,1,.59.11l1.69.42c1.45.36,3.55.93,6.13,1.68,5.22,1.49,12.26,3.74,20,6.6s14.63,5.71,19.53,7.92c2.47,1.1,4.45,2,5.81,2.69l1.56.78A2.66,2.66,0,0,1,389,315.08Z"/><path class="cls-9" d="M390.21,305.81a27.67,27.67,0,0,1-3.75-.15c-2.29-.15-5.48-.32-9-.41l-9-.19a23.39,23.39,0,0,1-3.74-.21,3.38,3.38,0,0,1,1.05-.11c.65,0,1.59-.06,2.74-.08,2.31,0,5.51-.08,9,0s6.73.31,9,.57c1.15.12,2.09.24,2.72.35A3.77,3.77,0,0,1,390.21,305.81Z"/><path class="cls-9" d="M299.81,392c-.09,0-1.16-1.55-3.21-3.86a44.18,44.18,0,0,0-3.82-3.8,47.12,47.12,0,0,0-5.23-3.91,45,45,0,0,0-5.74-3,42.37,42.37,0,0,0-5-1.79c-2.89-.82-4.74-1.1-4.73-1.16a4.44,4.44,0,0,1,1.31.1,11.18,11.18,0,0,1,1.52.24c.6.12,1.28.23,2,.44a35.55,35.55,0,0,1,5.08,1.68,43.57,43.57,0,0,1,5.83,3,42.85,42.85,0,0,1,5.29,4,39.91,39.91,0,0,1,3.78,3.91c.52.58.93,1.17,1.31,1.66a13.24,13.24,0,0,1,.92,1.3A6.84,6.84,0,0,1,299.81,392Z"/><path class="cls-9" d="M349.46,408.17c0,.1-1.69-.85-4.49-2.08a49.38,49.38,0,0,0-23.11-3.95c-3,.22-4.88.58-4.89.47a5.6,5.6,0,0,1,1.28-.33,30.92,30.92,0,0,1,3.58-.54,43.87,43.87,0,0,1,11.89.42,45.12,45.12,0,0,1,11.41,3.56,31.11,31.11,0,0,1,3.22,1.72A5.46,5.46,0,0,1,349.46,408.17Z"/></g><g id="freepik--Plant--inject-3"><rect class="cls-4" x="91.58" y="427.69" width="60.43" height="8.74"/><path class="cls-4" d="M152.12,436.53H91.47v-8.95h60.65Zm-60.44-.22H152v-8.53H91.68Z"/><polygon class="cls-4" points="97.19 433.52 105.88 478.68 138.07 478.68 146.48 436.43 97.19 433.52"/><polygon class="cls-4" points="97.19 474.42 101.83 481.13 140.94 481.13 146.48 474.42 97.19 474.42"/><path class="cls-4" d="M119.58,434.84c-.12,0-.27-20.89-.34-46.74s0-46.74.09-46.74.27,20.89.34,46.74S119.65,434.84,119.58,434.84Z"/><path class="cls-4" d="M133,382.43a4,4,0,0,1-.17.49l-.54,1.35-.39,1-.41,1.19L131,387.8c-.15.48-.28,1-.44,1.55a64.46,64.46,0,0,0-1.69,7.8q-.7,4.83-.94,9.74a139.05,139.05,0,0,0,.48,17.79c.2,2.26.39,4.1.53,5.36l.16,1.46a2.26,2.26,0,0,1,0,.52,2.78,2.78,0,0,1-.11-.5,12.68,12.68,0,0,0-.23-1.45c-.19-1.26-.44-3.1-.67-5.36a122.26,122.26,0,0,1-.61-17.85,97.14,97.14,0,0,1,1-9.79,61.37,61.37,0,0,1,1.8-7.81c.17-.55.3-1.1.48-1.55s.33-.93.5-1.36l.43-1.18c.16-.36.3-.68.44-1l.6-1.32A5,5,0,0,1,133,382.43Z"/><path class="cls-4" d="M131.45,365.55a5.31,5.31,0,0,1-.2.68l-.63,1.94c-.13.43-.29.9-.45,1.41s-.32,1.1-.5,1.69c-.35,1.21-.76,2.59-1.12,4.14-.19.77-.4,1.57-.61,2.42s-.37,1.72-.56,2.64c-.42,1.82-.74,3.8-1.12,5.87-.67,4.15-1.26,8.79-1.66,13.6s-.55,9.48-.61,13.7,0,8,.21,11.2c0,1.6.15,3,.23,4.3s.15,2.35.22,3.24.11,1.54.15,2.05a4.21,4.21,0,0,1,0,.71,4.08,4.08,0,0,1-.11-.7c-.06-.51-.13-1.19-.23-2.05s-.2-2-.29-3.24-.22-2.7-.29-4.3c-.21-3.19-.3-7-.31-11.21s.2-8.88.58-13.75,1-9.46,1.7-13.63c.4-2.07.72-4.05,1.16-5.87.2-.91.4-1.8.59-2.65s.43-1.65.63-2.42c.39-1.55.82-2.92,1.19-4.12l.53-1.69c.15-.51.34-1,.5-1.39l.7-1.93A2.66,2.66,0,0,1,131.45,365.55Z"/><path class="cls-4" d="M115.71,438.51a1,1,0,0,1,0-.25,3.4,3.4,0,0,0-.06-.72c0-.67-.11-1.59-.18-2.77-.15-2.44-.36-5.92-.61-10.19-.52-8.61-1.28-20.5-2.65-33.57-.71-6.54-1.53-12.74-2.37-18.37-.45-2.82-.86-5.5-1.33-8s-.88-4.81-1.29-6.92-.85-4-1.21-5.67-.68-3.11-1-4.28-.48-2.05-.62-2.69l-.16-.71v-.24a1.55,1.55,0,0,1,.07.23l.2.69c.17.64.41,1.54.7,2.68s.68,2.59,1,4.25.84,3.56,1.26,5.67.92,4.4,1.36,6.92.9,5.16,1.37,8c.86,5.63,1.69,11.84,2.39,18.38,1.38,13.09,2.09,25,2.54,33.61.22,4.31.37,7.79.47,10.2,0,1.18.07,2.11.09,2.77v.73A1.11,1.11,0,0,1,115.71,438.51Z"/><path class="cls-5" d="M119,351.42a6.13,6.13,0,0,0-5.94-5.24,9.29,9.29,0,0,0-7.2,4.12,24.17,24.17,0,0,0-3.46,8.09,57.57,57.57,0,0,0-2.09,21.54c.82,7.22,3.6,14.29,8.52,19.41a2.62,2.62,0,0,0,3.65,1.14,2.75,2.75,0,0,0,.83-.73A49.4,49.4,0,0,0,128.2,363.1a15.43,15.43,0,0,0-1.86-7.89c-1.44-2.29-4.8-4.71-7.31-3.79"/><path class="cls-5" d="M97.91,327.67l-4,7.6c-.1.17-.22.37-.41.39s-.36-.19-.48-.37l-10.53-17,2.42-1.44Z"/><g class="cls-13"><path d="M97.91,327.67l-4,7.6c-.1.17-.22.37-.41.39s-.36-.19-.48-.37l-10.53-17,2.42-1.44Z"/></g><path class="cls-5" d="M119.28,341.36,83.35,319a1.32,1.32,0,0,1-.89-1.6,1.25,1.25,0,0,1,.66-.84,24.06,24.06,0,0,1,19.2-7.94A21.85,21.85,0,0,1,119.68,320c3.47,6.52,3.58,15.14-.4,21.33"/><path class="cls-4" d="M88.53,311.92a1.24,1.24,0,0,1,.47-.06,12.26,12.26,0,0,1,1.36-.07,24.52,24.52,0,0,1,5,.42,27.85,27.85,0,0,1,7.1,2.26,30.91,30.91,0,0,1,17,25.06c.06.62,0,1.1.07,1.43a2.18,2.18,0,0,1,0,.51s-.07-.7-.22-1.92c-1.47-13.6-11.23-24.58-24-27a29.3,29.3,0,0,0-4.93-.55C89.18,311.93,88.53,312,88.53,311.92Z"/><path class="cls-4" d="M114.41,326a7.93,7.93,0,0,1-1.81.87c-1.14.47-2.74,1.1-4.54,1.68s-3.42,1.1-4.62,1.39a8.11,8.11,0,0,1-2,.39,9.66,9.66,0,0,1,1.88-.7l4.58-1.51,4.56-1.55A10.74,10.74,0,0,1,114.41,326Z"/><path class="cls-4" d="M108.76,310a28.06,28.06,0,0,1,.2,8.45,81.18,81.18,0,0,1-.2-8.45Z"/><path class="cls-4" d="M83,318.66a16.7,16.7,0,0,1,2.61-1c1.63-.53,3.91-1.2,6.44-1.85s4.86-1.1,6.54-1.44a16.76,16.76,0,0,1,2.74-.4,17.94,17.94,0,0,1-2.68.71c-1.67.39-4,.93-6.5,1.57s-4.8,1.26-6.45,1.71A17.73,17.73,0,0,1,83,318.66Z"/><path class="cls-5" d="M102.71,344.4c-3.13-2.46-6.36-3-10.23-2.79a30,30,0,0,0-11.2,3.05c-6.06,2.79-11.75,6.9-15.38,12.73S61,370.93,63.74,377.28a2.11,2.11,0,0,0,3.25,1.4c6.89-2.36,13.83-4.75,20.17-8.45s12.1-8.86,15.5-15.6a14,14,0,0,0,1.63-5.17,6.65,6.65,0,0,0-1.58-5.06"/><path class="cls-4" d="M102.78,343.63a1.92,1.92,0,0,1-.51.22l-1.44.52-1,.37-1.22.5c-.87.37-1.88.75-2.95,1.28l-1.69.82c-.59.28-1.17.64-1.8,1-1.24.64-2.5,1.47-3.85,2.3A66.55,66.55,0,0,0,80.12,357a68.63,68.63,0,0,0-7,7.7c-1,1.29-1.9,2.5-2.66,3.74-.4.6-.81,1.16-1.14,1.73l-1,1.66c-.64,1.05-1.12,2.06-1.58,2.93-.23.43-.45.82-.63,1.21l-.48,1-.68,1.44a2.3,2.3,0,0,1-.26.49,2.92,2.92,0,0,1,.19-.52c.14-.39.35-.88.59-1.49.14-.33.3-.68.45-1.1s.39-.79.6-1.23c.45-.88.91-1.9,1.54-2.95l1-1.7c.34-.58.74-1.15,1.12-1.77.76-1.23,1.7-2.46,2.66-3.78a67,67,0,0,1,7.12-7.74,63.88,63.88,0,0,1,8.23-6.39c1.36-.82,2.64-1.65,3.91-2.29.62-.31,1.21-.67,1.8-.94l1.72-.79a30.74,30.74,0,0,1,3-1.23l1.23-.47,1-.33,1.48-.44A3.92,3.92,0,0,1,102.78,343.63Z"/><path class="cls-4" d="M78.64,357.4A73.12,73.12,0,0,1,71.12,360a70.29,70.29,0,0,1-7.64,2.11A69.13,69.13,0,0,1,71,359.51,67.67,67.67,0,0,1,78.64,357.4Z"/><path class="cls-4" d="M78.32,374.86a12.67,12.67,0,0,1-.16-2.46v-6c0-2.32.17-4.4.29-5.95a12.53,12.53,0,0,1,.3-2.45,14.43,14.43,0,0,1,0,2.46c0,1.67-.1,3.7-.17,5.95s-.1,4.27-.14,5.95A14.49,14.49,0,0,1,78.32,374.86Z"/><path class="cls-4" d="M92.53,367.24c-.12,0-.49-4.28-.85-9.57s-.53-9.58-.4-9.58.49,4.26.84,9.55S92.65,367.23,92.53,367.24Z"/><path class="cls-4" d="M74.84,347.67a12.23,12.23,0,0,1,2.42-.08c1.48,0,3.53.06,5.79.13s4.32.18,5.8.28a12.06,12.06,0,0,1,2.4.24,12.93,12.93,0,0,1-2.41.08c-1.48,0-3.53-.06-5.8-.15s-4.32-.17-5.8-.26A12.06,12.06,0,0,1,74.84,347.67Z"/><path class="cls-4" d="M110.36,401.39a2.26,2.26,0,0,1,0-.52,14.06,14.06,0,0,0-.06-1.48c0-1.3-.07-3.17,0-5.5s.19-5.06.45-8.1.68-6.38,1.26-9.9,1.31-6.75,2.09-9.71,1.51-5.57,2.23-7.76,1.34-3.94,1.82-5.12c.22-.56.41-1,.55-1.38a2.15,2.15,0,0,1,.22-.46,2.85,2.85,0,0,1-.14.5l-.47,1.4c-.43,1.21-1,3-1.68,5.16s-1.42,4.83-2.15,7.77-1.41,6.23-2,9.68-1,6.78-1.28,9.82-.46,5.77-.55,8.07-.11,4.16-.11,5.5v1.48A2.07,2.07,0,0,1,110.36,401.39Z"/><path class="cls-4" d="M112.27,375.58a9.86,9.86,0,0,1-1.43,1.65c-.93,1-2.26,2.29-3.76,3.69s-2.91,2.59-4,3.43a9.87,9.87,0,0,1-1.74,1.28,11.12,11.12,0,0,1,1.55-1.52l3.87-3.53,3.83-3.58A11.07,11.07,0,0,1,112.27,375.58Z"/><path class="cls-4" d="M123.63,385.23a19.63,19.63,0,0,1-1.53-2.2l-3.55-5.5-3.63-5.4a21.32,21.32,0,0,1-1.45-2.27,14.34,14.34,0,0,1,1.71,2.08c1,1.34,2.32,3.22,3.72,5.34s2.62,4.09,3.46,5.49A15.06,15.06,0,0,1,123.63,385.23Z"/><path class="cls-4" d="M117.67,355c.06.1-3.71,2.78-8.44,6s-8.6,5.7-8.67,5.6,3.72-2.78,8.44-6S117.61,354.79,117.67,355Z"/><path class="cls-4" d="M128.33,367a72.36,72.36,0,0,1-5.72-5.5,73.6,73.6,0,0,1-5.41-5.88,74.87,74.87,0,0,1,5.72,5.55A76.64,76.64,0,0,1,128.33,367Z"/><path class="cls-5" d="M131,366.76l3.25-.28a15.83,15.83,0,0,0,6.55-2.11,25.44,25.44,0,0,1,3-1.62c4-1.69,8.48-1.39,12.8-1.61a51.08,51.08,0,0,0,20.35-5.5,2,2,0,0,0,.89-.85c.67-1.27-.56-2.41-1.63-3.1-5.46-3.55-11-7.13-17.22-8.89s-13.24-1.47-18.52,2.36c-6.21,4.5-8.46,13.73-9.52,21.58"/><path class="cls-4" d="M178,354.39a4,4,0,0,1-.55-.27l-1.54-.86c-1.33-.73-3.25-1.82-5.68-3a50.47,50.47,0,0,0-8.78-3.56,27.65,27.65,0,0,0-11.4-1,19.09,19.09,0,0,0-10.38,4.69,24.55,24.55,0,0,0-5.41,8c-1.14,2.56-1.84,4.73-2.35,6.22l-.58,1.73a2.67,2.67,0,0,1-.23.59q.06-.32.15-.63l.5-1.75a56.14,56.14,0,0,1,2.24-6.3,24.22,24.22,0,0,1,5.42-8.17A19.25,19.25,0,0,1,150,345.23a27.7,27.7,0,0,1,11.55,1,50,50,0,0,1,8.82,3.68c2.41,1.27,4.31,2.4,5.62,3.18l1.5.92A3.61,3.61,0,0,1,178,354.39Z"/><path class="cls-4" d="M170.18,358.79c-.07.1-4.31-2.79-9.47-6.45s-9.3-6.72-9.24-6.83,4.31,2.78,9.48,6.46S170.25,358.68,170.18,358.79Z"/><path class="cls-4" d="M166.11,345.05a9.48,9.48,0,0,1-3.31.7,9.89,9.89,0,0,1-3.39-.05,18.81,18.81,0,0,1,3.35-.4A19.81,19.81,0,0,1,166.11,345.05Z"/><path class="cls-4" d="M147.09,341.5a24.24,24.24,0,0,1-3.14,5.63A23.34,23.34,0,0,1,147.09,341.5Z"/><path class="cls-4" d="M150.92,361.42a11.57,11.57,0,0,1-2.09-1.16c-1.22-.78-2.87-1.94-4.65-3.3s-3.33-2.63-4.45-3.56a11.5,11.5,0,0,1-1.75-1.6,14.25,14.25,0,0,1,1.94,1.34l4.51,3.46c1.77,1.35,3.39,2.52,4.57,3.37A15.1,15.1,0,0,1,150.92,361.42Z"/><path class="cls-5" d="M135.77,381.26c-3.13-.86-6.77,2.31-7.41,5.6s.54,6.68,1.92,9.72a49.3,49.3,0,0,0,12.79,17.6,30.62,30.62,0,0,0,19.56,7.57c-1.32-6.39.35-13.07-.39-19.56-1.31-11.79-10.2-21.05-21.41-22.32-2-.23-4.26-.55-5.06,1.37"/><path class="cls-4" d="M162.63,421.77a.85.85,0,0,1-.44-.21,7.16,7.16,0,0,1-1.16-.82,12.6,12.6,0,0,1-3.06-4.3c-.49-1-1-2.1-1.58-3.3s-1-2.5-1.67-3.87a36.9,36.9,0,0,0-2-4.14,32.24,32.24,0,0,0-2.81-4c-2.09-2.62-4.39-4.89-6.37-7.05a45.79,45.79,0,0,1-4.84-6.13,22.5,22.5,0,0,1-2.37-4.76c-.2-.6-.34-1.1-.41-1.39a2.3,2.3,0,0,1-.1-.51s.21.67.66,1.84a26.87,26.87,0,0,0,2.47,4.65,47.17,47.17,0,0,0,4.89,6c2,2.13,4.26,4.4,6.4,7a31.38,31.38,0,0,1,2.84,4.09,37.32,37.32,0,0,1,2.09,4.2l1.63,3.89c.52,1.2,1,2.31,1.53,3.3a13.07,13.07,0,0,0,2.89,4.31A16.7,16.7,0,0,0,162.63,421.77Z"/><path class="cls-4" d="M146.63,416.52a10.21,10.21,0,0,1,.29-2.2c.24-1.34.64-3.18,1.17-5.19s1.11-3.79,1.57-5.07a10.5,10.5,0,0,1,.84-2,11.2,11.2,0,0,1-.55,2.12c-.39,1.31-.91,3.1-1.44,5.09s-1,3.82-1.3,5.14A11.18,11.18,0,0,1,146.63,416.52Z"/><path class="cls-4" d="M162.05,400.77a12.47,12.47,0,0,1-2.19-.52c-1.33-.37-3.13-.87-5.22-1.36s-3.92-.87-5.22-1.1a12.85,12.85,0,0,1-2.19-.5,9.79,9.79,0,0,1,2.23.18c1.37.19,3.26.52,5.32,1s3.89,1,5.22,1.48A11.93,11.93,0,0,1,162.05,400.77Z"/><path class="cls-4" d="M135.15,405.34a14.36,14.36,0,0,1,.33-2.54c.28-1.55.71-3.7,1.29-6s1.2-4.4,1.68-5.91a13.17,13.17,0,0,1,.89-2.39,17.11,17.11,0,0,1-.6,2.47c-.41,1.52-1,3.62-1.56,5.94s-1,4.4-1.39,6A16.42,16.42,0,0,1,135.15,405.34Z"/><path class="cls-4" d="M154.94,387.1a85.64,85.64,0,0,1-8.62-.74,80.43,80.43,0,0,1-8.58-1.19,85.94,85.94,0,0,1,8.63.74A80.11,80.11,0,0,1,154.94,387.1Z"/><path class="cls-9" d="M152.11,436.39c0,.13-13.58.23-30.29.23s-30.29-.1-30.29-.23,13.58-.22,30.29-.22S152.11,436.31,152.11,436.39Z"/><path class="cls-9" d="M142.67,454.77c0,.13-9.14.23-20.42.23s-20.43-.1-20.43-.23,9.15-.22,20.43-.22S142.67,454.65,142.67,454.77Z"/><path class="cls-9" d="M143,457.41c0,.12-9.14.22-20.42.22s-20.43-.1-20.43-.22,9.15-.23,20.43-.23S143,457.28,143,457.41Z"/><path class="cls-9" d="M143,452.6c0,.14-9.45.23-21.12.23s-21.13-.09-21.13-.23,9.45-.22,21.13-.22S143,452.48,143,452.6Z"/></g></svg>