<svg id="Layer_2" data-name="Layer 2" xmlns="http://www.w3.org/2000/svg" viewBox="0 0 800 800"><defs><style>.cls-1,.cls-6{fill:#dfaca0;stroke:#000;}.cls-1,.cls-5,.cls-6,.cls-7{stroke-miterlimit:10;}.cls-1{stroke-width:0.34px;}.cls-2{fill:#2b4d66;}.cls-3{fill:#365e7d;}.cls-4{fill:#d59b8b;}.cls-5,.cls-7,.cls-8{fill:none;}.cls-5{stroke:#c18678;stroke-width:24.86px;}.cls-5,.cls-7{stroke-linecap:round;}.cls-6{stroke-width:0.25px;}.cls-7{stroke:#365e7d;stroke-width:20.72px;}</style></defs><path class="cls-1" d="M748.5,296.19l0,219.24a165.81,165.81,0,0,1-6.84,47.07c-28.75,97.76-145.38,170.89-284.71,170.89H351.08c-63.6-11.31-128.27-28.67-179.63-55.63-56.31-29.56-88.69-78.51-88.69-130V489.86c-21.19,0-38.29-20.16-38.29-45s17.1-45.05,38.29-45.05l0-148.81c33.88-21.84,61.11-51.1,82.69-86.65C337.17,255.92,533.86,295,748.5,296.19Z"/><path class="cls-2" d="M419.27,774.51H86.19l.1-97.83-7.47,97.83H36.9L26.81,321.12c-4.26-79.89,53-214.77,128.64-194,2.53.67,5.05,1.45,7.58,2.32l50.22,17.45c1.7-2.82,18.3-19.18,20-21.92C201.84,222.79,208,278.48,270.91,339.06L256,352.69c-33.27,28.84-76.69,42.55-132.42,38.08v88.05c-76.83-91.28-150.83,95.72,4.47,99.11,18.48,81.92,91.66,143.12,179.17,143.12H425C442.85,725.28,437.71,745.63,419.27,774.51Z"/><path class="cls-3" d="M762,507.58V774.51H708.91L704,677.92l-4.47,96.59H416.64c18.44-28.88,23.58-49.23,5.76-53.46h69.3A183.71,183.71,0,0,0,671,577.06C737.62,575.57,762,540.19,762,507.58Z"/><path class="cls-4" d="M129.06,577.93c-155.3-3.39-81.3-190.39-4.47-99.11v58.59A184.12,184.12,0,0,0,129.06,577.93Z"/><path class="cls-4" d="M762,507.57c0,32.61-24.37,68-91,69.49a183.54,183.54,0,0,0,4.31-39.66V477.94C719.09,425.9,762,464.31,762,507.57Z"/><path class="cls-5" d="M671.17,515.86c10.81-10.11,24.05-17.94,50-13.79"/><path class="cls-5" d="M131.87,512.54c-10.81-10.11-24-17.94-50-13.79"/><path class="cls-4" d="M425,721.05H307.23c-87.51,0-160.69-61.2-179.17-143.12a184.12,184.12,0,0,1-4.47-40.52V390.77c55.73,4.47,99.15-9.24,132.42-38.08V440c-13.34,0-24.11,17-24.11,38s10.77,37.91,24.11,37.91v49.2c0,43.11,20.33,84.08,55.57,108.91C344,696.81,384.85,711.49,425,721.05Z"/><path class="cls-6" d="M675.37,352.69l0,184.72A183.53,183.53,0,0,1,491.7,721.05H425c-40.06-9.53-80.79-24.15-113.15-46.87C276.41,649.28,256,608,256,564.69V515.86c-13.34,0-24.11-17-24.11-37.91s10.77-38,24.11-38l0-125.38c21.34-18.4,38.5-43.05,52.09-73C416.27,318.75,540.16,351.65,675.37,352.69Z"/><path class="cls-7" d="M458.07,584.83c-38.68,27-76.64,28.14-113.79,0"/><ellipse class="cls-2" cx="539.11" cy="477.93" rx="24.14" ry="37.93"/><path class="cls-2" d="M280.17,478c0,20.92-10.81,37.91-24.16,37.91s-24.11-17-24.11-37.91,10.77-38,24.11-38S280.17,457,280.17,478Z"/><path class="cls-8" d="M218.43,138.47s0,.08,0,.12"/><path class="cls-3" d="M762,335.49V507.58c0-43.26-42.89-81.67-86.64-29.63V390.77c-135.21-1-259.1-33.94-367.25-111.09-13.59,30-30.75,54.61-52.09,73v0c-62.9-60.58-69.07-116.27-37.62-214.06,25.48-40.32,54.2-70.48,85.65-91.66C350.36,15.77,402.57,4,459.13,7.65,630.3,18.84,762,164,762,335.49Z"/></svg>